ArcticonsSans.glyphspackage
{
glyphname = exclam;
layers = (
{
layerId = m002;
shapes = (
{
attr = {
lineCapEnd = 1;
lineCapStart = 1;
strokeHeight = 100;
strokeWidth = 100;
};
closed = 0;
nodes = (
(135,849,l),
(135,265,l)
);
},
{
ref = period;
}
);
width = 270;
}
);
unicode = 33;
}
{
glyphname = numbersign;
layers = (
{
layerId = m002;
shapes = (
{
attr = {
lineCapEnd = 1;
lineCapStart = 1;
strokeHeight = 100;
strokeWidth = 100;
};
closed = 0;
nodes = (
(168,50,l),
(299,795,l)
);
},
{
attr = {
lineCapEnd = 1;
lineCapStart = 1;
strokeHeight = 100;
strokeWidth = 100;
};
closed = 0;
nodes = (
(428,50,l),
(559,795,l)
);
},
{
attr = {
lineCapEnd = 1;
lineCapStart = 1;
strokeHeight = 100;
strokeWidth = 100;
};
closed = 0;
nodes = (
(100,265,l),
(570,265,l)
);
},
{
attr = {
lineCapEnd = 1;
lineCapStart = 1;
strokeHeight = 100;
strokeWidth = 100;
};
closed = 0;
nodes = (
(156,580,l),
(626,580,l)
);
}
);
width = 726;
}
);
unicode = 35;
}
{
glyphname = dollar;
layers = (
{
layerId = m002;
shapes = (
{
attr = {
lineCapEnd = 1;
lineCapStart = 1;
strokeHeight = 100;
strokeWidth = 100;
};
closed = 0;
nodes = (
(115,137,l),
(165,73,o),
(226,50,o),
(312,50,cs),
(430,50,ls),
(540,50,o),
(630,139,o),
(630,250,cs),
(630,360,o),
(540,450,o),
(430,450,cs),
(299,450,ls),
(189,450,o),
(100,539,o),
(100,650,cs),
(100,760,o),
(189,850,o),
(299,850,cs),
(418,850,ls),
(503,850,o),
(565,826,o),
(614,762,c)
);
},
{
attr = {
lineCapEnd = 1;
lineCapStart = 1;
strokeHeight = 100;
strokeWidth = 100;
};
closed = 0;
nodes = (
(365,-50,l),
(365,950,l)
);
}
);
width = 730;
}
);
unicode = 36;
}
{
glyphname = percent;
layers = (
{
layerId = m002;
shapes = (
{
attr = {
strokeHeight = 100;
strokeWidth = 100;
};
closed = 1;
nodes = (
(100,617,o),
(167,550,o),
(250,550,c),
(333,550,o),
(400,617,o),
(400,700,c),
(400,783,o),
(333,850,o),
(250,850,c),
(167,850,o),
(100,783,o),
(100,700,c)
);
},
{
attr = {
strokeHeight = 100;
strokeWidth = 100;
};
closed = 1;
nodes = (
(500,117,o),
(567,50,o),
(650,50,c),
(733,50,o),
(800,117,o),
(800,200,c),
(800,283,o),
(733,350,o),
(650,350,c),
(567,350,o),
(500,283,o),
(500,200,c)
);
},
{
attr = {
lineCapEnd = 1;
lineCapStart = 1;
strokeHeight = 100;
strokeWidth = 100;
};
closed = 0;
nodes = (
(190,50,l),
(710,850,l)
);
}
);
width = 900;
}
);
unicode = 37;
}
{
glyphname = parenright;
kernLeft = parenthesis;
layers = (
{
layerId = m002;
shapes = (
{
attr = {
lineCapEnd = "1";
lineCapStart = "1";
strokeHeight = 100;
strokeWidth = 100;
};
closed = 0;
nodes = (
(100,850,l),
(100,850,o),
(300,672,o),
(300,370,c),
(300,67,o),
(100,-110,o),
(100,-110,c)
);
}
);
width = 400;
}
);
unicode = 41;
}
{
glyphname = asterisk;
layers = (
{
layerId = m002;
shapes = (
{
attr = {
lineCapEnd = 1;
lineCapStart = 1;
strokeHeight = 100;
strokeWidth = 100;
};
closed = 0;
nodes = (
(238,850,l),
(238,530,l)
);
},
{
attr = {
lineCapEnd = 1;
lineCapStart = 1;
strokeHeight = 100;
strokeWidth = 100;
};
closed = 0;
nodes = (
(100,770,l),
(377,610,l)
);
},
{
attr = {
lineCapEnd = 1;
lineCapStart = 1;
strokeHeight = 100;
strokeWidth = 100;
};
closed = 0;
nodes = (
(100,610,l),
(377,770,l)
);
}
);
width = 477;
}
);
unicode = 42;
}
{
glyphname = plus;
layers = (
{
layerId = m002;
shapes = (
{
attr = {
lineCapEnd = 1;
lineCapStart = 1;
strokeHeight = 100;
strokeWidth = 100;
};
closed = 0;
nodes = (
(150,315,l),
(550,315,l)
);
},
{
attr = {
lineCapEnd = 1;
lineCapStart = 1;
strokeHeight = 100;
strokeWidth = 100;
};
closed = 0;
nodes = (
(350,515,l),
(350,115,l)
);
}
);
width = 700;
}
);
unicode = 43;
}
{
glyphname = comma;
kernLeft = dot;
kernRight = dot;
layers = (
{
layerId = m002;
shapes = (
{
attr = {
lineCapEnd = "1";
lineCapStart = "1";
strokeHeight = 100;
strokeWidth = 100;
};
closed = 0;
nodes = (
(110,-99,l),
(160,-74,o),
(160,-25,o),
(160,0,c),
(160,66,l)
);
},
{
attr = {
fill = 1;
};
closed = 1;
nodes = (
(210,117,o),
(177,150,o),
(135,150,c),
(94,150,o),
(60,117,o),
(60,75,c),
(60,34,o),
(94,0,o),
(135,0,c),
(177,0,o),
(210,34,o),
(210,75,c)
);
}
);
width = 270;
}
);
unicode = 44;
}
{
glyphname = period;
kernLeft = dot;
kernRight = dot;
layers = (
{
layerId = m002;
shapes = (
{
attr = {
fill = 1;
};
closed = 1;
nodes = (
(210,116,o),
(176,150,o),
(135,150,c),
(93,150,o),
(60,116,o),
(60,75,c),
(60,34,o),
(93,0,o),
(135,0,c),
(176,0,o),
(210,34,o),
(210,75,c)
);
}
);
width = 270;
}
);
unicode = 46;
}
{
glyphname = zero;
kernLeft = uppercaseRound;
kernRight = uppercaseRound;
layers = (
{
layerId = m002;
shapes = (
{
attr = {
strokeHeight = 100;
strokeWidth = 100;
};
closed = 0;
nodes = (
(568,756,l),
(162,144,l)
);
},
{
attr = {
strokeHeight = 100;
strokeWidth = 100;
};
closed = 1;
nodes = (
(630,169,o),
(511,50,o),
(365,50,cs),
(219,50,o),
(100,169,o),
(100,315,cs),
(100,585,ls),
(100,731,o),
(219,850,o),
(365,850,cs),
(511,850,o),
(630,731,o),
(630,585,cs),
(630,315,ls)
);
}
);
width = 730;
}
);
unicode = 48;
}
{
glyphname = one;
kernRight = uppercaseStraight;
layers = (
{
layerId = m002;
shapes = (
{
attr = {
lineCapEnd = 1;
lineCapStart = 1;
strokeHeight = 100;
strokeWidth = 100;
};
closed = 0;
nodes = (
(300,850,l),
(300,50,l)
);
},
{
attr = {
lineCapEnd = 1;
lineCapStart = 1;
strokeHeight = 100;
strokeWidth = 100;
};
closed = 0;
nodes = (
(100,741,l),
(300,850,l)
);
}
);
width = 400;
}
);
unicode = 49;
}
{
glyphname = two;
layers = (
{
layerId = m002;
shapes = (
{
attr = {
lineCapEnd = 1;
lineCapStart = 1;
strokeHeight = 100;
strokeWidth = 100;
};
closed = 0;
nodes = (
(100,50,l),
(100,50,o),
(446,304,o),
(553,398,cs),
(604,442,o),
(630,512,o),
(630,585,cs),
(630,731,o),
(512,850,o),
(365,850,cs),
(219,850,o),
(100,731,o),
(100,585,c)
);
},
{
attr = {
lineCapEnd = 1;
lineCapStart = 1;
strokeHeight = 100;
strokeWidth = 100;
};
closed = 0;
nodes = (
(630,50,l),
(100,50,l)
);
}
);
width = 730;
}
);
unicode = 50;
}
{
glyphname = three;
kernLeft = three;
kernRight = three;
layers = (
{
layerId = m002;
shapes = (
{
attr = {
lineCapEnd = 1;
lineCapStart = 1;
strokeHeight = 100;
strokeWidth = 100;
};
closed = 0;
nodes = (
(100,783,l),
(156,829,o),
(215,850,o),
(349,850,cs),
(380,850,ls),
(491,850,o),
(580,760,o),
(580,650,cs),
(580,540,o),
(491,450,o),
(380,450,c)
);
},
{
attr = {
lineCapEnd = 1;
lineCapStart = 1;
strokeHeight = 100;
strokeWidth = 100;
};
closed = 0;
nodes = (
(100,117,l),
(156,71,o),
(215,50,o),
(349,50,cs),
(380,50,ls),
(491,50,o),
(580,140,o),
(580,250,cs),
(580,360,o),
(491,450,o),
(380,450,c)
);
},
{
attr = {
lineCapEnd = 1;
lineCapStart = 1;
strokeHeight = 100;
strokeWidth = 100;
};
closed = 0;
nodes = (
(277,450,l),
(381,450,l)
);
}
);
width = 680;
}
);
metricLeft = "=50";
metricRight = "=50";
unicode = 51;
}
{
glyphname = four;
layers = (
{
layerId = m002;
shapes = (
{
attr = {
lineCapEnd = 1;
lineCapStart = 1;
strokeHeight = 100;
strokeWidth = 100;
};
closed = 0;
nodes = (
(529,850,l),
(100,313,l)
);
},
{
attr = {
lineCapEnd = 1;
lineCapStart = 1;
strokeHeight = 100;
strokeWidth = 100;
};
closed = 0;
nodes = (
(100,313,l),
(630,313,l)
);
},
{
attr = {
lineCapEnd = 1;
lineCapStart = 1;
strokeHeight = 100;
strokeWidth = 100;
};
closed = 0;
nodes = (
(529,50,l),
(529,850,l)
);
}
);
width = 720;
}
);
unicode = 52;
}
{
glyphname = five;
layers = (
{
layerId = m002;
shapes = (
{
attr = {
lineCapEnd = 1;
lineCapStart = 1;
strokeHeight = 100;
strokeWidth = 100;
};
closed = 0;
nodes = (
(100,117,l),
(156,71,o),
(209,50,o),
(343,50,c),
(365,50,l),
(490,50,o),
(590,151,o),
(590,275,c),
(590,399,o),
(490,500,o),
(365,500,c),
(100,500,l)
);
},
{
attr = {
lineCapEnd = 1;
lineCapStart = 1;
strokeHeight = 100;
strokeWidth = 100;
};
closed = 0;
nodes = (
(100,850,l),
(590,850,l)
);
},
{
attr = {
lineCapEnd = 1;
lineCapStart = 1;
strokeHeight = 100;
strokeWidth = 100;
};
closed = 0;
nodes = (
(100,500,l),
(100,850,l)
);
}
);
width = 690;
}
);
unicode = 53;
}
{
glyphname = six;
kernLeft = uppercaseRound;
kernRight = uppercaseRound;
layers = (
{
layerId = m002;
shapes = (
{
attr = {
strokeHeight = 100;
strokeWidth = 100;
};
closed = 1;
nodes = (
(630,169,o),
(512,50,o),
(365,50,cs),
(219,50,o),
(100,169,o),
(100,315,cs),
(100,461,o),
(219,580,o),
(365,580,cs),
(512,580,o),
(630,461,o),
(630,315,cs)
);
},
{
attr = {
lineCapEnd = 1;
lineCapStart = 1;
strokeHeight = 100;
strokeWidth = 100;
};
closed = 0;
nodes = (
(607,752,l),
(563,810,o),
(496,850,o),
(384,850,cs),
(365,850,ls),
(219,850,o),
(100,731,o),
(100,585,cs),
(100,315,l)
);
}
);
width = 730;
}
);
unicode = 54;
}
{
glyphname = eight;
kernLeft = uppercaseRound;
kernRight = uppercaseRound;
layers = (
{
layerId = m002;
shapes = (
{
attr = {
lineCapEnd = 1;
lineCapStart = 1;
strokeHeight = 100;
strokeWidth = 100;
};
closed = 0;
nodes = (
(430,450,l),
(541,450,o),
(630,360,o),
(630,250,cs),
(630,140,o),
(541,50,o),
(430,50,cs),
(300,50,ls),
(190,50,o),
(100,140,o),
(100,250,cs),
(100,360,o),
(190,450,o),
(300,450,c)
);
},
{
attr = {
lineCapEnd = 1;
lineCapStart = 1;
strokeHeight = 100;
strokeWidth = 100;
};
closed = 0;
nodes = (
(300,450,l),
(190,450,o),
(100,540,o),
(100,650,cs),
(100,760,o),
(190,850,o),
(300,850,cs),
(430,850,ls),
(541,850,o),
(630,760,o),
(630,650,cs),
(630,540,o),
(541,450,o),
(430,450,c)
);
},
{
attr = {
lineCapEnd = 1;
lineCapStart = 1;
strokeHeight = 100;
strokeWidth = 100;
};
closed = 0;
nodes = (
(300,450,l),
(430,450,l)
);
}
);
width = 730;
}
);
unicode = 56;
}
{
glyphname = nine;
kernLeft = uppercaseRound;
kernRight = uppercaseRound;
layers = (
{
layerId = m002;
shapes = (
{
attr = {
strokeHeight = 100;
strokeWidth = 100;
};
closed = 1;
nodes = (
(100,731,o),
(219,850,o),
(365,850,cs),
(512,850,o),
(630,731,o),
(630,585,cs),
(630,439,o),
(512,320,o),
(365,320,cs),
(219,320,o),
(100,439,o),
(100,585,cs)
);
},
{
attr = {
lineCapEnd = 1;
lineCapStart = 1;
strokeHeight = 100;
strokeWidth = 100;
};
closed = 0;
nodes = (
(124,148,l),
(168,90,o),
(235,50,o),
(347,50,cs),
(365,50,ls),
(512,50,o),
(630,169,o),
(630,315,cs),
(630,585,l)
);
}
);
width = 730;
}
);
unicode = 57;
}
{
glyphname = colon;
kernLeft = colon;
kernRight = colon;
layers = (
{
layerId = m002;
shapes = (
{
attr = {
fill = 1;
};
closed = 1;
nodes = (
(210,116,o),
(176,150,o),
(135,150,cs),
(93,150,o),
(60,116,o),
(60,75,cs),
(60,34,o),
(93,0,o),
(135,0,cs),
(176,0,o),
(210,34,o),
(210,75,cs)
);
},
{
attr = {
fill = 1;
};
closed = 1;
nodes = (
(210,620,o),
(176,654,o),
(135,654,cs),
(93,654,o),
(60,620,o),
(60,579,cs),
(60,538,o),
(93,504,o),
(135,504,cs),
(176,504,o),
(210,538,o),
(210,579,cs)
);
}
);
width = 270;
}
);
unicode = 58;
}
{
glyphname = semicolon;
kernLeft = dot;
kernRight = dot;
layers = (
{
layerId = m002;
shapes = (
{
attr = {
lineCapEnd = 1;
lineCapStart = 1;
strokeHeight = 100;
strokeWidth = 100;
};
closed = 0;
nodes = (
(110,-99,l),
(160,-74,o),
(160,-25,o),
(160,0,cs),
(160,66,l)
);
},
{
attr = {
fill = 1;
};
closed = 1;
nodes = (
(210,117,o),
(177,150,o),
(135,150,cs),
(94,150,o),
(60,117,o),
(60,75,cs),
(60,34,o),
(94,0,o),
(135,0,cs),
(177,0,o),
(210,34,o),
(210,75,cs)
);
},
{
attr = {
fill = 1;
};
closed = 1;
nodes = (
(210,620,o),
(176,654,o),
(135,654,cs),
(93,654,o),
(60,620,o),
(60,579,cs),
(60,538,o),
(93,504,o),
(135,504,cs),
(176,504,o),
(210,538,o),
(210,579,cs)
);
}
);
width = 270;
}
);
unicode = 59;
}
{
glyphname = greater;
layers = (
{
layerId = m002;
shapes = (
{
attr = {
lineCapEnd = 1;
lineCapStart = 1;
strokeHeight = 100;
strokeWidth = 100;
};
closed = 0;
nodes = (
(600,315,l),
(100,580,l)
);
},
{
attr = {
lineCapEnd = 1;
lineCapStart = 1;
strokeHeight = 100;
strokeWidth = 100;
};
closed = 0;
nodes = (
(100,50,l),
(600,315,l)
);
}
);
width = 700;
}
);
unicode = 62;
}
{
glyphname = question;
layers = (
{
layerId = m002;
shapes = (
{
attr = {
lineCapEnd = "1";
lineCapStart = "1";
strokeHeight = 100;
strokeWidth = 100;
};
closed = 0;
nodes = (
(319,265,l),
(319,280,l),
(319,373,o),
(430,438,o),
(475,474,c),
(519,510,o),
(540,569,o),
(540,630,c),
(540,752,o),
(441,850,o),
(320,850,c),
(259,850,o),
(204,825,o),
(164,786,c),
(124,746,o),
(100,691,o),
(100,630,c)
);
},
{
attr = {
fill = 1;
};
closed = 1;
nodes = (
(395,116,o),
(361,150,o),
(320,150,c),
(278,150,o),
(245,116,o),
(245,75,c),
(245,34,o),
(278,0,o),
(320,0,c),
(361,0,o),
(395,34,o),
(395,75,c)
);
}
);
width = 640;
}
);
unicode = 63;
}
{
glyphname = at;
layers = (
{
layerId = m002;
shapes = (
{
attr = {
lineCapEnd = 1;
lineCapStart = 1;
strokeHeight = 100;
strokeWidth = 100;
};
closed = 0;
nodes = (
(715,563,l),
(715,563,o),
(692,323,o),
(686,235,cs),
(682,177,o),
(745,142,o),
(799,142,cs),
(921,142,o),
(991,249,o),
(998,399,cs),
(1014,706,o),
(826,850,o),
(570,850,cs),
(324,850,o),
(126,659,o),
(102,399,cs),
(83,182,o),
(201,-110,o),
(513,-110,cs),
(624,-110,o),
(716,-96,o),
(787,-48,c)
);
},
{
attr = {
lineCapEnd = 1;
lineCapStart = 1;
strokeHeight = 100;
strokeWidth = 100;
};
closed = 0;
nodes = (
(693,323,l),
(686,242,o),
(615,177,o),
(535,177,cs),
(454,177,o),
(394,242,o),
(401,323,cs),
(409,417,ls),
(417,498,o),
(488,563,o),
(569,563,cs),
(649,563,o),
(709,499,o),
(701,418,c)
);
},
{
attr = {
lineCapEnd = 1;
lineCapStart = 1;
strokeHeight = 100;
strokeWidth = 100;
};
closed = 1;
nodes = (
);
},
{
attr = {
lineCapEnd = 1;
lineCapStart = 1;
strokeHeight = 100;
strokeWidth = 100;
};
closed = 1;
nodes = (
);
}
);
width = 1099;
}
);
metricLeft = "=50";
metricRight = "=50";
unicode = 64;
}
{
glyphname = A;
kernLeft = A;
kernRight = A;
layers = (
{
anchors = (
{
name = bottom;
pos = (365,50);
},
{
name = ogonek;
pos = (680,0);
},
{
name = top;
pos = (365,900);
}
);
layerId = m002;
shapes = (
{
attr = {
lineCapEnd = 1;
lineCapStart = 1;
strokeHeight = 100;
strokeWidth = 100;
};
closed = 0;
nodes = (
(542,315,l),
(188,315,l)
);
},
{
attr = {
lineCapEnd = 1;
lineCapStart = 1;
strokeHeight = 100;
strokeWidth = 100;
};
closed = 0;
nodes = (
(100,50,l),
(365,850,l)
);
},
{
attr = {
lineCapEnd = 1;
lineCapStart = 1;
strokeHeight = 100;
strokeWidth = 100;
};
closed = 0;
nodes = (
(630,50,l),
(365,850,l)
);
}
);
width = 730;
}
);
metricLeft = "=50";
metricRight = "=50";
unicode = 65;
}
{
glyphname = C;
kernLeft = uppercaseRound;
kernRight = uppercaseRound;
layers = (
{
anchors = (
{
name = bottom;
pos = (365,0);
},
{
name = top;
pos = (365,900);
}
);
layerId = m002;
shapes = (
{
attr = {
lineCapEnd = 1;
lineCapStart = 1;
strokeHeight = 100;
strokeWidth = 100;
};
closed = 0;
nodes = (
(630,318,l),
(630,315,l),
(630,169,o),
(512,50,o),
(365,50,c),
(219,50,o),
(100,169,o),
(100,315,c),
(100,585,l),
(100,731,o),
(219,850,o),
(365,850,c),
(512,850,o),
(630,731,o),
(630,585,c),
(630,582,l)
);
}
);
width = 730;
}
);
unicode = 67;
}
{
glyphname = D;
kernLeft = uppercaseStraight;
kernRight = uppercaseRound;
layers = (
{
anchors = (
{
name = bottom;
pos = (280,50);
},
{
name = center;
pos = (365,475);
},
{
name = top;
pos = (280,900);
}
);
layerId = m002;
shapes = (
{
attr = {
lineCapEnd = 1;
lineCapStart = 1;
strokeHeight = 100;
strokeWidth = 100;
};
closed = 0;
nodes = (
(100,850,l),
(280,850,l),
(473,850,o),
(630,694,o),
(630,500,c),
(630,400,l),
(630,207,o),
(473,50,o),
(280,50,c),
(100,50,l)
);
},
{
attr = {
lineCapEnd = 1;
lineCapStart = 1;
strokeHeight = 100;
strokeWidth = 100;
};
closed = 0;
nodes = (
(100,50,l),
(100,850,l)
);
}
);
width = 730;
}
);
metricRight = "=50";
unicode = 68;
}
{
glyphname = F;
kernLeft = uppercaseStraight;
layers = (
{
anchors = (
{
name = bottom;
pos = (300,50);
},
{
name = top;
pos = (300,900);
}
);
layerId = m002;
shapes = (
{
attr = {
lineCapEnd = 1;
lineCapStart = 1;
strokeHeight = 100;
strokeWidth = 100;
};
closed = 0;
nodes = (
(100,450,l),
(360,450,l)
);
},
{
attr = {
lineCapEnd = 1;
lineCapStart = 1;
strokeHeight = 100;
strokeWidth = 100;
};
closed = 0;
nodes = (
(100,50,l),
(100,850,l)
);
},
{
attr = {
lineCapEnd = 1;
lineCapStart = 1;
strokeHeight = 100;
strokeWidth = 100;
};
closed = 0;
nodes = (
(100,850,l),
(500,850,l)
);
}
);
width = 600;
}
);
unicode = 70;
}
{
glyphname = G;
kernLeft = uppercaseRound;
kernRight = uppercaseRound;
layers = (
{
anchors = (
{
name = bottom;
pos = (365,50);
},
{
name = top;
pos = (365,900);
}
);
layerId = m002;
shapes = (
{
attr = {
lineCapEnd = 1;
lineCapStart = 1;
strokeHeight = 100;
strokeWidth = 100;
};
closed = 0;
nodes = (
(630,315,l),
(630,169,o),
(511,50,o),
(365,50,c),
(218,50,o),
(100,169,o),
(100,315,c),
(100,585,l),
(100,732,o),
(218,850,o),
(365,850,c),
(511,850,o),
(630,732,o),
(630,585,c)
);
},
{
attr = {
lineCapEnd = 1;
lineCapStart = 1;
strokeHeight = 100;
strokeWidth = 100;
};
closed = 0;
nodes = (
(365,315,l),
(630,315,l)
);
}
);
width = 730;
}
);
metricRight = "=50";
unicode = 71;
}
{
glyphname = H;
kernLeft = uppercaseStraight;
kernRight = uppercaseStraight;
layers = (
{
anchors = (
{
name = bottom;
pos = (355,0);
},
{
name = center;
pos = (355,475);
},
{
name = top;
pos = (355,900);
},
{
name = topleft;
pos = (20,900);
}
);
layerId = m002;
shapes = (
{
attr = {
lineCapEnd = 1;
lineCapStart = 1;
strokeHeight = 100;
strokeWidth = 100;
};
closed = 0;
nodes = (
(100,850,l),
(100,50,l)
);
},
{
attr = {
lineCapEnd = 1;
lineCapStart = 1;
strokeHeight = 100;
strokeWidth = 100;
};
closed = 0;
nodes = (
(610,850,l),
(610,50,l)
);
},
{
attr = {
lineCapEnd = 1;
lineCapStart = 1;
strokeHeight = 100;
strokeWidth = 100;
};
closed = 0;
nodes = (
(100,452,l),
(610,452,l)
);
}
);
width = 710;
}
);
metricRight = "=50";
unicode = 72;
}
{
glyphname = I;
kernLeft = uppercaseStraight;
kernRight = uppercaseStraight;
layers = (
{
anchors = (
{
name = bottom;
pos = (100,50);
},
{
name = ogonek;
pos = (150,0);
},
{
name = top;
pos = (100,900);
},
{
name = topleft;
pos = (10,900);
}
);
layerId = m002;
shapes = (
{
attr = {
lineCapEnd = 1;
lineCapStart = 1;
strokeHeight = 100;
strokeWidth = 100;
};
closed = 0;
nodes = (
(100,850,l),
(100,50,l)
);
}
);
width = 200;
}
);
metricLeft = "=50";
metricRight = "=50";
unicode = 73;
}
{
glyphname = J;
layers = (
{
anchors = (
{
name = bottom;
pos = (300,50);
},
{
name = top;
pos = (500,900);
}
);
layerId = m002;
shapes = (
{
attr = {
lineCapEnd = 1;
lineCapStart = 1;
strokeHeight = 100;
strokeWidth = 100;
};
closed = 0;
nodes = (
(100,316,l),
(100,250,l),
(100,140,o),
(190,50,o),
(300,50,c),
(411,50,o),
(500,140,o),
(500,250,c),
(500,850,l)
);
}
);
width = 600;
}
);
metricRight = "=50";
unicode = 74;
}
{
glyphname = L;
kernLeft = uppercaseStraight;
layers = (
{
anchors = (
{
name = bottom;
pos = (300,0);
},
{
name = bottom_right;
pos = (500,0);
},
{
name = center;
pos = (300,450);
},
{
name = top;
pos = (100,900);
},
{
name = topright;
pos = (300,630);
}
);
layerId = m002;
shapes = (
{
attr = {
lineCapEnd = 1;
lineCapStart = 1;
strokeHeight = 100;
strokeWidth = 100;
};
closed = 0;
nodes = (
(100,850,l),
(100,50,l)
);
},
{
attr = {
lineCapEnd = 1;
lineCapStart = 1;
strokeHeight = 100;
strokeWidth = 100;
};
closed = 0;
nodes = (
(100,50,l),
(500,50,l)
);
}
);
width = 600;
}
);
unicode = 76;
}
{
glyphname = O;
kernLeft = uppercaseRound;
kernRight = uppercaseRound;
layers = (
{
anchors = (
{
name = bottom;
pos = (365,50);
},
{
name = center;
pos = (365,475);
},
{
name = ogonek;
pos = (528,125);
},
{
name = top;
pos = (365,900);
},
{
name = topleft;
pos = (20,900);
},
{
name = topright;
pos = (710,900);
}
);
layerId = m002;
shapes = (
{
attr = {
strokeHeight = 100;
strokeWidth = 100;
};
closed = 1;
nodes = (
(630,169,o),
(511,50,o),
(365,50,cs),
(219,50,o),
(100,169,o),
(100,315,cs),
(100,585,ls),
(100,731,o),
(219,850,o),
(365,850,cs),
(511,850,o),
(630,731,o),
(630,585,cs),
(630,315,ls)
);
}
);
width = 730;
}
);
metricRight = "=50";
unicode = 79;
}
{
glyphname = Q;
kernLeft = uppercaseRound;
layers = (
{
anchors = (
{
name = bottom;
pos = (365,50);
},
{
name = top;
pos = (365,900);
}
);
layerId = m002;
shapes = (
{
attr = {
lineCapEnd = 1;
lineCapStart = 1;
strokeHeight = 100;
strokeWidth = 100;
};
closed = 0;
nodes = (
(630,50,l),
(365,312,l)
);
},
{
attr = {
strokeHeight = 100;
strokeWidth = 100;
};
closed = 1;
nodes = (
(630,169,o),
(511,50,o),
(365,50,c),
(219,50,o),
(100,169,o),
(100,315,c),
(100,585,l),
(100,731,o),
(219,850,o),
(365,850,c),
(511,850,o),
(630,731,o),
(630,585,c),
(630,315,l)
);
}
);
width = 730;
}
);
metricRight = "=50";
unicode = 81;
}
{
glyphname = S;
kernLeft = S;
kernRight = S;
layers = (
{
anchors = (
{
name = bottom;
pos = (385,0);
},
{
name = top;
pos = (365,900);
}
);
layerId = m002;
shapes = (
{
attr = {
lineCapEnd = "1";
lineCapStart = "1";
strokeHeight = 100;
strokeWidth = 100;
};
closed = 0;
nodes = (
(622,706,l),
(598,790,o),
(521,850,o),
(430,850,c),
(300,850,ls),
(190,850,o),
(100,760,o),
(100,650,cs),
(100,539,o),
(189,450,o),
(300,450,cs),
(430,450,ls),
(541,450,o),
(630,361,o),
(630,250,cs),
(630,139,o),
(541,50,o),
(430,50,cs),
(300,50,ls),
(209,50,o),
(132,110,o),
(108,194,c)
);
}
);
width = 730;
}
);
metricLeft = "=50";
metricRight = "=50";
unicode = 83;
}
{
glyphname = U;
layers = (
{
anchors = (
{
name = bottom;
pos = (365,50);
},
{
name = ogonek;
pos = (528,25);
},
{
name = top;
pos = (365,900);
},
{
name = top_viet;
pos = (581,900);
}
);
layerId = m002;
shapes = (
{
attr = {
lineCapEnd = 1;
lineCapStart = 1;
strokeHeight = 100;
strokeWidth = 100;
};
closed = 0;
nodes = (
(100,850,l),
(100,315,ls),
(100,169,o),
(219,50,o),
(365,50,cs),
(511,50,o),
(630,169,o),
(630,315,cs),
(630,850,l)
);
}
);
width = 730;
}
);
metricLeft = "=50";
metricRight = "=50";
unicode = 85;
}
{
glyphname = V;
kernLeft = uppercaseDiagonal;
kernRight = uppercaseDiagonal;
layers = (
{
anchors = (
{
name = bottom;
pos = (365,50);
},
{
name = top;
pos = (365,900);
}
);
layerId = m002;
shapes = (
{
attr = {
lineCapEnd = 1;
lineCapStart = 1;
strokeHeight = 100;
strokeWidth = 100;
};
closed = 0;
nodes = (
(630,850,l),
(365,50,l)
);
},
{
attr = {
lineCapEnd = 1;
lineCapStart = 1;
strokeHeight = 100;
strokeWidth = 100;
};
closed = 0;
nodes = (
(365,50,l),
(100,850,l)
);
}
);
width = 730;
}
);
metricLeft = "=50";
metricRight = "=50";
unicode = 86;
}
{
glyphname = X;
kernLeft = uppercaseDiagonal;
kernRight = uppercaseDiagonal;
layers = (
{
anchors = (
{
name = bottom;
pos = (365,50);
},
{
name = top;
pos = (365,900);
}
);
layerId = m002;
shapes = (
{
attr = {
lineCapEnd = 1;
lineCapStart = 1;
strokeHeight = 100;
strokeWidth = 100;
};
closed = 0;
nodes = (
(100,850,l),
(630,50,l)
);
},
{
attr = {
lineCapEnd = 1;
lineCapStart = 1;
strokeHeight = 100;
strokeWidth = 100;
};
closed = 0;
nodes = (
(630,850,l),
(100,50,l)
);
}
);
width = 730;
}
);
metricRight = "=50";
unicode = 88;
}
{
glyphname = Y;
kernLeft = uppercaseDiagonal;
kernRight = uppercaseDiagonal;
layers = (
{
anchors = (
{
name = bottom;
pos = (365,0);
},
{
name = top;
pos = (365,900);
},
{
name = topleft;
pos = (20,900);
}
);
layerId = m002;
shapes = (
{
attr = {
lineCapEnd = 1;
lineCapStart = 1;
strokeHeight = 100;
strokeWidth = 100;
};
closed = 0;
nodes = (
(630,850,l),
(365,450,l)
);
},
{
attr = {
lineCapEnd = 1;
lineCapStart = 1;
strokeHeight = 100;
strokeWidth = 100;
};
closed = 0;
nodes = (
(365,50,l),
(365,450,l)
);
},
{
attr = {
lineCapEnd = 1;
lineCapStart = 1;
strokeHeight = 100;
strokeWidth = 100;
};
closed = 0;
nodes = (
(365,450,l),
(100,850,l)
);
}
);
width = 730;
}
);
metricRight = "=50";
unicode = 89;
}
{
glyphname = bracketleft;
kernRight = parenthesis;
layers = (
{
layerId = m002;
shapes = (
{
attr = {
lineCapEnd = 1;
lineCapStart = 1;
strokeHeight = 100;
strokeWidth = 100;
};
closed = 0;
nodes = (
(100,850,l),
(100,-110,l)
);
},
{
attr = {
lineCapEnd = 1;
lineCapStart = 1;
strokeHeight = 100;
strokeWidth = 100;
};
closed = 0;
nodes = (
(100,-110,l),
(260,-110,l)
);
},
{
attr = {
lineCapEnd = 1;
lineCapStart = 1;
strokeHeight = 100;
strokeWidth = 100;
};
closed = 0;
nodes = (
(260,850,l),
(100,850,l)
);
}
);
width = 360;
}
);
unicode = 91;
}
{
glyphname = backslash;
layers = (
{
layerId = m002;
shapes = (
{
attr = {
lineCapEnd = "1";
lineCapStart = "1";
strokeHeight = 100;
strokeWidth = 100;
};
closed = 0;
nodes = (
(100,850,l),
(400,-165,l)
);
}
);
width = 500;
}
);
unicode = 92;
}
{
glyphname = asciicircum;
layers = (
{
layerId = m002;
shapes = (
{
attr = {
lineCapEnd = 1;
lineCapStart = 1;
strokeHeight = 100;
strokeWidth = 100;
};
closed = 0;
nodes = (
(310,850,l),
(100,500,l)
);
},
{
attr = {
lineCapEnd = 1;
lineCapStart = 1;
strokeHeight = 100;
strokeWidth = 100;
};
closed = 0;
nodes = (
(520,500,l),
(310,850,l)
);
}
);
width = 620;
}
);
metricLeft = "=50";
metricRight = "=50";
unicode = 94;
}
{
glyphname = a;
kernLeft = lowercaseRound;
kernRight = lowercaseStraight;
layers = (
{
anchors = (
{
name = bottom;
pos = (300,0);
},
{
name = ogonek;
pos = (550,0);
},
{
name = top;
pos = (300,630);
}
);
layerId = m002;
shapes = (
{
attr = {
lineCapEnd = 1;
lineCapStart = 1;
strokeHeight = 100;
strokeWidth = 100;
};
closed = 0;
nodes = (
(500,50,l),
(500,580,l)
);
},
{
attr = {
lineCapEnd = 1;
lineCapStart = 1;
strokeHeight = 100;
strokeWidth = 100;
};
closed = 0;
nodes = (
(500,250,l),
(500,140,o),
(410,50,o),
(300,50,c),
(189,50,o),
(100,140,o),
(100,250,c),
(100,380,l),
(100,490,o),
(189,580,o),
(300,580,c),
(410,580,o),
(500,490,o),
(500,380,c)
);
}
);
width = 600;
}
);
metricRight = "=50";
unicode = 97;
}
{
glyphname = c;
kernLeft = lowercaseRound;
kernRight = lowercaseRound;
layers = (
{
anchors = (
{
name = bottom;
pos = (300,0);
},
{
name = top;
pos = (300,630);
}
);
layerId = m002;
shapes = (
{
attr = {
lineCapEnd = 1;
lineCapStart = 1;
strokeHeight = 100;
strokeWidth = 100;
};
closed = 0;
nodes = (
(474,151,l),
(439,91,o),
(375,50,o),
(300,50,cs),
(190,50,o),
(100,140,o),
(100,250,cs),
(100,380,ls),
(100,490,o),
(190,580,o),
(300,580,cs),
(374,580,o),
(439,540,o),
(474,480,c)
);
}
);
width = 574;
}
);
metricRight = "=50";
unicode = 99;
}
{
glyphname = g;
kernLeft = lowercaseRound;
kernRight = lowercaseDescender;
layers = (
{
anchors = (
{
name = bottom;
pos = (300,-270);
},
{
name = top;
pos = (300,630);
}
);
layerId = m002;
shapes = (
{
attr = {
lineCapEnd = 2;
lineCapStart = 1;
strokeHeight = 100;
strokeWidth = 100;
};
closed = 0;
nodes = (
(500,580,l),
(500,-20,ls),
(500,-131,o),
(411,-220,o),
(300,-220,cs),
(245,-220,o),
(195,-198,o),
(159,-162,c)
);
},
{
attr = {
lineCapEnd = 1;
lineCapStart = 1;
strokeHeight = 100;
strokeWidth = 100;
};
closed = 0;
nodes = (
(500,250,l),
(500,139,o),
(411,50,o),
(300,50,cs),
(190,50,o),
(100,139,o),
(100,250,cs),
(100,380,ls),
(100,490,o),
(190,580,o),
(300,580,cs),
(411,580,o),
(500,490,o),
(500,380,c)
);
},
{
attr = {
lineCapEnd = 2;
lineCapStart = 1;
strokeHeight = 100;
strokeWidth = 100;
};
closed = 1;
nodes = (
);
}
);
width = 600;
}
);
metricRight = "=50";
unicode = 103;
}
{
glyphname = k;
kernLeft = lowercaseStraightAscender;
layers = (
{
anchors = (
{
name = bottom;
pos = (300,50);
},
{
name = top;
pos = (300,900);
}
);
layerId = m002;
shapes = (
{
attr = {
lineCapEnd = 1;
lineCapStart = 1;
strokeHeight = 100;
strokeWidth = 100;
};
closed = 0;
nodes = (
(100,850,l),
(100,50,l)
);
},
{
attr = {
lineCapEnd = 1;
lineCapStart = 1;
strokeHeight = 100;
strokeWidth = 100;
};
closed = 0;
nodes = (
(100,220,l),
(462,580,l)
);
},
{
attr = {
lineCapEnd = 1;
lineCapStart = 1;
strokeHeight = 100;
strokeWidth = 100;
};
closed = 0;
nodes = (
(215,335,l),
(500,51,l)
);
}
);
width = 600;
}
);
unicode = 107;
}
{
glyphname = l;
kernLeft = lowercaseStraightAscender;
layers = (
{
anchors = (
{
name = bottom;
pos = (165,0);
},
{
name = center;
pos = (165,508);
},
{
name = top;
pos = (50,900);
},
{
name = top_2;
pos = (100,900);
},
{
name = topright;
pos = (240,630);
}
);
layerId = m002;
shapes = (
{
attr = {
lineCapEnd = 1;
lineCapStart = 1;
strokeHeight = 100;
strokeWidth = 100;
};
closed = 0;
nodes = (
(100,850,l),
(100,150,l),
(100,95,o),
(145,50,o),
(200,50,c),
(230,50,l)
);
}
);
width = 330;
}
);
metricRight = "=50";
unicode = 108;
}
{
glyphname = m;
kernLeft = lowercaseStraight;
kernRight = lowercaseRounding;
layers = (
{
anchors = (
{
name = bottom;
pos = (500,0);
},
{
name = top;
pos = (500,630);
}
);
layerId = m002;
shapes = (
{
attr = {
lineCapEnd = 1;
lineCapStart = 1;
strokeHeight = 100;
strokeWidth = 100;
};
closed = 0;
nodes = (
(100,580,l),
(100,50,l)
);
},
{
attr = {
lineCapEnd = 1;
lineCapStart = 1;
strokeHeight = 100;
strokeWidth = 100;
};
closed = 0;
nodes = (
(100,380,l),
(100,490,o),
(189,580,o),
(300,580,cs),
(410,580,o),
(500,490,o),
(500,380,cs),
(500,50,l)
);
},
{
attr = {
lineCapEnd = 1;
lineCapStart = 1;
strokeHeight = 100;
strokeWidth = 100;
};
closed = 0;
nodes = (
(500,380,l),
(500,490,o),
(589,580,o),
(700,580,cs),
(810,580,o),
(900,490,o),
(900,380,cs),
(900,50,l)
);
}
);
width = 1000;
}
);
metricRight = "=50";
unicode = 109;
}
{
glyphname = o;
kernLeft = lowercaseRound;
kernRight = lowercaseRound;
layers = (
{
anchors = (
{
name = bottom;
pos = (300,50);
},
{
name = center;
pos = (300,340);
},
{
name = ogonek;
pos = (410,109);
},
{
name = top;
pos = (300,630);
},
{
name = topright;
pos = (580,630);
}
);
layerId = m002;
shapes = (
{
attr = {
strokeHeight = 100;
strokeWidth = 100;
};
closed = 1;
nodes = (
(410,50,o),
(500,140,o),
(500,250,c),
(500,380,l),
(500,490,o),
(410,580,o),
(300,580,c),
(190,580,o),
(100,490,o),
(100,380,c),
(100,250,l),
(100,140,o),
(190,50,o),
(300,50,c)
);
}
);
width = 600;
}
);
metricRight = "=50";
unicode = 111;
}
{
glyphname = p;
kernLeft = lowercaseStraightDecender;
kernRight = lowercaseRound;
layers = (
{
anchors = (
{
name = bottom;
pos = (290,50);
},
{
name = top;
pos = (290,630);
}
);
layerId = m002;
shapes = (
{
attr = {
lineCapEnd = "1";
lineCapStart = "1";
strokeHeight = 100;
strokeWidth = 100;
};
closed = 0;
nodes = (
(90,-220,l),
(90,580,l)
);
},
{
attr = {
lineCapEnd = "1";
lineCapStart = "1";
strokeHeight = 100;
strokeWidth = 100;
};
closed = 0;
nodes = (
(90,380,l),
(90,490,o),
(180,580,o),
(290,580,cs),
(400,580,o),
(490,490,o),
(490,380,cs),
(490,250,ls),
(490,140,o),
(400,50,o),
(290,50,cs),
(180,50,o),
(90,140,o),
(90,250,c)
);
}
);
width = 590;
}
);
metricRight = "=50";
unicode = 112;
}
{
glyphname = q;
kernLeft = lowercaseRound;
kernRight = lowercaseStraightDecender;
layers = (
{
anchors = (
{
name = bottom;
pos = (300,0);
},
{
name = top;
pos = (300,630);
}
);
layerId = m002;
shapes = (
{
attr = {
lineCapEnd = "1";
lineCapStart = "1";
strokeHeight = 100;
strokeWidth = 100;
};
closed = 0;
nodes = (
(500,-220,l),
(500,580,l)
);
},
{
attr = {
lineCapEnd = "1";
lineCapStart = "1";
strokeHeight = 100;
strokeWidth = 100;
};
closed = 0;
nodes = (
(500,250,l),
(500,140,o),
(410,50,o),
(300,50,cs),
(190,50,o),
(100,140,o),
(100,250,cs),
(100,380,ls),
(100,490,o),
(190,580,o),
(300,580,cs),
(410,580,o),
(500,490,o),
(500,380,c)
);
}
);
width = 600;
}
);
metricRight = "=50";
unicode = 113;
}
{
glyphname = r;
kernLeft = lowercaseStraight;
layers = (
{
anchors = (
{
name = bottom;
pos = (100,0);
},
{
name = top;
pos = (190,630);
}
);
layerId = m002;
shapes = (
{
attr = {
lineCapEnd = 1;
lineCapStart = 1;
strokeHeight = 100;
strokeWidth = 100;
};
closed = 0;
nodes = (
(100,380,l),
(100,490,o),
(189,580,o),
(300,580,c)
);
},
{
attr = {
lineCapEnd = 1;
lineCapStart = 1;
strokeHeight = 100;
strokeWidth = 100;
};
closed = 0;
nodes = (
(100,580,l),
(100,50,l)
);
}
);
width = 380;
}
);
unicode = 114;
}
{
glyphname = s;
layers = (
{
anchors = (
{
name = bottom;
pos = (277,0);
},
{
name = top;
pos = (277,630);
}
);
layerId = m002;
shapes = (
{
attr = {
lineCapEnd = 1;
lineCapStart = 1;
strokeHeight = 100;
strokeWidth = 100;
};
closed = 0;
nodes = (
(112,95,l),
(149,64,o),
(188,50,o),
(277,50,c),
(322,50,l),
(395,50,o),
(454,109,o),
(454,183,cs),
(454,256,o),
(395,315,o),
(322,315,c),
(232,315,l),
(159,315,o),
(100,374,o),
(100,448,cs),
(100,521,o),
(159,580,o),
(232,580,c),
(277,580,l),
(365,580,o),
(405,566,o),
(441,535,c)
);
},
{
attr = {
lineCapEnd = 1;
lineCapStart = 1;
strokeHeight = 100;
strokeWidth = 100;
};
closed = 1;
nodes = (
(454,183,l)
);
},
{
attr = {
lineCapEnd = 1;
lineCapStart = 1;
strokeHeight = 100;
strokeWidth = 100;
};
closed = 1;
nodes = (
(100,448,l)
);
}
);
width = 554;
}
);
unicode = 115;
}
{
glyphname = t;
kernLeft = lowerT;
kernRight = lowerT;
layers = (
{
anchors = (
{
name = bottom;
pos = (218,50);
},
{
name = bottom_2;
pos = (335,0);
},
{
name = center;
pos = (218,315);
},
{
name = top;
pos = (205,630);
},
{
name = top_2;
pos = (205,745);
},
{
name = topright;
pos = (353,615);
}
);
layerId = m002;
shapes = (
{
attr = {
lineCapEnd = 1;
lineCapStart = 1;
strokeHeight = 100;
strokeWidth = 100;
};
closed = 0;
nodes = (
(205,745,l),
(205,150,ls),
(205,95,o),
(250,50,o),
(305,50,cs),
(335,50,l)
);
},
{
attr = {
lineCapEnd = 1;
lineCapStart = 1;
strokeHeight = 100;
strokeWidth = 100;
};
closed = 0;
nodes = (
(100,580,l),
(310,580,l)
);
}
);
width = 435;
}
);
metricRight = "=50";
unicode = 116;
}
{
glyphname = u;
kernLeft = u;
kernRight = lowercaseStraight;
layers = (
{
anchors = (
{
name = bottom;
pos = (300,50);
},
{
name = ogonek;
pos = (549,0);
},
{
name = top;
pos = (300,630);
},
{
name = top_viet;
pos = (451,630);
}
);
layerId = m002;
shapes = (
{
attr = {
lineCapEnd = "1";
lineCapStart = "1";
strokeHeight = 100;
strokeWidth = 100;
};
closed = 0;
nodes = (
(500,580,l),
(500,50,l)
);
},
{
attr = {
lineCapEnd = "1";
lineCapStart = "1";
strokeHeight = 100;
strokeWidth = 100;
};
closed = 0;
nodes = (
(500,250,l),
(500,140,o),
(410,50,o),
(300,50,cs),
(189,50,o),
(100,140,o),
(100,250,cs),
(100,580,l)
);
}
);
width = 600;
}
);
metricLeft = "=50";
metricRight = "=50";
unicode = 117;
}
{
glyphname = v;
kernLeft = lowercaseX;
kernRight = lowercaseX;
layers = (
{
anchors = (
{
name = bottom;
pos = (300,50);
},
{
name = top;
pos = (300,630);
}
);
layerId = m002;
shapes = (
{
attr = {
lineCapEnd = 1;
lineCapStart = 1;
strokeHeight = 100;
strokeWidth = 100;
};
closed = 0;
nodes = (
(500,580,l),
(300,50,l)
);
},
{
attr = {
lineCapEnd = 1;
lineCapStart = 1;
strokeHeight = 100;
strokeWidth = 100;
};
closed = 0;
nodes = (
(300,50,l),
(100,580,l)
);
}
);
width = 600;
}
);
metricRight = "=50";
unicode = 118;
}
{
glyphname = y;
kernRight = lowercaseStraightDecender;
layers = (
{
anchors = (
{
name = bottom;
pos = (300,-220);
},
{
name = top;
pos = (300,630);
}
);
layerId = m002;
shapes = (
{
attr = {
lineCapEnd = 1;
lineCapStart = 1;
strokeHeight = 100;
strokeWidth = 100;
};
closed = 0;
nodes = (
(500,250,l),
(500,140,o),
(410,50,o),
(300,50,c),
(189,50,o),
(100,140,o),
(100,250,c),
(100,580,l)
);
},
{
attr = {
lineCapEnd = 1;
lineCapStart = 1;
strokeHeight = 100;
strokeWidth = 100;
};
closed = 0;
nodes = (
(500,580,l),
(500,-20,l),
(500,-130,o),
(410,-220,o),
(300,-220,c),
(245,-220,o),
(195,-198,o),
(158,-161,c)
);
}
);
width = 600;
}
);
unicode = 121;
}
{
glyphname = z;
layers = (
{
anchors = (
{
name = bottom;
pos = (300,50);
},
{
name = center;
pos = (300,340);
},
{
name = top;
pos = (300,630);
}
);
layerId = m002;
shapes = (
{
attr = {
lineCapEnd = 1;
lineCapStart = 1;
strokeHeight = 100;
strokeWidth = 100;
};
closed = 0;
nodes = (
(500,580,l),
(100,50,l)
);
},
{
attr = {
lineCapEnd = 1;
lineCapStart = 1;
strokeHeight = 100;
strokeWidth = 100;
};
closed = 0;
nodes = (
(100,50,l),
(500,50,l)
);
},
{
attr = {
lineCapEnd = 1;
lineCapStart = 1;
strokeHeight = 100;
strokeWidth = 100;
};
closed = 0;
nodes = (
(100,580,l),
(500,580,l)
);
}
);
width = 600;
}
);
metricRight = "=50";
unicode = 122;
}
{
glyphname = braceleft;
kernRight = parenthesis;
layers = (
{
layerId = m002;
shapes = (
{
attr = {
lineCapEnd = 1;
lineCapStart = 1;
strokeHeight = 100;
strokeWidth = 100;
};
closed = 0;
nodes = (
(421,850,l),
(332,850,o),
(261,778,o),
(261,690,cs),
(261,530,ls),
(261,442,o),
(189,370,o),
(101,370,c)
);
},
{
attr = {
lineCapEnd = 1;
lineCapStart = 1;
strokeHeight = 100;
strokeWidth = 100;
};
closed = 0;
nodes = (
(101,370,l),
(189,370,o),
(261,299,o),
(261,210,cs),
(261,50,ls),
(261,-38,o),
(332,-110,o),
(421,-110,c)
);
}
);
width = 520;
}
);
unicode = 123;
}
{
glyphname = cent;
layers = (
{
layerId = m002;
shapes = (
{
ref = c;
},
{
attr = {
lineCapEnd = 1;
lineCapStart = 1;
strokeHeight = 100;
strokeWidth = 100;
};
closed = 0;
nodes = (
(290,41,l),
(290,-50,l)
);
},
{
attr = {
lineCapEnd = "1";
lineCapStart = "1";
strokeHeight = 100;
strokeWidth = 100;
};
closed = 0;
nodes = (
(290,680,l),
(290,592,l)
);
}
);
width = 574;
}
);
unicode = 162;
}
{
glyphname = sterling;
layers = (
{
layerId = m002;
shapes = (
{
attr = {
lineCapEnd = 1;
lineCapStart = 1;
strokeHeight = 100;
strokeWidth = 100;
};
closed = 0;
nodes = (
(630,640,l),
(630,756,o),
(536,850,o),
(420,850,cs),
(304,850,o),
(210,756,o),
(210,640,cs),
(210,262,ls),
(210,219,o),
(195,176,o),
(169,141,cs),
(100,50,l)
);
},
{
attr = {
lineCapEnd = 1;
lineCapStart = 1;
strokeHeight = 100;
strokeWidth = 100;
};
closed = 0;
nodes = (
(320,422,l),
(100,422,l)
);
},
{
attr = {
lineCapEnd = 1;
lineCapStart = 1;
strokeHeight = 100;
strokeWidth = 100;
};
closed = 0;
nodes = (
(100,50,l),
(630,50,l)
);
}
);
width = 730;
}
);
unicode = 163;
}
{
glyphname = yen;
layers = (
{
layerId = m002;
shapes = (
{
attr = {
lineCapEnd = 1;
lineCapStart = 1;
strokeHeight = 100;
strokeWidth = 100;
};
closed = 0;
nodes = (
(365,450,l),
(100,850,l)
);
},
{
attr = {
lineCapEnd = 1;
lineCapStart = 1;
strokeHeight = 100;
strokeWidth = 100;
};
closed = 0;
nodes = (
(365,50,l),
(365,450,l)
);
},
{
attr = {
lineCapEnd = 1;
lineCapStart = 1;
strokeHeight = 100;
strokeWidth = 100;
};
closed = 0;
nodes = (
(115,450,l),
(615,450,l)
);
},
{
attr = {
lineCapEnd = 1;
lineCapStart = 1;
strokeHeight = 100;
strokeWidth = 100;
};
closed = 0;
nodes = (
(115,250,l),
(615,250,l)
);
},
{
attr = {
lineCapEnd = 1;
lineCapStart = 1;
strokeHeight = 100;
strokeWidth = 100;
};
closed = 0;
nodes = (
(630,850,l),
(365,450,l)
);
}
);
width = 730;
}
);
unicode = 165;
}
{
glyphname = brokenbar;
kernLeft = straightLine;
kernRight = straightLine;
layers = (
{
layerId = m002;
shapes = (
{
attr = {
lineCapEnd = "1";
lineCapStart = "1";
strokeHeight = 100;
strokeWidth = 100;
};
closed = 0;
nodes = (
(100,560,l),
(100,1015,l)
);
},
{
attr = {
lineCapEnd = "1";
lineCapStart = "1";
strokeHeight = 100;
strokeWidth = 100;
};
closed = 0;
nodes = (
(100,-270,l),
(100,185,l)
);
}
);
width = 200;
}
);
metricLeft = "=50";
metricRight = "=50";
unicode = 166;
}
{
glyphname = copyright;
layers = (
{
layerId = m002;
shapes = (
{
attr = {
lineCapEnd = 1;
lineCapStart = 1;
strokeHeight = 100;
strokeWidth = 100;
};
closed = 0;
nodes = (
(627,330,l),
(601,286,o),
(554,257,o),
(500,257,cs),
(419,257,o),
(354,322,o),
(354,403,cs),
(354,497,ls),
(354,578,o),
(419,643,o),
(500,643,cs),
(554,643,o),
(601,614,o),
(626,570,c)
);
},
{
attr = {
strokeHeight = 100;
strokeWidth = 100;
};
closed = 1;
nodes = (
(100,671,o),
(279,850,o),
(500,850,cs),
(721,850,o),
(900,671,o),
(900,450,cs),
(900,229,o),
(721,50,o),
(500,50,cs),
(279,50,o),
(100,229,o),
(100,450,cs)
);
},
{
attr = {
lineCapEnd = 1;
lineCapStart = 1;
strokeHeight = 100;
strokeWidth = 100;
};
closed = 1;
nodes = (
);
},
{
attr = {
lineCapEnd = 1;
lineCapStart = 1;
strokeHeight = 100;
strokeWidth = 100;
};
closed = 1;
nodes = (
);
}
);
width = 1000;
}
);
unicode = 169;
}
{
glyphname = ordfeminine;
layers = (
{
anchors = (
{
name = bottom;
pos = (251,272);
},
{
name = ogonek;
pos = (491,282);
},
{
name = top;
pos = (251,902);
}
);
layerId = m002;
shapes = (
{
attr = {
identifier = ID0x136f40e30;
lineCapEnd = 1;
lineCapStart = 1;
strokeHeight = 100;
strokeWidth = 100;
};
closed = 0;
nodes = (
(402,450,l),
(402,850,l)
);
},
{
attr = {
identifier = ID0x136f40e30;
lineCapEnd = 1;
lineCapStart = 1;
strokeHeight = 100;
strokeWidth = 100;
};
closed = 0;
nodes = (
(402,601,l),
(402,518,o),
(334,450,o),
(251,450,cs),
(167,450,o),
(100,518,o),
(100,601,cs),
(100,699,ls),
(100,782,o),
(167,850,o),
(251,850,cs),
(334,850,o),
(402,782,o),
(402,699,c)
);
}
);
width = 502;
}
);
unicode = 170;
}
{
glyphname = logicalnot;
layers = (
{
layerId = m002;
shapes = (
{
attr = {
lineCapEnd = 1;
lineCapStart = 1;
strokeHeight = 100;
strokeWidth = 100;
};
closed = 0;
nodes = (
(150,457,l),
(550,457,l)
);
},
{
attr = {
lineCapEnd = 1;
lineCapStart = 1;
strokeHeight = 100;
strokeWidth = 100;
};
closed = 0;
nodes = (
(550,457,l),
(550,257,l)
);
}
);
width = 700;
}
);
unicode = 172;
}
{
glyphname = registered;
layers = (
{
layerId = m002;
shapes = (
{
attr = {
lineCapEnd = 1;
lineCapStart = 1;
strokeHeight = 100;
strokeWidth = 100;
};
closed = 0;
nodes = (
(372,643,l),
(498,643,l),
(570,643,o),
(628,585,o),
(628,513,c),
(628,442,o),
(570,384,o),
(498,384,c),
(372,384,l)
);
},
{
attr = {
lineCapEnd = 1;
lineCapStart = 1;
strokeHeight = 100;
strokeWidth = 100;
};
closed = 0;
nodes = (
(498,384,l),
(625,257,l)
);
},
{
attr = {
strokeHeight = 100;
strokeWidth = 100;
};
closed = 1;
nodes = (
(100,671,o),
(279,850,o),
(500,850,c),
(721,850,o),
(900,671,o),
(900,450,c),
(900,229,o),
(721,50,o),
(500,50,c),
(279,50,o),
(100,229,o),
(100,450,c)
);
},
{
attr = {
lineCapEnd = 1;
lineCapStart = 1;
strokeHeight = 100;
strokeWidth = 100;
};
closed = 0;
nodes = (
(372,257,l),
(372,643,l)
);
}
);
width = 1000;
}
);
unicode = 174;
}
{
glyphname = degree;
layers = (
{
layerId = m002;
shapes = (
{
attr = {
strokeHeight = 100;
strokeWidth = 100;
};
closed = 1;
nodes = (
(232,680,o),
(270,718,o),
(270,765,cs),
(270,812,o),
(232,850,o),
(185,850,cs),
(138,850,o),
(100,812,o),
(100,765,cs),
(100,718,o),
(138,680,o),
(185,680,cs)
);
}
);
width = 370;
}
);
unicode = 176;
}
{
glyphname = plusminus;
layers = (
{
layerId = m002;
shapes = (
{
ref = underscore;
},
{
attr = {
identifier = ID0x120c5e5a0;
lineCapEnd = 1;
lineCapStart = 1;
strokeHeight = 100;
strokeWidth = 100;
};
closed = 0;
nodes = (
(100,400,l),
(600,400,l)
);
},
{
attr = {
identifier = ID0x120c5e5a0;
lineCapEnd = 1;
lineCapStart = 1;
strokeHeight = 100;
strokeWidth = 100;
};
closed = 0;
nodes = (
(350,580,l),
(350,220,l)
);
}
);
width = 700;
}
);
unicode = 177;
}
{
glyphname = threesuperior;
layers = (
{
layerId = m002;
shapes = (
{
attr = {
identifier = ID0x15af7d5e0;
lineCapEnd = 1;
lineCapStart = 1;
strokeHeight = 100;
strokeWidth = 100;
};
closed = 0;
nodes = (
(100,917,l),
(128,940,o),
(158,950,o),
(225,950,cs),
(240,950,ls),
(296,950,o),
(340,905,o),
(340,850,cs),
(340,795,o),
(296,750,o),
(240,750,c)
);
},
{
attr = {
identifier = ID0x15af7d5e0;
lineCapEnd = 1;
lineCapStart = 1;
strokeHeight = 100;
strokeWidth = 100;
};
closed = 0;
nodes = (
(100,584,l),
(128,561,o),
(158,550,o),
(225,550,cs),
(240,550,ls),
(296,550,o),
(340,595,o),
(340,650,cs),
(340,705,o),
(296,750,o),
(240,750,c)
);
},
{
attr = {
identifier = ID0x15af7d5e0;
lineCapEnd = 1;
lineCapStart = 1;
strokeHeight = 100;
strokeWidth = 100;
};
closed = 0;
nodes = (
(164,750,l),
(241,750,l)
);
}
);
width = 440;
}
);
metricLeft = three;
metricRight = three;
unicode = 179;
}
{
glyphname = micro;
layers = (
{
layerId = m002;
shapes = (
{
attr = {
identifier = ID0x3224ece90;
lineCapEnd = 1;
lineCapStart = 1;
strokeHeight = 100;
strokeWidth = 100;
};
closed = 0;
nodes = (
(100,580,l),
(100,250,ls),
(100,140,o),
(189,50,o),
(300,50,cs),
(410,50,o),
(500,140,o),
(500,250,cs),
(500,580,l)
);
},
{
attr = {
identifier = ID0x3224ece90;
lineCapEnd = 1;
lineCapStart = 1;
strokeHeight = 100;
strokeWidth = 100;
};
closed = 0;
nodes = (
(500,250,l),
(500,130,ls),
(500,86,o),
(535,50,o),
(580,50,c)
);
},
{
attr = {
identifier = ID0x3224ece90;
lineCapEnd = 1;
lineCapStart = 1;
strokeHeight = 100;
strokeWidth = 100;
};
closed = 0;
nodes = (
(100,250,l),
(100,-220,l)
);
}
);
width = 680;
}
);
metricLeft = "=50";
metricRight = "=50";
unicode = 181;
}
{
glyphname = paragraph;
layers = (
{
layerId = m002;
shapes = (
{
attr = {
lineCapEnd = 1;
lineCapStart = 1;
strokeHeight = 100;
strokeWidth = 100;
};
closed = 0;
nodes = (
(425,400,l),
(325,400,l),
(200,400,o),
(100,500,o),
(100,625,c),
(100,749,o),
(200,850,o),
(325,850,c),
(425,850,l)
);
},
{
attr = {
lineCapEnd = 1;
lineCapStart = 1;
strokeHeight = 100;
strokeWidth = 100;
};
closed = 0;
nodes = (
(595,850,l),
(595,-220,l)
);
},
{
attr = {
lineCapEnd = 1;
lineCapStart = 1;
strokeHeight = 100;
strokeWidth = 100;
};
closed = 0;
nodes = (
(425,850,l),
(425,-220,l)
);
}
);
width = 695;
}
);
unicode = 182;
}
{
glyphname = ordmasculine;
layers = (
{
anchors = (
{
name = bottom;
pos = (251,50);
},
{
name = center;
pos = (251,340);
},
{
name = ogonek;
pos = (361,109);
},
{
name = top;
pos = (251,630);
},
{
name = topright;
pos = (531,630);
}
);
layerId = m002;
shapes = (
{
attr = {
identifier = ID0x136eb6e60;
strokeHeight = 100;
strokeWidth = 100;
};
closed = 1;
nodes = (
(334,450,o),
(402,518,o),
(402,601,cs),
(402,699,ls),
(402,782,o),
(334,850,o),
(251,850,cs),
(168,850,o),
(100,782,o),
(100,699,cs),
(100,601,ls),
(100,518,o),
(168,450,o),
(251,450,cs)
);
}
);
width = 502;
}
);
unicode = 186;
}
{
glyphname = onequarter;
layers = (
{
layerId = m002;
shapes = (
{
attr = {
identifier = ID0x2bbdd0dd0;
lineCapEnd = "1";
lineCapStart = "1";
strokeHeight = 100;
strokeWidth = 100;
};
closed = 0;
nodes = (
(220,850,l),
(220,370,l)
);
},
{
attr = {
identifier = ID0x2bbdd0dd0;
lineCapEnd = "1";
lineCapStart = "1";
strokeHeight = 100;
strokeWidth = 100;
};
closed = 0;
nodes = (
(100,785,l),
(220,850,l)
);
},
{
pos = (120,0);
ref = fraction;
},
{
attr = {
identifier = ID0x1184a9dd0;
lineCapEnd = "1";
lineCapStart = "1";
strokeHeight = 100;
strokeWidth = 100;
};
closed = 0;
nodes = (
(844,530,l),
(587,208,l)
);
},
{
attr = {
identifier = ID0x1184a9dd0;
lineCapEnd = "1";
lineCapStart = "1";
strokeHeight = 100;
strokeWidth = 100;
};
closed = 0;
nodes = (
(587,208,l),
(905,208,l)
);
},
{
attr = {
identifier = ID0x1184a9dd0;
lineCapEnd = "1";
lineCapStart = "1";
strokeHeight = 100;
strokeWidth = 100;
};
closed = 0;
nodes = (
(844,50,l),
(844,530,l)
);
}
);
width = 1005;
}
);
unicode = 188;
}
{
glyphname = onehalf;
layers = (
{
layerId = m002;
shapes = (
{
attr = {
identifier = ID0x2bbdd0dd0;
lineCapEnd = 1;
lineCapStart = 1;
strokeHeight = 100;
strokeWidth = 100;
};
closed = 0;
nodes = (
(220,850,l),
(220,370,l)
);
},
{
attr = {
identifier = ID0x2bbdd0dd0;
lineCapEnd = 1;
lineCapStart = 1;
strokeHeight = 100;
strokeWidth = 100;
};
closed = 0;
nodes = (
(100,785,l),
(220,850,l)
);
},
{
attr = {
identifier = ID0x2bbd46850;
lineCapEnd = 1;
lineCapStart = 1;
strokeHeight = 100;
strokeWidth = 100;
};
closed = 0;
nodes = (
(728,50,l),
(728,50,o),
(935,202,o),
(999,259,cs),
(1030,285,o),
(1046,327,o),
(1046,372,cs),
(1046,459,o),
(975,530,o),
(886,530,cs),
(799,530,o),
(728,459,o),
(728,372,c)
);
},
{
attr = {
identifier = ID0x2bbd46850;
lineCapEnd = 1;
lineCapStart = 1;
strokeHeight = 100;
strokeWidth = 100;
};
closed = 0;
nodes = (
(1046,50,l),
(728,50,l)
);
},
{
pos = (120,0);
ref = fraction;
},
{
attr = {
identifier = ID0x2bbd46850;
lineCapEnd = 1;
lineCapStart = 1;
strokeHeight = 100;
strokeWidth = 100;
};
closed = 1;
nodes = (
);
}
);
width = 1146;
}
);
unicode = 189;
}
{
glyphname = AE;
layers = (
{
anchors = (
{
name = bottom;
pos = (556,0);
},
{
name = top;
pos = (556,900);
}
);
layerId = m002;
shapes = (
{
attr = {
lineCapEnd = 1;
lineCapStart = 1;
strokeHeight = 100;
strokeWidth = 100;
};
closed = 0;
nodes = (
(621,450,l),
(882,450,l)
);
},
{
attr = {
lineCapEnd = 1;
lineCapStart = 1;
strokeHeight = 100;
strokeWidth = 100;
};
closed = 0;
nodes = (
(1021,50,l),
(621,50,l)
);
},
{
attr = {
lineCapEnd = 1;
lineCapStart = 1;
strokeHeight = 100;
strokeWidth = 100;
};
closed = 0;
nodes = (
(621,50,l),
(621,850,l)
);
},
{
attr = {
lineCapEnd = 1;
lineCapStart = 1;
strokeHeight = 100;
strokeWidth = 100;
};
closed = 0;
nodes = (
(91,50,l),
(446,829,ls),
(452,843,o),
(465,850,o),
(479,850,cs),
(1021,850,l)
);
},
{
attr = {
lineCapEnd = 1;
lineCapStart = 1;
strokeHeight = 100;
strokeWidth = 100;
};
closed = 0;
nodes = (
(218,327,l),
(621,327,l)
);
}
);
width = 1112;
}
);
unicode = 198;
}
{
glyphname = Eth;
kernRight = uppercaseRound;
layers = (
{
layerId = m002;
shapes = (
{
attr = {
lineCapEnd = 1;
lineCapStart = 1;
strokeHeight = 100;
strokeWidth = 100;
};
closed = 0;
nodes = (
(100,450,l),
(400,450,l)
);
},
{
pos = (130,0);
ref = D;
}
);
width = 860;
}
);
metricRight = D;
unicode = 208;
}
{
glyphname = multiply;
layers = (
{
layerId = m002;
shapes = (
{
attr = {
lineCapEnd = 1;
lineCapStart = 1;
strokeHeight = 100;
strokeWidth = 100;
};
closed = 0;
nodes = (
(160,505,l),
(540,125,l)
);
},
{
attr = {
lineCapEnd = 1;
lineCapStart = 1;
strokeHeight = 100;
strokeWidth = 100;
};
closed = 0;
nodes = (
(540,505,l),
(160,125,l)
);
}
);
width = 700;
}
);
unicode = 215;
}
{
glyphname = Oslash;
kernLeft = uppercaseRound;
kernRight = uppercaseRound;
layers = (
{
anchors = (
{
name = bottom;
pos = (365,0);
},
{
name = top;
pos = (365,900);
}
);
layerId = m002;
shapes = (
{
ref = O;
},
{
attr = {
lineCapEnd = 1;
lineCapStart = 1;
strokeHeight = 100;
strokeWidth = 100;
};
closed = 0;
nodes = (
(100,50,l),
(630,850,l)
);
}
);
width = 730;
}
);
metricLeft = O;
metricRight = O;
unicode = 216;
}
{
glyphname = Thorn;
kernLeft = uppercaseStraight;
layers = (
{
anchors = (
{
name = bottom;
pos = (365,0);
},
{
name = top;
pos = (365,900);
}
);
layerId = m002;
shapes = (
{
ref = P;
},
{
attr = {
lineCapEnd = 1;
lineCapStart = 1;
strokeHeight = 100;
strokeWidth = 100;
};
closed = 0;
nodes = (
(100,850,l),
(100,1015,l)
);
}
);
width = 730;
}
);
unicode = 222;
}
{
glyphname = germandbls;
layers = (
{
anchors = (
{
name = bottom;
pos = (300,0);
},
{
name = top;
pos = (300,1015);
}
);
layerId = m002;
shapes = (
{
attr = {
lineCapEnd = 1;
lineCapStart = 1;
strokeHeight = 100;
strokeWidth = 100;
};
closed = 0;
nodes = (
(264,51,l),
(275,50,o),
(288,50,o),
(300,50,cs),
(410,50,o),
(500,140,o),
(500,250,cs),
(500,360,o),
(410,450,o),
(300,450,c)
);
},
{
attr = {
lineCapEnd = 1;
lineCapStart = 1;
strokeHeight = 100;
strokeWidth = 100;
};
closed = 0;
nodes = (
(100,50,l),
(100,650,ls),
(100,760,o),
(189,850,o),
(300,850,cs),
(410,850,o),
(500,760,o),
(500,650,cs),
(500,539,o),
(410,450,o),
(300,450,c)
);
}
);
width = 600;
}
);
unicode = 223;
}
{
glyphname = ae;
kernLeft = lowercaseRound;
kernRight = lowercaseRound;
layers = (
{
anchors = (
{
name = bottom;
pos = (500,0);
},
{
name = top;
pos = (500,630);
}
);
layerId = m002;
shapes = (
{
attr = {
lineCapEnd = 1;
lineCapStart = 1;
strokeHeight = 100;
strokeWidth = 100;
};
closed = 0;
nodes = (
(874,151,l),
(839,91,o),
(774,50,o),
(700,50,cs),
(590,50,o),
(500,140,o),
(500,250,c),
(500,380,l),
(500,490,o),
(590,580,o),
(700,580,cs),
(811,580,o),
(900,490,o),
(900,380,c),
(900,315,l)
);
},
{
attr = {
lineCapEnd = 1;
lineCapStart = 1;
strokeHeight = 100;
strokeWidth = 100;
};
closed = 0;
nodes = (
(500,250,l),
(500,140,o),
(411,50,o),
(301,50,c),
(231,50,l),
(159,50,o),
(100,109,o),
(100,183,c),
(100,256,o),
(159,315,o),
(231,315,c),
(500,315,l)
);
},
{
attr = {
lineCapEnd = 1;
lineCapStart = 1;
strokeHeight = 100;
strokeWidth = 100;
};
closed = 0;
nodes = (
(140,503,l),
(188,560,o),
(232,580,o),
(325,580,c),
(431,580,o),
(500,534,o),
(500,408,c),
(500,315,l)
);
},
{
attr = {
lineCapEnd = 1;
lineCapStart = 1;
strokeHeight = 100;
strokeWidth = 100;
};
closed = 0;
nodes = (
(900,315,l),
(500,315,l)
);
},
{
attr = {
lineCapEnd = 1;
lineCapStart = 1;
strokeHeight = 100;
strokeWidth = 100;
};
closed = 1;
nodes = (
(700,580,l)
);
},
{
attr = {
lineCapEnd = 1;
lineCapStart = 1;
strokeHeight = 100;
strokeWidth = 100;
};
closed = 1;
nodes = (
(700,50,l)
);
}
);
width = 1000;
}
);
unicode = 230;
}
{
glyphname = eth;
layers = (
{
anchors = (
{
name = bottom;
pos = (300,0);
},
{
name = top;
pos = (300,1015);
}
);
layerId = m002;
shapes = (
{
attr = {
strokeHeight = 100;
strokeWidth = 100;
};
closed = 1;
nodes = (
(411,50,o),
(500,139,o),
(500,250,cs),
(500,380,ls),
(500,490,o),
(411,580,o),
(300,580,cs),
(190,580,o),
(100,490,o),
(100,380,cs),
(100,250,ls),
(100,139,o),
(190,50,o),
(300,50,cs)
);
},
{
attr = {
lineCapEnd = 1;
lineCapStart = 1;
strokeHeight = 100;
strokeWidth = 100;
};
closed = 0;
nodes = (
(200,850,l),
(484,777,o),
(500,580,o),
(500,380,c)
);
},
{
attr = {
lineCapEnd = 1;
lineCapStart = 1;
strokeHeight = 100;
strokeWidth = 100;
};
closed = 0;
nodes = (
(460,850,l),
(242,705,l)
);
}
);
width = 600;
}
);
unicode = 240;
}
{
glyphname = divide;
layers = (
{
layerId = m002;
shapes = (
{
attr = {
lineCapEnd = 1;
lineCapStart = 1;
strokeHeight = 100;
strokeWidth = 100;
};
closed = 0;
nodes = (
(100,315,l),
(600,315,l)
);
},
{
pos = (214,0);
ref = period;
},
{
pos = (214,480);
ref = period;
}
);
width = 700;
}
);
unicode = 247;
}
{
glyphname = dcroat;
kernLeft = lowercaseRound;
layers = (
{
layerId = m002;
shapes = (
{
ref = d;
},
{
attr = {
lineCapEnd = "1";
lineCapStart = "1";
strokeHeight = 100;
strokeWidth = 100;
};
closed = 0;
nodes = (
(369,750,l),
(580,750,l)
);
}
);
width = 600;
}
);
unicode = 273;
}
{
glyphname = Hbar;
layers = (
{
layerId = m002;
shapes = (
{
ref = H;
},
{
attr = {
lineCapEnd = "1";
lineCapStart = "1";
strokeHeight = 100;
strokeWidth = 100;
};
closed = 0;
nodes = (
(20,680,l),
(690,680,l)
);
}
);
width = 710;
}
);
unicode = 294;
}
{
glyphname = idotless;
kernLeft = i;
kernRight = i;
layers = (
{
anchors = (
{
name = bottom;
pos = (100,50);
},
{
name = ogonek;
pos = (151,0);
},
{
name = top;
pos = (100,630);
}
);
layerId = m002;
shapes = (
{
attr = {
lineCapEnd = 1;
lineCapStart = 1;
strokeHeight = 100;
strokeWidth = 100;
};
closed = 0;
nodes = (
(100,580,l),
(100,50,l)
);
}
);
width = 200;
}
);
metricLeft = "=50";
metricRight = "=50";
unicode = 305;
}
{
glyphname = Lslash;
layers = (
{
layerId = m002;
shapes = (
{
pos = (100,0);
ref = L;
},
{
attr = {
lineCapEnd = "1";
lineCapStart = "1";
strokeHeight = 100;
strokeWidth = 100;
};
closed = 0;
nodes = (
(380,580,l),
(100,450,l)
);
}
);
width = 700;
}
);
metricLeft = "=50";
metricRight = "=50";
unicode = 321;
}
{
glyphname = eng;
layers = (
{
layerId = m002;
shapes = (
{
attr = {
identifier = ID0x10187ea80;
lineCapEnd = "1";
lineCapStart = "1";
strokeHeight = 100;
strokeWidth = 100;
};
closed = 0;
nodes = (
(500,77,ls),
(500,-95,o),
(443,-150,o),
(299,-112,c)
);
},
{
ref = n;
}
);
width = 600;
}
);
unicode = 331;
}
{
glyphname = OE;
kernLeft = uppercaseRound;
layers = (
{
anchors = (
{
name = bottom;
pos = (565,0);
},
{
name = top;
pos = (565,900);
}
);
layerId = m002;
shapes = (
{
attr = {
strokeHeight = 100;
strokeWidth = 100;
};
closed = 1;
nodes = (
(512,50,o),
(630,169,o),
(630,315,cs),
(630,585,ls),
(630,731,o),
(512,850,o),
(365,850,cs),
(219,850,o),
(100,731,o),
(100,585,cs),
(100,315,ls),
(100,169,o),
(219,50,o),
(365,50,cs)
);
},
{
attr = {
lineCapEnd = 1;
lineCapStart = 1;
strokeHeight = 100;
strokeWidth = 100;
};
closed = 0;
nodes = (
(1030,50,l),
(630,50,l)
);
},
{
attr = {
lineCapEnd = 1;
lineCapStart = 1;
strokeHeight = 100;
strokeWidth = 100;
};
closed = 0;
nodes = (
(630,50,l),
(630,850,l)
);
},
{
attr = {
lineCapEnd = 1;
lineCapStart = 1;
strokeHeight = 100;
strokeWidth = 100;
};
closed = 0;
nodes = (
(630,450,l),
(891,450,l)
);
},
{
attr = {
lineCapEnd = 1;
lineCapStart = 1;
strokeHeight = 100;
strokeWidth = 100;
};
closed = 0;
nodes = (
(630,850,l),
(1030,850,l)
);
}
);
width = 1130;
}
);
unicode = 338;
}
{
glyphname = oe;
kernLeft = lowercaseRound;
kernRight = lowercaseRound;
layers = (
{
anchors = (
{
name = bottom;
pos = (500,0);
},
{
name = top;
pos = (500,630);
}
);
layerId = m002;
shapes = (
{
attr = {
lineCapEnd = 1;
lineCapStart = 1;
strokeHeight = 100;
strokeWidth = 100;
};
closed = 0;
nodes = (
(500,250,l),
(500,140,o),
(411,50,o),
(300,50,cs),
(190,50,o),
(100,140,o),
(100,250,cs),
(100,380,ls),
(100,490,o),
(190,580,o),
(300,580,cs),
(411,580,o),
(500,490,o),
(500,380,c)
);
},
{
attr = {
lineCapEnd = 1;
lineCapStart = 1;
strokeHeight = 100;
strokeWidth = 100;
};
closed = 0;
nodes = (
(900,315,l),
(500,315,l)
);
},
{
attr = {
lineCapEnd = 1;
lineCapStart = 1;
strokeHeight = 100;
strokeWidth = 100;
};
closed = 0;
nodes = (
(874,151,l),
(840,91,o),
(775,50,o),
(700,50,cs),
(590,50,o),
(500,140,o),
(500,250,cs),
(500,380,ls),
(500,490,o),
(590,580,o),
(700,580,cs),
(811,580,o),
(900,490,o),
(900,380,cs),
(900,315,l)
);
}
);
width = 1000;
}
);
unicode = 339;
}
{
glyphname = longs;
kernLeft = h;
kernRight = f;
layers = (
{
anchors = (
{
name = bottom;
pos = (193,0);
},
{
name = top;
pos = (193,1015);
}
);
layerId = m002;
shapes = (
{
attr = {
identifier = ID0x144e7fe30;
lineCapEnd = 1;
lineCapStart = 1;
strokeHeight = 100;
strokeWidth = 100;
};
closed = 0;
nodes = (
(100,50,l),
(100,710,ls),
(100,787,o),
(163,850,o),
(240,850,cs),
(309,850,o),
(352,830,o),
(382,791,c)
);
}
);
width = 492;
}
);
unicode = 383;
}
{
glyphname = Schwa;
kernLeft = uppercaseRound;
kernRight = uppercaseRound;
layers = (
{
anchors = (
{
name = bottom;
pos = (402,0);
},
{
name = top;
pos = (402,900);
}
);
layerId = m002;
shapes = (
{
attr = {
lineCapEnd = 1;
lineCapStart = 1;
strokeHeight = 100;
strokeWidth = 100;
};
closed = 0;
nodes = (
(100,450,l),
(703,450,l)
);
},
{
attr = {
lineCapEnd = 1;
lineCapStart = 1;
strokeHeight = 100;
strokeWidth = 100;
};
closed = 0;
nodes = (
(139,698,l),
(191,788,o),
(289,850,o),
(402,850,c),
(568,850,o),
(703,714,o),
(703,548,c),
(703,351,l),
(703,185,o),
(568,50,o),
(402,50,c),
(235,50,o),
(100,185,o),
(100,351,c),
(100,450,l)
);
}
);
width = 803;
}
);
unicode = 399;
}
{
glyphname = florin;
layers = (
{
layerId = m002;
shapes = (
{
ref = integral;
},
{
attr = {
lineCapEnd = 1;
lineCapStart = 1;
strokeHeight = 100;
strokeWidth = 100;
};
closed = 0;
nodes = (
(480,530,l),
(220,530,l)
);
}
);
width = 700;
}
);
unicode = 402;
}
{
glyphname = ohorn;
kernLeft = lowercaseRound;
kernRight = lowercaseHorn;
layers = (
{
anchors = (
{
name = bottom;
pos = (300,50);
},
{
name = center;
pos = (300,340);
},
{
name = ogonek;
pos = (410,109);
},
{
name = top;
pos = (300,630);
},
{
name = topright;
pos = (580,630);
}
);
layerId = m002;
shapes = (
{
attr = {
identifier = ID0x101ae2a30;
strokeHeight = 100;
strokeWidth = 100;
};
closed = 1;
nodes = (
(410,50,o),
(500,140,o),
(500,250,cs),
(500,380,ls),
(500,490,o),
(410,580,o),
(300,580,cs),
(190,580,o),
(100,490,o),
(100,380,cs),
(100,250,ls),
(100,140,o),
(190,50,o),
(300,50,cs)
);
},
{
attr = {
lineCapEnd = 1;
strokeHeight = 100;
strokeWidth = 100;
};
closed = 0;
nodes = (
(300,580,l),
(448,580,ls),
(522,580,o),
(579,599,o),
(569,694,cs)
);
}
);
width = 670;
}
);
metricLeft = "=50";
metricRight = "=50";
unicode = 417;
}
{
export = 0;
glyphname = gstroke;
layers = (
{
layerId = m002;
shapes = (
{
ref = g;
},
{
attr = {
identifier = ID0x1243ab640;
lineCapEnd = "1";
lineCapStart = "1";
strokeHeight = 100;
strokeWidth = 100;
};
closed = 0;
nodes = (
(305,313,l),
(600,313,l)
);
}
);
width = 700;
}
);
metricLeft = "=50";
metricRight = "=50";
unicode = 485;
}
{
glyphname = jdotless;
kernRight = lowercaseStraight;
layers = (
{
anchors = (
{
name = bottom;
pos = (118,-254);
},
{
name = top;
pos = (316,630);
}
);
layerId = m002;
shapes = (
{
attr = {
lineCapEnd = 1;
lineCapStart = 1;
strokeHeight = 100;
strokeWidth = 100;
};
closed = 0;
nodes = (
(316,580,l),
(316,-92,ls),
(316,-163,o),
(260,-220,o),
(190,-220,cs),
(155,-220,o),
(123,-206,o),
(100,-182,c)
);
}
);
width = 416;
}
);
metricLeft = "=50";
metricRight = "=50";
unicode = 567;
}
{
glyphname = schwa;
kernLeft = lowercaseRound;
kernRight = lowercaseRound;
layers = (
{
layerId = m002;
shapes = (
{
attr = {
lineCapEnd = "1";
lineCapStart = "1";
strokeHeight = 100;
strokeWidth = 100;
};
closed = 0;
nodes = (
(100,315,l),
(500,315,l)
);
},
{
attr = {
lineCapEnd = "1";
lineCapStart = "1";
strokeHeight = 100;
strokeWidth = 100;
};
closed = 0;
nodes = (
(126,479,l),
(161,539,o),
(226,580,o),
(300,580,c),
(410,580,o),
(500,490,o),
(500,380,c),
(500,250,l),
(500,140,o),
(410,50,o),
(300,50,c),
(189,50,o),
(100,140,o),
(100,250,c),
(100,315,l)
);
}
);
width = 600;
}
);
unicode = 601;
}
{
glyphname = circumflexcomb;
layers = (
{
anchors = (
{
name = _top;
pos = (220,630);
},
{
name = top;
pos = (220,860);
},
{
name = top_viet;
pos = (361,804);
}
);
layerId = m002;
shapes = (
{
attr = {
lineCapEnd = 1;
lineCapStart = 1;
strokeHeight = 100;
strokeWidth = 100;
};
closed = 0;
nodes = (
(130,741,l),
(220,811,l)
);
},
{
attr = {
lineCapEnd = 1;
lineCapStart = 1;
strokeHeight = 100;
strokeWidth = 100;
};
closed = 0;
nodes = (
(220,811,l),
(311,741,l)
);
}
);
width = 441;
}
);
unicode = 770;
}
{
glyphname = macroncomb;
layers = (
{
anchors = (
{
name = _top;
pos = (330,630);
},
{
name = top;
pos = (330,844);
}
);
layerId = m002;
shapes = (
{
attr = {
lineCapEnd = 1;
lineCapStart = 1;
strokeHeight = 100;
strokeWidth = 100;
};
closed = 0;
nodes = (
(180,794,l),
(480,794,l)
);
}
);
width = 660;
}
);
unicode = 772;
}
{
glyphname = brevecomb;
layers = (
{
anchors = (
{
name = _top;
pos = (280,630);
},
{
name = top;
pos = (280,860);
}
);
layerId = m002;
shapes = (
{
attr = {
lineCapEnd = "1";
lineCapStart = "1";
strokeHeight = 100;
strokeWidth = 100;
};
closed = 0;
nodes = (
(160,811,l),
(174,759,o),
(223,719,o),
(280,719,cs),
(338,719,o),
(386,759,o),
(401,812,c)
);
}
);
width = 561;
}
);
unicode = 774;
}
{
glyphname = dotaccentcomb;
layers = (
{
anchors = (
{
name = _top;
pos = (105,630);
},
{
name = top;
pos = (105,850);
}
);
layerId = m002;
shapes = (
{
attr = {
fill = 1;
strokeHeight = 100;
strokeWidth = 100;
};
closed = 1;
nodes = (
(130,789,o),
(119,800,o),
(105,800,cs),
(91,800,o),
(80,789,o),
(80,775,cs),
(80,761,o),
(91,750,o),
(105,750,cs),
(119,750,o),
(130,761,o),
(130,775,cs)
);
}
);
width = 210;
}
);
unicode = 775;
}
{
glyphname = dieresiscomb;
layers = (
{
anchors = (
{
name = _top;
pos = (280,630);
},
{
name = top;
pos = (280,850);
}
);
layerId = m002;
shapes = (
{
attr = {
fill = 1;
};
closed = 1;
nodes = (
(492,817,o),
(459,850,o),
(417,850,cs),
(376,850,o),
(342,817,o),
(342,775,cs),
(342,734,o),
(376,700,o),
(417,700,cs),
(459,700,o),
(492,734,o),
(492,775,cs)
);
},
{
attr = {
fill = 1;
};
closed = 1;
nodes = (
(217,817,o),
(184,850,o),
(142,850,cs),
(101,850,o),
(67,817,o),
(67,775,cs),
(67,734,o),
(101,700,o),
(142,700,cs),
(184,700,o),
(217,734,o),
(217,775,cs)
);
}
);
width = 560;
}
);
unicode = 776;
}
{
glyphname = hookabovecomb;
layers = (
{
anchors = (
{
name = _top;
pos = (169,630);
},
{
name = top;
pos = (164,900);
}
);
layerId = m002;
shapes = (
{
attr = {
lineCapEnd = 1;
lineCapStart = 1;
strokeWidth = 100;
};
closed = 0;
nodes = (
(100,839,l),
(133,856,o),
(185,860,o),
(209,814,cs),
(235,765,o),
(194,722,o),
(169,710,cs)
);
}
);
width = 318;
}
);
unicode = 777;
}
{
glyphname = ringcomb;
layers = (
{
anchors = (
{
name = _top;
pos = (280,630);
},
{
name = top;
pos = (280,935);
}
);
layerId = m002;
shapes = (
{
attr = {
strokeHeight = 100;
strokeWidth = 100;
};
closed = 1;
nodes = (
(370,845,o),
(330,885,o),
(280,885,cs),
(231,885,o),
(190,845,o),
(190,795,cs),
(190,745,o),
(231,705,o),
(280,705,cs),
(330,705,o),
(370,745,o),
(370,795,cs)
);
}
);
width = 560;
}
);
unicode = 778;
}
{
glyphname = hungarumlautcomb;
layers = (
{
anchors = (
{
name = _top;
pos = (426,630);
},
{
name = top;
pos = (426,900);
}
);
layerId = m002;
shapes = (
{
attr = {
lineCapEnd = "1";
lineCapStart = "1";
strokeHeight = 100;
strokeWidth = 100;
};
closed = 0;
nodes = (
(296,745,l),
(366,850,l)
);
},
{
attr = {
lineCapEnd = "1";
lineCapStart = "1";
strokeHeight = 100;
strokeWidth = 100;
};
closed = 0;
nodes = (
(486,745,l),
(556,850,l)
);
}
);
width = 852;
}
);
unicode = 779;
}
{
glyphname = ogonekcomb;
layers = (
{
anchors = (
{
name = _ogonek;
pos = (350,0);
}
);
layerId = m002;
shapes = (
{
attr = {
lineCapEnd = 1;
lineCapStart = 1;
strokeHeight = 100;
strokeWidth = 100;
};
closed = 0;
nodes = (
(300,50,l),
(218,6,o),
(180,-58,o),
(180,-115,cs),
(180,-165,o),
(215,-210,o),
(300,-210,c)
);
}
);
width = 480;
}
);
unicode = 808;
}
{
glyphname = dieresistonos;
layers = (
{
anchors = (
{
name = _top;
pos = (278,630);
}
);
layerId = m002;
shapes = (
{
attr = {
lineCapEnd = "1";
lineCapStart = "1";
strokeHeight = 100;
strokeWidth = 100;
};
closed = 0;
nodes = (
(265,745,l),
(313,867,l)
);
},
{
attr = {
fill = 1;
strokeHeight = 0;
strokeWidth = 0;
};
closed = 1;
nodes = (
(506,817,o),
(473,850,o),
(431,850,cs),
(390,850,o),
(356,817,o),
(356,775,cs),
(356,734,o),
(390,700,o),
(431,700,cs),
(473,700,o),
(506,734,o),
(506,775,cs)
);
},
{
attr = {
fill = 1;
strokeHeight = 0;
strokeWidth = 0;
};
closed = 1;
nodes = (
(200,817,o),
(167,850,o),
(125,850,cs),
(84,850,o),
(50,817,o),
(50,775,cs),
(50,734,o),
(84,700,o),
(125,700,cs),
(167,700,o),
(200,734,o),
(200,775,cs)
);
}
);
width = 556;
}
);
unicode = 901;
}
{
glyphname = Delta;
kernLeft = A;
kernRight = A;
layers = (
{
layerId = m002;
shapes = (
{
attr = {
lineCapEnd = 1;
lineCapStart = 1;
strokeHeight = 100;
strokeWidth = 100;
};
closed = 0;
nodes = (
(365,850,l),
(630,50,l)
);
},
{
attr = {
lineCapEnd = 1;
lineCapStart = 1;
strokeHeight = 100;
strokeWidth = 100;
};
closed = 0;
nodes = (
(630,50,l),
(100,50,l)
);
},
{
attr = {
lineCapEnd = 1;
lineCapStart = 1;
strokeHeight = 100;
strokeWidth = 100;
};
closed = 0;
nodes = (
(100,50,l),
(365,850,l)
);
}
);
width = 730;
}
);
unicode = 916;
}
{
glyphname = Theta;
layers = (
{
layerId = m002;
shapes = (
{
ref = O;
},
{
attr = {
lineCapEnd = 1;
lineCapStart = 1;
strokeHeight = 100;
strokeWidth = 100;
};
closed = 0;
nodes = (
(255,450,l),
(475,450,l)
);
}
);
width = 730;
}
);
metricLeft = O;
metricRight = O;
unicode = 920;
}
{
glyphname = Xi;
layers = (
{
layerId = m002;
shapes = (
{
attr = {
lineCapEnd = 1;
lineCapStart = 1;
strokeHeight = 100;
strokeWidth = 100;
};
closed = 0;
nodes = (
(150,450,l),
(450,450,l)
);
},
{
attr = {
lineCapEnd = 1;
lineCapStart = 1;
strokeHeight = 100;
strokeWidth = 100;
};
closed = 0;
nodes = (
(100,850,l),
(500,850,l)
);
},
{
attr = {
lineCapEnd = 1;
lineCapStart = 1;
strokeHeight = 100;
strokeWidth = 100;
};
closed = 0;
nodes = (
(500,50,l),
(100,50,l)
);
}
);
width = 600;
}
);
unicode = 926;
}
{
glyphname = Sigma;
layers = (
{
layerId = m002;
shapes = (
{
attr = {
lineCapEnd = 1;
lineCapStart = 1;
strokeHeight = 100;
strokeWidth = 100;
};
closed = 0;
nodes = (
(498,450,l),
(100,50,l)
);
},
{
attr = {
lineCapEnd = 1;
lineCapStart = 1;
strokeHeight = 100;
strokeWidth = 100;
};
closed = 0;
nodes = (
(100,50,l),
(630,50,l)
);
},
{
attr = {
lineCapEnd = 1;
lineCapStart = 1;
strokeHeight = 100;
strokeWidth = 100;
};
closed = 0;
nodes = (
(630,850,l),
(100,850,l)
);
},
{
attr = {
lineCapEnd = 1;
lineCapStart = 1;
strokeHeight = 100;
strokeWidth = 100;
};
closed = 0;
nodes = (
(100,850,l),
(498,450,l)
);
}
);
width = 730;
}
);
unicode = 931;
}
{
glyphname = alpha;
kernLeft = lowercaseRound;
layers = (
{
anchors = (
{
name = top;
pos = (340,630);
}
);
layerId = m002;
shapes = (
{
attr = {
lineCapEnd = 1;
lineCapStart = 1;
strokeHeight = 100;
strokeWidth = 100;
};
closed = 0;
nodes = (
(580,50,l),
(535,50,o),
(500,86,o),
(500,130,cs),
(500,580,l)
);
},
{
attr = {
lineCapEnd = 1;
lineCapStart = 1;
strokeHeight = 100;
strokeWidth = 100;
};
closed = 0;
nodes = (
(500,250,l),
(500,140,o),
(410,50,o),
(300,50,cs),
(189,50,o),
(100,140,o),
(100,250,cs),
(100,380,ls),
(100,490,o),
(189,580,o),
(300,580,cs),
(410,580,o),
(500,490,o),
(500,380,c)
);
}
);
width = 680;
}
);
metricLeft = y;
metricRight = y;
unicode = 945;
}
{
glyphname = gamma;
layers = (
{
layerId = m002;
shapes = (
{
attr = {
lineCapEnd = 1;
lineCapStart = 1;
strokeHeight = 100;
strokeWidth = 100;
};
closed = 0;
nodes = (
(280,80,l),
(80,580,l)
);
},
{
attr = {
lineCapEnd = 1;
lineCapStart = 1;
strokeHeight = 100;
strokeWidth = 100;
};
closed = 0;
nodes = (
(280,-220,l),
(280,80,l)
);
},
{
attr = {
lineCapEnd = 1;
lineCapStart = 1;
strokeHeight = 100;
strokeWidth = 100;
};
closed = 0;
nodes = (
(480,580,l),
(280,80,l)
);
}
);
width = 560;
}
);
unicode = 947;
}
{
glyphname = delta;
layers = (
{
layerId = m002;
shapes = (
{
attr = {
lineCapEnd = 1;
lineCapStart = 1;
strokeHeight = 100;
strokeWidth = 100;
};
closed = 0;
nodes = (
(333,531,l),
(137,432,o),
(100,377,o),
(100,249,cs),
(100,121,o),
(204,50,o),
(333,50,cs),
(461,50,o),
(565,121,o),
(565,249,cs),
(565,406,o),
(443,464,o),
(333,531,cs),
(268,569,o),
(183,591,o),
(189,678,cs),
(194,742,o),
(246,795,o),
(345,795,cs),
(405,795,o),
(447,773,o),
(503,725,c)
);
}
);
width = 665;
}
);
unicode = 948;
}
{
glyphname = epsilon;
layers = (
{
anchors = (
{
name = top;
pos = (275,630);
}
);
layerId = m002;
shapes = (
{
attr = {
lineCapEnd = 1;
lineCapStart = 1;
strokeHeight = 100;
strokeWidth = 100;
};
closed = 0;
nodes = (
(449,95,l),
(413,64,o),
(373,50,o),
(285,50,cs),
(232,50,ls),
(159,50,o),
(100,109,o),
(100,182,cs),
(100,256,o),
(159,315,o),
(232,315,c)
);
},
{
attr = {
lineCapEnd = 1;
lineCapStart = 1;
strokeHeight = 100;
strokeWidth = 100;
};
closed = 0;
nodes = (
(450,536,l),
(413,566,o),
(373,580,o),
(285,580,cs),
(232,580,ls),
(159,580,o),
(100,521,o),
(100,447,cs),
(100,374,o),
(159,315,o),
(232,315,c)
);
},
{
attr = {
lineCapEnd = 1;
lineCapStart = 1;
strokeHeight = 100;
strokeWidth = 100;
};
closed = 0;
nodes = (
(366,315,l),
(232,315,l)
);
},
{
attr = {
lineCapEnd = 1;
lineCapStart = 1;
strokeHeight = 100;
strokeWidth = 100;
};
closed = 1;
nodes = (
);
},
{
attr = {
lineCapEnd = 1;
lineCapStart = 1;
strokeHeight = 100;
strokeWidth = 100;
};
closed = 1;
nodes = (
);
}
);
width = 550;
}
);
unicode = 949;
}
{
glyphname = theta;
kernLeft = lowercaseRound;
kernRight = lowercaseRound;
layers = (
{
layerId = m002;
shapes = (
{
ref = o;
},
{
attr = {
strokeHeight = 100;
strokeWidth = 100;
};
closed = 0;
nodes = (
(80,315,l),
(480,315,l)
);
}
);
width = 600;
}
);
unicode = 952;
}
{
glyphname = iota;
kernLeft = lowercaseStraight;
layers = (
{
anchors = (
{
name = top;
pos = (100,630);
}
);
layerId = m002;
shapes = (
{
attr = {
lineCapEnd = "1";
lineCapStart = "1";
strokeHeight = 100;
strokeWidth = 100;
};
closed = 0;
nodes = (
(300,85,l),
(278,63,o),
(249,50,o),
(217,50,cs),
(152,50,o),
(100,103,o),
(100,168,c),
(100,580,l)
);
},
{
attr = {
lineCapEnd = "1";
lineCapStart = "1";
strokeHeight = 100;
strokeWidth = 100;
};
closed = 1;
nodes = (
(217,50,l)
);
}
);
width = 400;
}
);
unicode = 953;
}
{
glyphname = kappa;
layers = (
{
layerId = m002;
shapes = (
{
attr = {
lineCapEnd = 1;
lineCapStart = 1;
strokeHeight = 100;
strokeWidth = 100;
};
closed = 0;
nodes = (
(100,580,l),
(100,50,l)
);
},
{
attr = {
lineCapEnd = 1;
lineCapStart = 1;
strokeHeight = 100;
strokeWidth = 100;
};
closed = 0;
nodes = (
(100,234,l),
(500,578,l)
);
},
{
attr = {
lineCapEnd = 1;
lineCapStart = 1;
strokeHeight = 100;
strokeWidth = 100;
};
closed = 0;
nodes = (
(500,50,l),
(193,315,l)
);
}
);
width = 600;
}
);
unicode = 954;
}
{
glyphname = lambda;
layers = (
{
layerId = m002;
shapes = (
{
attr = {
lineCapEnd = 1;
lineCapStart = 1;
strokeHeight = 100;
strokeWidth = 100;
};
closed = 0;
nodes = (
(384,580,l),
(171,50,l)
);
},
{
attr = {
lineCapEnd = 1;
lineCapStart = 1;
strokeHeight = 100;
strokeWidth = 100;
};
closed = 0;
nodes = (
(100,782,l),
(113,809,o),
(136,831,o),
(167,842,cs),
(228,864,o),
(295,831,o),
(317,770,cs),
(571,50,l)
);
},
{
attr = {
lineCapEnd = 1;
lineCapStart = 1;
strokeHeight = 100;
strokeWidth = 100;
};
closed = 1;
nodes = (
);
}
);
width = 671;
}
);
unicode = 955;
}
{
glyphname = mu;
kernLeft = lowercaseStraight;
kernRight = lowercaseStraight;
layers = (
{
layerId = m002;
shapes = (
{
attr = {
lineCapEnd = 1;
lineCapStart = 1;
strokeHeight = 100;
strokeWidth = 100;
};
closed = 0;
nodes = (
(100,580,l),
(100,250,ls),
(100,140,o),
(189,50,o),
(300,50,cs),
(410,50,o),
(500,140,o),
(500,250,cs),
(500,580,l)
);
},
{
attr = {
lineCapEnd = 1;
lineCapStart = 1;
strokeHeight = 100;
strokeWidth = 100;
};
closed = 0;
nodes = (
(500,250,l),
(500,50,l)
);
},
{
attr = {
lineCapEnd = 1;
lineCapStart = 1;
strokeHeight = 100;
strokeWidth = 100;
};
closed = 0;
nodes = (
(100,250,l),
(100,-220,l)
);
}
);
width = 600;
}
);
unicode = 956;
}
{
glyphname = xi;
layers = (
{
layerId = m002;
shapes = (
{
attr = {
lineCapEnd = 1;
lineCapStart = 1;
strokeHeight = 100;
strokeWidth = 100;
};
closed = 0;
nodes = (
(400,450,l),
(300,450,l)
);
},
{
attr = {
lineCapEnd = 1;
lineCapStart = 1;
strokeHeight = 100;
strokeWidth = 100;
};
closed = 0;
nodes = (
(500,783,l),
(451,836,o),
(404,850,o),
(300,850,cs),
(190,850,o),
(100,760,o),
(100,650,cs),
(100,539,o),
(190,450,o),
(300,450,c)
);
},
{
attr = {
lineCapEnd = 1;
lineCapStart = 1;
strokeHeight = 100;
strokeWidth = 100;
};
closed = 0;
nodes = (
(450,-182,l),
(475,-165,o),
(493,-139,o),
(498,-107,cs),
(510,-43,o),
(467,18,o),
(402,29,cs),
(253,56,ls),
(164,71,o),
(100,156,o),
(100,250,cs),
(100,360,o),
(190,450,o),
(300,450,c)
);
},
{
attr = {
lineCapEnd = 1;
lineCapStart = 1;
strokeHeight = 100;
strokeWidth = 100;
};
closed = 1;
nodes = (
);
},
{
attr = {
lineCapEnd = 1;
lineCapStart = 1;
strokeHeight = 100;
strokeWidth = 100;
};
closed = 1;
nodes = (
);
},
{
attr = {
lineCapEnd = 1;
lineCapStart = 1;
strokeHeight = 100;
strokeWidth = 100;
};
closed = 1;
nodes = (
);
}
);
width = 600;
}
);
unicode = 958;
}
{
glyphname = pi;
layers = (
{
layerId = m002;
shapes = (
{
attr = {
lineCapEnd = 1;
lineCapStart = 1;
strokeHeight = 100;
strokeWidth = 100;
};
closed = 0;
nodes = (
(100,580,l),
(700,580,l)
);
},
{
attr = {
lineCapEnd = 1;
lineCapStart = 1;
strokeHeight = 100;
strokeWidth = 100;
};
closed = 0;
nodes = (
(250,580,l),
(250,50,l)
);
},
{
attr = {
lineCapEnd = 1;
lineCapStart = 1;
strokeHeight = 100;
strokeWidth = 100;
};
closed = 0;
nodes = (
(700,85,l),
(679,63,o),
(650,50,o),
(617,50,cs),
(553,50,o),
(500,103,o),
(500,168,cs),
(500,580,l)
);
}
);
width = 800;
}
);
unicode = 960;
}
{
glyphname = rho;
kernRight = lowercaseRound;
layers = (
{
layerId = m002;
shapes = (
{
attr = {
lineCapEnd = 1;
lineCapStart = 1;
strokeHeight = 100;
strokeWidth = 100;
};
closed = 0;
nodes = (
(100,250,l),
(100,140,o),
(190,50,o),
(300,50,cs),
(411,50,o),
(500,140,o),
(500,250,cs),
(500,380,ls),
(500,490,o),
(411,580,o),
(300,580,cs),
(190,580,o),
(110,490,o),
(100,380,cs)
);
},
{
attr = {
lineCapEnd = 1;
lineCapStart = 1;
strokeHeight = 100;
strokeWidth = 100;
};
closed = 0;
nodes = (
(100,380,l),
(100,-220,l)
);
}
);
width = 600;
}
);
unicode = 961;
}
{
glyphname = sigmafinal;
layers = (
{
layerId = m002;
shapes = (
{
attr = {
lineCapEnd = 1;
lineCapStart = 1;
strokeHeight = 100;
strokeWidth = 100;
};
closed = 0;
nodes = (
(450,-184,l),
(474,-166,o),
(493,-140,o),
(498,-108,cs),
(509,-44,o),
(466,17,o),
(402,28,cs),
(252,55,ls),
(164,70,o),
(100,155,o),
(100,249,cs),
(100,380,ls),
(100,490,o),
(189,580,o),
(300,580,cs),
(374,580,o),
(407,571,o),
(464,513,c)
);
}
);
width = 600;
}
);
unicode = 962;
}
{
glyphname = tau;
layers = (
{
layerId = m002;
shapes = (
{
attr = {
lineCapEnd = 1;
lineCapStart = 1;
strokeHeight = 100;
strokeWidth = 100;
};
closed = 0;
nodes = (
(100,580,l),
(500,580,l)
);
},
{
attr = {
lineCapEnd = 1;
lineCapStart = 1;
strokeHeight = 100;
strokeWidth = 100;
};
closed = 0;
nodes = (
(500,85,l),
(479,63,o),
(450,50,o),
(417,50,cs),
(353,50,o),
(300,103,o),
(300,168,cs),
(300,580,l)
);
},
{
attr = {
lineCapEnd = 1;
lineCapStart = 1;
strokeHeight = 100;
strokeWidth = 100;
};
closed = 1;
nodes = (
);
}
);
width = 600;
}
);
unicode = 964;
}
{
glyphname = upsilon;
layers = (
{
anchors = (
{
name = top;
pos = (300,630);
}
);
layerId = m002;
shapes = (
{
attr = {
lineCapEnd = 1;
lineCapStart = 1;
strokeHeight = 100;
strokeWidth = 100;
};
closed = 0;
nodes = (
(300,50,l),
(411,50,o),
(500,140,o),
(500,250,cs),
(500,448,o),
(460,580,o),
(460,580,c)
);
},
{
attr = {
lineCapEnd = 1;
lineCapStart = 1;
strokeHeight = 100;
strokeWidth = 100;
};
closed = 0;
nodes = (
(100,580,l),
(100,250,ls),
(100,140,o),
(190,50,o),
(300,50,c)
);
}
);
width = 600;
}
);
unicode = 965;
}
{
glyphname = chi;
layers = (
{
layerId = m002;
shapes = (
{
attr = {
lineCapEnd = 1;
lineCapStart = 1;
strokeHeight = 100;
strokeWidth = 100;
};
closed = 0;
nodes = (
(426,180,l),
(658,-169,ls),
(679,-201,o),
(714,-220,o),
(753,-220,c)
);
},
{
attr = {
lineCapEnd = 1;
lineCapStart = 1;
strokeHeight = 100;
strokeWidth = 100;
};
closed = 0;
nodes = (
(426,180,l),
(195,529,ls),
(174,561,o),
(138,580,o),
(100,580,c)
);
},
{
attr = {
lineCapEnd = 1;
lineCapStart = 1;
strokeHeight = 100;
strokeWidth = 100;
};
closed = 0;
nodes = (
(691,580,l),
(161,-220,l)
);
}
);
width = 853;
}
);
unicode = 967;
}
{
glyphname = omega;
layers = (
{
anchors = (
{
name = bottom;
pos = (480,0);
},
{
name = top;
pos = (480,630);
}
);
layerId = m002;
shapes = (
{
attr = {
lineCapEnd = 1;
lineCapStart = 1;
strokeHeight = 100;
strokeWidth = 100;
};
closed = 0;
nodes = (
(164,580,l),
(120,528,o),
(100,471,o),
(100,344,cs),
(100,240,ls),
(100,135,o),
(185,50,o),
(290,50,cs),
(395,50,o),
(480,135,o),
(480,240,c)
);
},
{
attr = {
lineCapEnd = 1;
lineCapStart = 1;
strokeHeight = 100;
strokeWidth = 100;
};
closed = 0;
nodes = (
(797,580,l),
(841,528,o),
(860,471,o),
(860,344,cs),
(860,240,ls),
(860,135,o),
(775,50,o),
(670,50,cs),
(565,50,o),
(480,135,o),
(480,240,c)
);
},
{
attr = {
lineCapEnd = 1;
lineCapStart = 1;
strokeHeight = 100;
strokeWidth = 100;
};
closed = 0;
nodes = (
(480,460,l),
(480,240,l)
);
}
);
width = 960;
}
);
unicode = 969;
}
{
glyphname = kaiSymbol;
layers = (
{
layerId = m002;
shapes = (
{
attr = {
lineCapEnd = 1;
lineCapStart = 1;
strokeHeight = 100;
strokeWidth = 100;
};
closed = 0;
nodes = (
(228,156,l),
(228,508,l)
);
},
{
attr = {
lineCapEnd = 1;
lineCapStart = 1;
strokeHeight = 100;
strokeWidth = 100;
};
closed = 0;
nodes = (
(228,508,l),
(228,545,o),
(201,589,o),
(146,589,cs),
(128,589,o),
(113,586,o),
(100,579,c)
);
},
{
attr = {
lineCapEnd = 1;
lineCapStart = 1;
strokeHeight = 100;
strokeWidth = 100;
};
closed = 0;
nodes = (
(511,-165,l),
(575,-165,o),
(628,-112,o),
(628,-47,cs),
(628,87,o),
(518,183,o),
(508,484,c)
);
},
{
attr = {
lineCapEnd = 1;
lineCapStart = 1;
strokeHeight = 100;
strokeWidth = 100;
};
closed = 0;
nodes = (
(148,50,l),
(588,580,l)
);
}
);
width = 728;
}
);
unicode = 983;
}
{
glyphname = "Dje-cy";
layers = (
{
layerId = m002;
shapes = (
{
attr = {
identifier = ID0x109cffc60;
lineCapEnd = "1";
lineCapStart = "1";
strokeHeight = 100;
strokeWidth = 100;
};
closed = 0;
nodes = (
(100,850,l),
(630,850,l)
);
},
{
attr = {
identifier = ID0x109cffc60;
lineCapEnd = "1";
lineCapStart = "1";
strokeHeight = 100;
strokeWidth = 100;
};
closed = 0;
nodes = (
(365,50,l),
(365,850,l)
);
},
{
attr = {
identifier = ID0x109c38d80;
lineCapEnd = "1";
lineCapStart = "1";
strokeHeight = 100;
strokeWidth = 100;
};
closed = 0;
nodes = (
(365,380,l),
(365,490,o),
(454,580,o),
(565,580,cs),
(675,580,o),
(765,490,o),
(765,380,cs),
(765,178,l)
);
},
{
attr = {
lineCapEnd = "1";
lineCapStart = "1";
strokeHeight = 100;
strokeWidth = 100;
};
closed = 0;
nodes = (
(639,50,l),
(709,50,o),
(765,107,o),
(765,178,cs),
(765,185,l)
);
}
);
width = 865;
}
);
metricLeft = T;
metricRight = h;
unicode = 1026;
}
{
glyphname = "Nje-cy";
layers = (
{
layerId = m002;
shapes = (
{
attr = {
identifier = ID0x109ce0fa0;
lineCapEnd = "1";
lineCapStart = "1";
strokeHeight = 100;
strokeWidth = 100;
};
closed = 0;
nodes = (
(550,50,l),
(820,50,l),
(931,50,o),
(1020,140,o),
(1020,250,c),
(1020,360,o),
(931,450,o),
(820,450,c),
(550,450,l)
);
},
{
attr = {
identifier = ID0x109ce0fa0;
lineCapEnd = "1";
lineCapStart = "1";
strokeHeight = 100;
strokeWidth = 100;
};
closed = 0;
nodes = (
(550,850,l),
(550,50,l)
);
},
{
attr = {
identifier = ID0x109ce39a0;
lineCapEnd = 1;
lineCapStart = 1;
strokeHeight = 100;
strokeWidth = 100;
};
closed = 0;
nodes = (
(100,850,l),
(100,50,l)
);
},
{
attr = {
identifier = ID0x109ce39a0;
lineCapEnd = 1;
lineCapStart = 1;
strokeHeight = 100;
strokeWidth = 100;
};
closed = 0;
nodes = (
(100,452,l),
(550,452,l)
);
}
);
width = 1120;
}
);
metricLeft = H;
metricRight = "Softsign-cy";
unicode = 1034;
}
{
glyphname = "Tshe-cy";
layers = (
{
anchors = (
{
name = bottom;
pos = (365,50);
},
{
name = center;
pos = (365,475);
},
{
name = top;
pos = (365,900);
}
);
layerId = m002;
shapes = (
{
attr = {
identifier = ID0x109cffc60;
lineCapEnd = 1;
lineCapStart = 1;
strokeHeight = 100;
strokeWidth = 100;
};
closed = 0;
nodes = (
(100,850,l),
(630,850,l)
);
},
{
attr = {
identifier = ID0x109cffc60;
lineCapEnd = 1;
lineCapStart = 1;
strokeHeight = 100;
strokeWidth = 100;
};
closed = 0;
nodes = (
(365,50,l),
(365,850,l)
);
},
{
attr = {
identifier = ID0x109c38d80;
lineCapEnd = 1;
lineCapStart = 1;
strokeHeight = 100;
strokeWidth = 100;
};
closed = 0;
nodes = (
(365,380,l),
(365,490,o),
(454,580,o),
(565,580,c),
(675,580,o),
(765,490,o),
(765,380,c),
(765,50,l)
);
}
);
width = 865;
}
);
metricLeft = T;
metricRight = h;
unicode = 1035;
}
{
glyphname = "Dzhe-cy";
layers = (
{
layerId = m002;
shapes = (
{
attr = {
lineCapEnd = "1";
lineCapStart = "1";
strokeHeight = 100;
strokeWidth = 100;
};
closed = 0;
nodes = (
(100,50,l),
(100,850,l)
);
},
{
attr = {
lineCapEnd = "1";
lineCapStart = "1";
strokeHeight = 100;
strokeWidth = 100;
};
closed = 0;
nodes = (
(630,850,l),
(630,50,l)
);
},
{
attr = {
lineCapEnd = "1";
lineCapStart = "1";
strokeHeight = 100;
strokeWidth = 100;
};
closed = 0;
nodes = (
(370,50,l),
(370,-85,l)
);
},
{
attr = {
lineCapEnd = "1";
lineCapStart = "1";
strokeHeight = 100;
strokeWidth = 100;
};
closed = 0;
nodes = (
(630,50,l),
(100,50,l)
);
}
);
width = 730;
}
);
unicode = 1039;
}
{
glyphname = "Ge-cy";
layers = (
{
anchors = (
{
name = bottomright;
pos = (700,0);
},
{
name = top;
pos = (360,900);
}
);
layerId = m002;
shapes = (
{
attr = {
lineCapEnd = 1;
lineCapStart = 1;
strokeHeight = 100;
strokeWidth = 100;
};
closed = 0;
nodes = (
(100,50,l),
(100,850,l)
);
},
{
attr = {
lineCapEnd = 1;
lineCapStart = 1;
strokeHeight = 100;
strokeWidth = 100;
};
closed = 0;
nodes = (
(100,850,l),
(620,850,l)
);
}
);
width = 720;
}
);
unicode = 1043;
}
{
glyphname = "De-cy";
layers = (
{
layerId = m002;
shapes = (
{
attr = {
lineCapEnd = 1;
lineCapStart = 1;
strokeHeight = 100;
strokeWidth = 100;
};
closed = 0;
nodes = (
(800,50,l),
(100,50,l)
);
},
{
attr = {
lineCapEnd = 1;
lineCapStart = 1;
strokeHeight = 100;
strokeWidth = 100;
};
closed = 0;
nodes = (
(690,50,l),
(690,805,l)
);
},
{
attr = {
lineCapEnd = 1;
lineCapStart = 1;
strokeHeight = 100;
strokeWidth = 100;
};
closed = 0;
nodes = (
(800,-155,l),
(800,50,l)
);
},
{
attr = {
lineCapEnd = 1;
lineCapStart = 1;
strokeHeight = 100;
strokeWidth = 100;
};
closed = 0;
nodes = (
(100,50,l),
(100,-155,l)
);
},
{
attr = {
lineCapEnd = 1;
lineCapStart = 1;
strokeHeight = 100;
strokeWidth = 100;
};
closed = 0;
nodes = (
(310,805,l),
(310,497,o),
(288,296,o),
(200,50,c)
);
},
{
attr = {
lineCapEnd = 1;
lineCapStart = 1;
strokeHeight = 100;
strokeWidth = 100;
};
closed = 0;
nodes = (
(690,805,l),
(310,805,l)
);
}
);
width = 900;
}
);
unicode = 1044;
}
{
glyphname = "Zhe-cy";
kernLeft = X;
layers = (
{
anchors = (
{
name = bottomright;
pos = (980,0);
},
{
name = top;
pos = (500,900);
}
);
layerId = m002;
shapes = (
{
attr = {
lineCapEnd = 1;
lineCapStart = 1;
strokeHeight = 100;
strokeWidth = 100;
};
closed = 0;
nodes = (
(500,850,l),
(500,50,l)
);
},
{
attr = {
lineCapEnd = 1;
lineCapStart = 1;
strokeHeight = 100;
strokeWidth = 100;
};
closed = 0;
nodes = (
(900,50,l),
(739,335,l),
(699,406,o),
(624,450,o),
(542,450,c),
(459,450,l),
(377,450,o),
(302,406,o),
(262,335,c),
(100,50,l)
);
},
{
attr = {
lineCapEnd = 1;
lineCapStart = 1;
strokeHeight = 100;
strokeWidth = 100;
};
closed = 0;
nodes = (
(100,850,l),
(262,565,l),
(302,494,o),
(377,450,o),
(459,450,c),
(542,450,l),
(624,450,o),
(699,494,o),
(739,565,c),
(900,850,l)
);
}
);
width = 1000;
}
);
unicode = 1046;
}
{
glyphname = "Ze-cy";
layers = (
{
anchors = (
{
name = bottom;
pos = (340,0);
},
{
name = top;
pos = (340,900);
}
);
layerId = m002;
shapes = (
{
attr = {
lineCapEnd = "1";
lineCapStart = "1";
strokeHeight = 100;
strokeWidth = 100;
};
closed = 0;
nodes = (
(100,783,l),
(156,829,o),
(215,850,o),
(349,850,cs),
(380,850,ls),
(491,850,o),
(580,760,o),
(580,650,cs),
(580,540,o),
(491,450,o),
(380,450,c)
);
},
{
attr = {
lineCapEnd = "1";
lineCapStart = "1";
strokeHeight = 100;
strokeWidth = 100;
};
closed = 0;
nodes = (
(100,117,l),
(156,71,o),
(215,50,o),
(349,50,cs),
(380,50,ls),
(491,50,o),
(580,140,o),
(580,250,cs),
(580,360,o),
(491,450,o),
(380,450,c)
);
},
{
attr = {
lineCapEnd = "1";
lineCapStart = "1";
strokeHeight = 100;
strokeWidth = 100;
};
closed = 0;
nodes = (
(227,450,l),
(381,450,l)
);
}
);
width = 680;
}
);
unicode = 1047;
}
{
glyphname = "El-cy";
kernRight = uppercaseStraight;
layers = (
{
layerId = m002;
shapes = (
{
attr = {
lineCapEnd = 1;
lineCapStart = 1;
strokeHeight = 100;
strokeWidth = 100;
};
closed = 0;
nodes = (
(251,850,l),
(251,414,ls),
(251,278,o),
(197,147,o),
(100,50,c)
);
},
{
attr = {
lineCapEnd = 1;
lineCapStart = 1;
strokeHeight = 100;
strokeWidth = 100;
};
closed = 0;
nodes = (
(680,50,l),
(680,850,l)
);
},
{
attr = {
lineCapEnd = 1;
lineCapStart = 1;
strokeHeight = 100;
strokeWidth = 100;
};
closed = 0;
nodes = (
(680,850,l),
(251,850,l)
);
}
);
width = 780;
}
);
unicode = 1051;
}
{
glyphname = "Ef-cy";
layers = (
{
layerId = m002;
shapes = (
{
attr = {
lineCapEnd = 1;
lineCapStart = 1;
strokeHeight = 100;
strokeWidth = 100;
};
closed = 0;
nodes = (
(500,750,l),
(500,-50,l)
);
},
{
attr = {
strokeHeight = 100;
strokeWidth = 100;
};
closed = 1;
nodes = (
(235,50,o),
(100,185,o),
(100,350,c),
(100,516,o),
(235,650,o),
(400,650,c),
(600,650,l),
(766,650,o),
(900,516,o),
(900,350,c),
(900,185,o),
(766,50,o),
(600,50,c),
(400,50,l)
);
}
);
width = 1000;
}
);
unicode = 1060;
}
{
glyphname = "Che-cy";
layers = (
{
anchors = (
{
name = bottomright;
pos = (710,0);
},
{
name = top;
pos = (365,900);
}
);
layerId = m002;
shapes = (
{
attr = {
lineCapEnd = 1;
lineCapStart = 1;
strokeHeight = 100;
strokeWidth = 100;
};
closed = 0;
nodes = (
(630,850,l),
(630,350,l),
(380,350,ls),
(226,350,o),
(100,475,o),
(100,630,cs),
(100,850,l)
);
},
{
attr = {
lineCapEnd = 1;
lineCapStart = 1;
strokeHeight = 100;
strokeWidth = 100;
};
closed = 0;
nodes = (
(630,350,l),
(630,50,l)
);
}
);
width = 730;
}
);
unicode = 1063;
}
{
glyphname = "Hardsign-cy";
layers = (
{
anchors = (
{
name = top;
pos = (455,900);
}
);
layerId = m002;
shapes = (
{
attr = {
lineCapEnd = 1;
lineCapStart = 1;
strokeHeight = 100;
strokeWidth = 100;
};
closed = 0;
nodes = (
(280,50,l),
(610,50,ls),
(720,50,o),
(810,140,o),
(810,250,cs),
(810,360,o),
(720,450,o),
(610,450,cs),
(280,450,l)
);
},
{
attr = {
lineCapEnd = 1;
lineCapStart = 1;
strokeHeight = 100;
strokeWidth = 100;
};
closed = 0;
nodes = (
(280,850,l),
(100,850,l)
);
},
{
attr = {
lineCapEnd = 1;
lineCapStart = 1;
strokeHeight = 100;
strokeWidth = 100;
};
closed = 0;
nodes = (
(280,850,l),
(280,50,l)
);
}
);
width = 910;
}
);
unicode = 1066;
}
{
glyphname = "Yeru-cy";
layers = (
{
anchors = (
{
name = top;
pos = (460,900);
}
);
layerId = m002;
shapes = (
{
attr = {
lineCapEnd = 1;
lineCapStart = 1;
strokeHeight = 100;
strokeWidth = 100;
};
closed = 0;
nodes = (
(100,50,l),
(430,50,ls),
(540,50,o),
(630,140,o),
(630,250,cs),
(630,360,o),
(540,450,o),
(430,450,cs),
(100,450,l)
);
},
{
attr = {
lineCapEnd = 1;
lineCapStart = 1;
strokeHeight = 100;
strokeWidth = 100;
};
closed = 0;
nodes = (
(100,850,l),
(100,50,l)
);
},
{
attr = {
lineCapEnd = 1;
lineCapStart = 1;
strokeHeight = 100;
strokeWidth = 100;
};
closed = 0;
nodes = (
(820,850,l),
(820,50,l)
);
}
);
width = 920;
}
);
unicode = 1067;
}
{
glyphname = "Softsign-cy";
layers = (
{
layerId = m002;
shapes = (
{
attr = {
lineCapEnd = "1";
lineCapStart = "1";
strokeHeight = 100;
strokeWidth = 100;
};
closed = 0;
nodes = (
(100,50,l),
(430,50,ls),
(541,50,o),
(630,140,o),
(630,250,cs),
(630,360,o),
(541,450,o),
(430,450,cs),
(100,450,l)
);
},
{
attr = {
lineCapEnd = "1";
lineCapStart = "1";
strokeHeight = 100;
strokeWidth = 100;
};
closed = 0;
nodes = (
(100,850,l),
(100,50,l)
);
}
);
width = 730;
}
);
unicode = 1068;
}
{
glyphname = "Ereversed-cy";
layers = (
{
anchors = (
{
name = top;
pos = (382,900);
}
);
layerId = m002;
shapes = (
{
attr = {
lineCapEnd = 1;
lineCapStart = 1;
strokeHeight = 100;
strokeWidth = 100;
};
closed = 0;
nodes = (
(664,450,l),
(287,450,l)
);
},
{
attr = {
lineCapEnd = 1;
lineCapStart = 1;
strokeHeight = 100;
strokeWidth = 100;
};
closed = 0;
nodes = (
(100,698,l),
(152,789,o),
(250,850,o),
(362,850,cs),
(529,850,o),
(664,715,o),
(664,548,cs),
(664,352,ls),
(664,185,o),
(529,50,o),
(362,50,cs),
(250,50,o),
(153,111,o),
(101,202,c)
);
}
);
width = 764;
}
);
unicode = 1069;
}
{
glyphname = "Yu-cy";
layers = (
{
anchors = (
{
name = top;
pos = (500,900);
}
);
layerId = m002;
shapes = (
{
attr = {
lineCapEnd = 1;
lineCapStart = 1;
strokeHeight = 100;
strokeWidth = 100;
};
closed = 0;
nodes = (
(100,50,l),
(100,850,l)
);
},
{
attr = {
lineCapEnd = 1;
lineCapStart = 1;
strokeHeight = 100;
strokeWidth = 100;
};
closed = 0;
nodes = (
(100,450,l),
(370,450,l)
);
},
{
attr = {
strokeHeight = 100;
strokeWidth = 100;
};
closed = 1;
nodes = (
(900,171,o),
(781,52,o),
(635,52,c),
(489,52,o),
(370,171,o),
(370,317,c),
(370,587,l),
(370,733,o),
(489,852,o),
(635,852,c),
(781,852,o),
(900,733,o),
(900,587,c),
(900,317,l)
);
}
);
width = 1000;
}
);
unicode = 1070;
}
{
glyphname = "be-cy";
layers = (
{
layerId = m002;
shapes = (
{
attr = {
strokeHeight = 100;
strokeWidth = 100;
};
closed = 1;
nodes = (
(512,50,o),
(630,169,o),
(630,315,c),
(630,461,o),
(512,580,o),
(365,580,c),
(219,580,o),
(100,461,o),
(100,315,c),
(100,169,o),
(219,50,o),
(365,50,c)
);
},
{
attr = {
lineCapEnd = 1;
lineCapStart = 1;
strokeHeight = 100;
strokeWidth = 100;
};
closed = 0;
nodes = (
(530,850,l),
(365,850,l),
(219,850,o),
(100,731,o),
(100,585,c),
(100,315,l)
);
}
);
width = 730;
}
);
unicode = 1073;
}
{
glyphname = "ve-cy";
kernLeft = lowercaseStraight;
layers = (
{
layerId = m002;
shapes = (
{
attr = {
lineCapEnd = 1;
lineCapStart = 1;
strokeHeight = 100;
strokeWidth = 100;
};
closed = 0;
nodes = (
(100,50,l),
(100,580,l)
);
},
{
attr = {
lineCapEnd = 1;
lineCapStart = 1;
strokeHeight = 100;
strokeWidth = 100;
};
closed = 0;
nodes = (
(369,315,l),
(100,315,l)
);
},
{
attr = {
lineCapEnd = 1;
lineCapStart = 1;
strokeHeight = 100;
strokeWidth = 100;
};
closed = 0;
nodes = (
(369,580,l),
(442,580,o),
(500,521,o),
(500,448,cs),
(500,374,o),
(442,315,o),
(369,315,c)
);
},
{
attr = {
lineCapEnd = 1;
lineCapStart = 1;
strokeHeight = 100;
strokeWidth = 100;
};
closed = 0;
nodes = (
(369,315,l),
(442,315,o),
(500,256,o),
(500,183,cs),
(500,109,o),
(442,50,o),
(369,50,c)
);
},
{
attr = {
lineCapEnd = 1;
lineCapStart = 1;
strokeHeight = 100;
strokeWidth = 100;
};
closed = 0;
nodes = (
(100,580,l),
(369,580,l)
);
},
{
attr = {
lineCapEnd = 1;
lineCapStart = 1;
strokeHeight = 100;
strokeWidth = 100;
};
closed = 0;
nodes = (
(369,50,l),
(100,50,l)
);
}
);
width = 600;
}
);
unicode = 1074;
}
{
glyphname = "zhe-cy";
kernLeft = lowercaseX;
kernRight = lowercaseX;
layers = (
{
anchors = (
{
name = bottomright;
pos = (880,0);
},
{
name = top;
pos = (450,630);
}
);
layerId = m002;
shapes = (
{
attr = {
lineCapEnd = 1;
lineCapStart = 1;
strokeHeight = 100;
strokeWidth = 100;
};
closed = 0;
nodes = (
(450,580,l),
(450,52,l)
);
},
{
attr = {
lineCapEnd = 1;
lineCapStart = 1;
strokeHeight = 100;
strokeWidth = 100;
};
closed = 0;
nodes = (
(800,50,l),
(693,239,ls),
(667,286,o),
(617,315,o),
(563,315,cs),
(338,315,ls),
(284,315,o),
(234,286,o),
(207,239,cs),
(100,50,l)
);
},
{
attr = {
lineCapEnd = 1;
lineCapStart = 1;
strokeHeight = 100;
strokeWidth = 100;
};
closed = 0;
nodes = (
(100,580,l),
(207,391,ls),
(234,344,o),
(284,315,o),
(338,315,cs),
(563,315,ls),
(617,315,o),
(667,344,o),
(693,391,cs),
(800,580,l)
);
}
);
width = 900;
}
);
metricLeft = x;
metricRight = x;
unicode = 1078;
}
{
glyphname = "ka-cy";
layers = (
{
anchors = (
{
name = bottomright;
pos = (580,0);
},
{
name = top;
pos = (300,630);
}
);
layerId = m002;
shapes = (
{
attr = {
lineCapEnd = 1;
lineCapStart = 1;
strokeHeight = 100;
strokeWidth = 100;
};
closed = 0;
nodes = (
(100,580,l),
(100,52,l)
);
},
{
attr = {
lineCapEnd = 1;
lineCapStart = 1;
strokeHeight = 100;
strokeWidth = 100;
};
closed = 0;
nodes = (
(500,50,l),
(393,239,ls),
(367,286,o),
(317,315,o),
(263,315,cs),
(100,315,l)
);
},
{
attr = {
lineCapEnd = 1;
lineCapStart = 1;
strokeHeight = 100;
strokeWidth = 100;
};
closed = 0;
nodes = (
(100,315,l),
(263,315,ls),
(317,315,o),
(367,344,o),
(393,391,cs),
(500,580,l)
);
}
);
width = 600;
}
);
unicode = 1082;
}
{
glyphname = "em-cy";
kernLeft = lowercaseStraight;
kernRight = lowercaseStraight;
layers = (
{
layerId = m002;
shapes = (
{
attr = {
lineCapEnd = 1;
lineCapStart = 1;
strokeHeight = 100;
strokeWidth = 100;
};
closed = 0;
nodes = (
(350,50,l),
(600,579,l)
);
},
{
attr = {
lineCapEnd = 1;
lineCapStart = 1;
strokeHeight = 100;
strokeWidth = 100;
};
closed = 0;
nodes = (
(100,51,l),
(100,580,l)
);
},
{
attr = {
lineCapEnd = 1;
lineCapStart = 1;
strokeHeight = 100;
strokeWidth = 100;
};
closed = 0;
nodes = (
(100,580,l),
(350,50,l)
);
},
{
attr = {
lineCapEnd = 1;
lineCapStart = 1;
strokeHeight = 100;
strokeWidth = 100;
};
closed = 0;
nodes = (
(600,579,l),
(600,50,l)
);
}
);
width = 700;
}
);
unicode = 1084;
}
{
glyphname = "pe-cy";
kernLeft = lowercaseStraight;
kernRight = lowercaseStraight;
layers = (
{
anchors = (
{
name = bottomright;
pos = (580,0);
}
);
layerId = m002;
shapes = (
{
attr = {
lineCapEnd = 1;
lineCapStart = 1;
strokeHeight = 100;
strokeWidth = 100;
};
closed = 0;
nodes = (
(500,580,l),
(100,580,l)
);
},
{
attr = {
lineCapEnd = 1;
lineCapStart = 1;
strokeHeight = 100;
strokeWidth = 100;
};
closed = 0;
nodes = (
(100,50,l),
(100,580,l)
);
},
{
attr = {
lineCapEnd = 1;
lineCapStart = 1;
strokeHeight = 100;
strokeWidth = 100;
};
closed = 0;
nodes = (
(500,580,l),
(500,50,l)
);
}
);
width = 600;
}
);
unicode = 1087;
}
{
glyphname = "te-cy";
layers = (
{
anchors = (
{
name = bottomright;
pos = (580,0);
}
);
layerId = m002;
shapes = (
{
attr = {
lineCapEnd = 1;
lineCapStart = 1;
strokeHeight = 100;
strokeWidth = 100;
};
closed = 0;
nodes = (
(100,580,l),
(500,580,l)
);
},
{
attr = {
lineCapEnd = 1;
lineCapStart = 1;
strokeHeight = 100;
strokeWidth = 100;
};
closed = 0;
nodes = (
(300,50,l),
(300,580,l)
);
}
);
width = 600;
}
);
unicode = 1090;
}
{
glyphname = "ef-cy";
kernLeft = lowercaseRound;
kernRight = lowercaseRound;
layers = (
{
layerId = m002;
shapes = (
{
attr = {
strokeHeight = 100;
strokeWidth = 100;
};
closed = 1;
nodes = (
(565,49,ls),
(711,49,o),
(830,168,o),
(830,314,cs),
(830,460,o),
(711,579,o),
(565,579,cs),
(365,579,ls),
(218,579,o),
(100,460,o),
(100,314,cs),
(100,168,o),
(218,49,o),
(365,49,cs)
);
},
{
attr = {
lineCapEnd = 1;
lineCapStart = 1;
strokeHeight = 100;
strokeWidth = 100;
};
closed = 0;
nodes = (
(465,794,l),
(465,-166,l)
);
}
);
width = 930;
}
);
unicode = 1092;
}
{
glyphname = "che-cy";
kernRight = lowercaseStraight;
layers = (
{
anchors = (
{
name = bottomright;
pos = (580,0);
},
{
name = top;
pos = (300,630);
}
);
layerId = m002;
shapes = (
{
attr = {
lineCapEnd = 1;
lineCapStart = 1;
strokeHeight = 100;
strokeWidth = 100;
};
closed = 0;
nodes = (
(500,580,l),
(500,280,l),
(250,280,ls),
(167,280,o),
(100,347,o),
(100,430,cs),
(100,580,l)
);
},
{
attr = {
lineCapEnd = 1;
lineCapStart = 1;
strokeHeight = 100;
strokeWidth = 100;
};
closed = 0;
nodes = (
(500,548,l),
(500,50,l)
);
}
);
width = 600;
}
);
unicode = 1095;
}
{
glyphname = "hardsign-cy";
layers = (
{
anchors = (
{
name = top;
pos = (370,630);
}
);
layerId = m002;
shapes = (
{
pos = (140,0);
ref = "softsign-cy";
},
{
attr = {
lineCapEnd = 1;
lineCapStart = 1;
strokeHeight = 100;
strokeWidth = 100;
};
closed = 0;
nodes = (
(220,580,l),
(100,580,l)
);
}
);
width = 740;
}
);
unicode = 1098;
}
{
glyphname = "yeru-cy";
kernLeft = lowercaseStraight;
kernRight = lowercaseStraight;
layers = (
{
anchors = (
{
name = top;
pos = (390,630);
}
);
layerId = m002;
shapes = (
{
attr = {
lineCapEnd = 1;
lineCapStart = 1;
strokeHeight = 100;
strokeWidth = 100;
};
closed = 0;
nodes = (
(100,50,l),
(369,50,ls),
(441,50,o),
(500,109,o),
(500,183,cs),
(500,256,o),
(441,315,o),
(369,315,cs),
(100,315,l)
);
},
{
attr = {
lineCapEnd = 1;
lineCapStart = 1;
strokeHeight = 100;
strokeWidth = 100;
};
closed = 0;
nodes = (
(100,580,l),
(100,50,l)
);
},
{
attr = {
lineCapEnd = 1;
lineCapStart = 1;
strokeHeight = 100;
strokeWidth = 100;
};
closed = 0;
nodes = (
(680,580,l),
(680,50,l)
);
}
);
width = 780;
}
);
unicode = 1099;
}
{
glyphname = "ereversed-cy";
kernLeft = lowercaseRound;
kernRight = lowercaseRound;
layers = (
{
anchors = (
{
name = top;
pos = (287,630);
}
);
layerId = m002;
shapes = (
{
attr = {
lineCapEnd = 1;
lineCapStart = 1;
strokeHeight = 100;
strokeWidth = 100;
};
closed = 0;
nodes = (
(474,315,l),
(224,315,l)
);
},
{
attr = {
lineCapEnd = 1;
lineCapStart = 1;
strokeHeight = 100;
strokeWidth = 100;
};
closed = 0;
nodes = (
(100,479,l),
(135,539,o),
(200,580,o),
(274,580,cs),
(385,580,o),
(474,490,o),
(474,380,cs),
(474,250,ls),
(474,140,o),
(385,50,o),
(274,50,cs),
(200,50,o),
(135,90,o),
(101,150,c)
);
}
);
width = 574;
}
);
unicode = 1101;
}
{
glyphname = "yu-cy";
kernLeft = lowercaseStraight;
kernRight = lowercaseRound;
layers = (
{
anchors = (
{
name = top;
pos = (430,630);
}
);
layerId = m002;
shapes = (
{
attr = {
lineCapEnd = 1;
lineCapStart = 1;
strokeHeight = 100;
strokeWidth = 100;
};
closed = 0;
nodes = (
(100,50,l),
(100,580,l)
);
},
{
attr = {
lineCapEnd = 1;
lineCapStart = 1;
strokeHeight = 100;
strokeWidth = 100;
};
closed = 0;
nodes = (
(100,315,l),
(360,315,l)
);
},
{
attr = {
lineCapEnd = 1;
lineCapStart = 1;
strokeHeight = 100;
strokeWidth = 100;
};
closed = 1;
nodes = (
(450,50,o),
(360,140,o),
(360,250,cs),
(360,380,ls),
(360,490,o),
(450,580,o),
(560,580,cs),
(670,580,o),
(760,490,o),
(760,380,cs),
(760,250,ls),
(760,140,o),
(670,50,o),
(560,50,cs)
);
},
{
attr = {
lineCapEnd = 1;
lineCapStart = 1;
strokeHeight = 100;
strokeWidth = 100;
};
closed = 1;
nodes = (
);
}
);
width = 860;
}
);
unicode = 1102;
}
{
glyphname = "ya-cy";
kernRight = lowercaseStraight;
layers = (
{
anchors = (
{
name = top;
pos = (300,630);
}
);
layerId = m002;
shapes = (
{
attr = {
lineCapEnd = 1;
lineCapStart = 1;
strokeHeight = 100;
strokeWidth = 100;
};
closed = 0;
nodes = (
(500,580,l),
(278,580,ls),
(180,580,o),
(100,500,o),
(100,402,cs),
(100,304,o),
(180,224,o),
(278,224,cs),
(500,224,l)
);
},
{
attr = {
lineCapEnd = 1;
lineCapStart = 1;
strokeHeight = 100;
strokeWidth = 100;
};
closed = 0;
nodes = (
(278,224,l),
(104,50,l)
);
},
{
attr = {
lineCapEnd = 1;
lineCapStart = 1;
strokeHeight = 100;
strokeWidth = 100;
};
closed = 0;
nodes = (
(500,50,l),
(500,580,l)
);
}
);
width = 600;
}
);
unicode = 1103;
}
{
glyphname = "e-cy";
kernLeft = lowercaseRound;
layers = (
{
layerId = m002;
shapes = (
{
attr = {
lineCapEnd = "1";
lineCapStart = "1";
strokeHeight = 100;
strokeWidth = 100;
};
closed = 0;
nodes = (
(100,315,l),
(350,315,l)
);
},
{
attr = {
lineCapEnd = "1";
lineCapStart = "1";
strokeHeight = 100;
strokeWidth = 100;
};
closed = 0;
nodes = (
(473,150,l),
(439,90,o),
(374,50,o),
(300,50,c),
(189,50,o),
(100,140,o),
(100,250,c),
(100,380,l),
(100,490,o),
(189,580,o),
(300,580,c),
(374,580,o),
(439,539,o),
(474,479,c)
);
}
);
width = 574;
}
);
unicode = 1108;
}
{
glyphname = "Yusbig-cy";
layers = (
{
layerId = m002;
shapes = (
{
attr = {
lineCapEnd = "1";
lineCapStart = "1";
strokeHeight = 100;
strokeWidth = 100;
};
closed = 0;
nodes = (
(500,451,l),
(500,50,l)
);
},
{
attr = {
lineCapEnd = "1";
lineCapStart = "1";
strokeHeight = 100;
strokeWidth = 100;
};
closed = 0;
nodes = (
(900,50,l),
(739,335,ls),
(699,406,o),
(624,450,o),
(542,450,cs),
(459,450,ls),
(377,450,o),
(302,406,o),
(262,335,cs),
(100,50,l)
);
},
{
attr = {
lineCapEnd = 1;
lineCapStart = 1;
strokeHeight = 100;
strokeWidth = 100;
};
closed = 0;
nodes = (
(800,850,l),
(200,850,l)
);
},
{
attr = {
lineCapEnd = 1;
lineCapStart = 1;
strokeHeight = 100;
strokeWidth = 100;
};
closed = 0;
nodes = (
(200,850,l),
(500,451,l),
(800,850,l)
);
}
);
width = 1000;
}
);
metricLeft = "=50";
metricRight = "=50";
unicode = 1130;
}
{
glyphname = "yusbig-cy";
layers = (
{
layerId = m002;
shapes = (
{
attr = {
lineCapEnd = "1";
lineCapStart = "1";
strokeHeight = 100;
strokeWidth = 100;
};
closed = 0;
nodes = (
(450,315,l),
(450,52,l)
);
},
{
attr = {
lineCapEnd = "1";
lineCapStart = "1";
strokeHeight = 100;
strokeWidth = 100;
};
closed = 0;
nodes = (
(800,50,l),
(693,239,ls),
(667,286,o),
(617,315,o),
(563,315,cs),
(338,315,ls),
(284,315,o),
(234,286,o),
(207,239,cs),
(100,50,l)
);
},
{
attr = {
lineCapEnd = "1";
lineCapStart = "1";
strokeHeight = 100;
strokeWidth = 100;
};
closed = 0;
nodes = (
(649,580,l),
(251,580,l)
);
},
{
attr = {
lineCapEnd = "1";
lineCapStart = "1";
strokeHeight = 100;
strokeWidth = 100;
};
closed = 0;
nodes = (
(251,580,l),
(450,315,l),
(649,580,l)
);
}
);
width = 900;
}
);
metricLeft = "=50";
metricRight = "=50";
unicode = 1131;
}
{
glyphname = "Fita-cy";
layers = (
{
layerId = m002;
shapes = (
{
ref = O;
},
{
attr = {
lineCapEnd = 1;
lineCapStart = 1;
strokeHeight = 100;
strokeWidth = 100;
};
closed = 0;
nodes = (
(100,430,l),
(133,445,o),
(167,460,o),
(233,460,c),
(355,460,o),
(375,400,o),
(498,400,c),
(564,400,o),
(597,415,o),
(630,430,c)
);
}
);
width = 730;
}
);
unicode = 1138;
}
{
glyphname = "fita-cy";
layers = (
{
layerId = m002;
shapes = (
{
ref = o;
},
{
attr = {
strokeHeight = 100;
strokeWidth = 100;
};
closed = 0;
nodes = (
(101,318,l),
(126,329,o),
(151,340,o),
(201,340,c),
(300,340,o),
(300,295,o),
(399,295,c),
(449,295,o),
(474,307,o),
(499,318,c)
);
}
);
width = 600;
}
);
unicode = 1139;
}
{
glyphname = "Izhitsa-cy";
layers = (
{
anchors = (
{
name = top;
pos = (440,900);
}
);
layerId = m002;
shapes = (
{
attr = {
identifier = ID0x296454340;
lineCapEnd = 1;
lineCapStart = 1;
strokeHeight = 100;
strokeWidth = 100;
};
closed = 0;
nodes = (
(365,50,l),
(605,774,ls),
(621,822,o),
(662,850,o),
(711,850,cs),
(780,850,l)
);
},
{
attr = {
identifier = ID0x296454340;
lineCapEnd = 1;
lineCapStart = 1;
strokeHeight = 100;
strokeWidth = 100;
};
closed = 0;
nodes = (
(365,50,l),
(100,850,l)
);
}
);
width = 880;
}
);
unicode = 1140;
}
{
glyphname = "Geupturn-cy";
layers = (
{
layerId = m002;
shapes = (
{
ref = "Ge-cy";
},
{
attr = {
lineCapEnd = 1;
lineCapStart = 1;
strokeHeight = 100;
strokeWidth = 100;
};
closed = 0;
nodes = (
(620,850,l),
(620,1010,l)
);
}
);
width = 720;
}
);
unicode = 1168;
}
{
glyphname = "geupturn-cy";
kernLeft = lowercaseStraight;
layers = (
{
layerId = m002;
shapes = (
{
ref = "ge-cy";
},
{
attr = {
lineCapEnd = 1;
lineCapStart = 1;
strokeHeight = 100;
strokeWidth = 100;
};
closed = 0;
nodes = (
(450,580,l),
(450,680,l)
);
}
);
width = 550;
}
);
unicode = 1169;
}
{
glyphname = "gestroke-cy";
layers = (
{
layerId = m002;
shapes = (
{
pos = (100,0);
ref = "ge-cy";
},
{
attr = {
lineCapEnd = "1";
lineCapStart = "1";
strokeHeight = 100;
strokeWidth = 100;
};
closed = 0;
nodes = (
(100,300,l),
(450,300,l)
);
}
);
width = 650;
}
);
unicode = 1171;
}
{
glyphname = "gemiddlehook-cy";
layers = (
{
anchors = (
{
name = bottom;
pos = (300,50);
},
{
name = center;
pos = (300,533);
},
{
name = top;
pos = (300,900);
}
);
layerId = m002;
shapes = (
{
attr = {
identifier = ID0x10187ea80;
lineCapEnd = 1;
lineCapStart = 1;
strokeHeight = 100;
strokeWidth = 100;
};
closed = 0;
nodes = (
(100,380,l),
(100,490,o),
(189,580,o),
(300,580,cs),
(410,580,o),
(500,490,o),
(500,380,cs),
(500,50,ls),
(500,-56,o),
(464,-161,o),
(323,-220,c)
);
},
{
attr = {
lineCapEnd = "1";
lineCapStart = "1";
strokeHeight = 100;
strokeWidth = 100;
};
closed = 0;
nodes = (
(100,850,l),
(100,50,l)
);
},
{
attr = {
lineCapEnd = "1";
lineCapStart = "1";
strokeHeight = 100;
strokeWidth = 100;
};
closed = 0;
nodes = (
(500,850,l),
(100,850,l)
);
}
);
width = 600;
}
);
metricLeft = "=50";
metricRight = "=50";
unicode = 1173;
}
{
glyphname = "zedescender-cy";
layers = (
{
layerId = m002;
shapes = (
{
ref = "ze-cy";
},
{
attr = {
lineCapEnd = "1";
lineCapStart = "1";
strokeHeight = 100;
strokeWidth = 100;
};
closed = 0;
nodes = (
(276,50,l),
(276,-140,l)
);
}
);
width = 551;
}
);
unicode = 1177;
}
{
glyphname = "Kaverticalstroke-cy";
layers = (
{
layerId = m002;
shapes = (
{
ref = "Ka-cy";
},
{
attr = {
lineCapEnd = "1";
lineCapStart = "1";
strokeHeight = 100;
strokeWidth = 100;
};
closed = 0;
nodes = (
(270,225,l),
(269,675,l)
);
}
);
width = 730;
}
);
unicode = 1180;
}
{
glyphname = "Kabashkir-cy";
layers = (
{
layerId = m002;
shapes = (
{
pos = (240,0);
ref = "Ka-cy";
},
{
attr = {
lineCapEnd = "1";
lineCapStart = "1";
strokeHeight = 100;
strokeWidth = 100;
};
closed = 0;
nodes = (
(340,850,l),
(100,850,l)
);
}
);
width = 970;
}
);
metricLeft = "=50";
metricRight = "=50";
unicode = 1184;
}
{
glyphname = "Endescender-cy";
layers = (
{
layerId = m002;
shapes = (
{
ref = "En-cy";
},
{
attr = {
lineCapEnd = "1";
lineCapStart = "1";
strokeHeight = 100;
strokeWidth = 100;
};
closed = 0;
nodes = (
(610,50,l),
(710,50,l)
);
},
{
attr = {
lineCapEnd = "1";
lineCapStart = "1";
strokeHeight = 100;
strokeWidth = 100;
};
closed = 0;
nodes = (
(710,50,l),
(710,-50,l)
);
}
);
width = 810;
}
);
unicode = 1186;
}
{
glyphname = "EnGe-cy";
layers = (
{
layerId = m002;
shapes = (
{
ref = H;
},
{
attr = {
lineCapEnd = "1";
lineCapStart = "1";
strokeHeight = 100;
strokeWidth = 100;
};
closed = 0;
nodes = (
(800,850,l),
(610,850,l)
);
}
);
width = 900;
}
);
metricLeft = "=50";
metricRight = "=50";
unicode = 1188;
}
{
glyphname = "enge-cy";
layers = (
{
layerId = m002;
shapes = (
{
ref = "en-cy";
},
{
attr = {
lineCapEnd = "1";
lineCapStart = "1";
strokeHeight = 100;
strokeWidth = 100;
};
closed = 0;
nodes = (
(690,580,l),
(500,580,l)
);
}
);
width = 790;
}
);
metricLeft = "=50";
metricRight = "=50";
unicode = 1189;
}
{
export = 0;
glyphname = "Pemiddlehook-cy";
layers = (
{
anchors = (
{
name = bottomright;
pos = (1220,0);
},
{
name = top;
pos = (880,900);
}
);
layerId = m002;
shapes = (
{
attr = {
identifier = ID0x1383ed900;
lineCapEnd = 1;
lineCapStart = 1;
strokeHeight = 100;
strokeWidth = 100;
};
closed = 0;
nodes = (
(620,50,l),
(620,850,l)
);
},
{
attr = {
identifier = ID0x1383ed900;
lineCapEnd = 1;
lineCapStart = 1;
strokeHeight = 100;
strokeWidth = 100;
};
closed = 0;
nodes = (
(620,850,l)
);
},
{
attr = {
identifier = ID0x15e8042f0;
lineCapEnd = "1";
lineCapStart = "1";
strokeHeight = 100;
strokeWidth = 100;
};
closed = 0;
nodes = (
(620,320,l),
(620,463,o),
(736,580,o),
(880,580,cs),
(1022,580,o),
(1140,463,o),
(1140,320,cs),
(1140,242,ls),
(1140,105,o),
(1093,-32,o),
(909,-108,c)
);
},
{
alignment = -1;
ref = "Ge-cy";
}
);
width = 1240;
}
);
metricLeft = "=50";
metricRight = "=50";
unicode = 1190;
}
{
glyphname = "Esdescender-cy";
layers = (
{
layerId = m002;
shapes = (
{
ref = C;
},
{
attr = {
lineCapEnd = 1;
lineCapStart = 1;
strokeHeight = 100;
strokeWidth = 100;
};
closed = 0;
nodes = (
(365,49,l),
(365,-140,l)
);
}
);
width = 730;
}
);
metricLeft = "=50";
metricRight = "=50";
unicode = 1194;
}
{
glyphname = "esdescender-cy";
layers = (
{
layerId = m002;
shapes = (
{
attr = {
lineCapEnd = "1";
lineCapStart = "1";
strokeHeight = 100;
strokeWidth = 100;
};
closed = 0;
nodes = (
(287,49,l),
(287,-140,l)
);
},
{
ref = c;
}
);
width = 574;
}
);
unicode = 1195;
}
{
glyphname = "Tedescender-cy";
layers = (
{
layerId = m002;
shapes = (
{
ref = "Te-cy";
},
{
attr = {
lineCapEnd = "1";
lineCapStart = "1";
strokeHeight = 100;
strokeWidth = 100;
};
closed = 0;
nodes = (
(365,50,l),
(465,50,l)
);
},
{
attr = {
lineCapEnd = "1";
lineCapStart = "1";
strokeHeight = 100;
strokeWidth = 100;
};
closed = 0;
nodes = (
(465,50,l),
(465,-50,l)
);
}
);
width = 730;
}
);
unicode = 1196;
}
{
glyphname = "ustraightstroke-cy";
layers = (
{
layerId = m002;
shapes = (
{
ref = "ustraight-cy";
},
{
attr = {
lineCapEnd = 1;
lineCapStart = 1;
strokeHeight = 100;
strokeWidth = 100;
};
closed = 0;
nodes = (
(125,50,l),
(475,50,l)
);
}
);
width = 600;
}
);
unicode = 1201;
}
{
glyphname = "Hadescender-cy";
layers = (
{
layerId = m002;
shapes = (
{
ref = X;
},
{
attr = {
lineCapEnd = "1";
lineCapStart = "1";
strokeHeight = 100;
strokeWidth = 100;
};
closed = 0;
nodes = (
(630,50,l),
(730,50,l)
);
},
{
attr = {
lineCapEnd = "1";
lineCapStart = "1";
strokeHeight = 100;
strokeWidth = 100;
};
closed = 0;
nodes = (
(730,50,l),
(730,-50,l)
);
}
);
width = 830;
}
);
unicode = 1202;
}
{
glyphname = "hadescender-cy";
layers = (
{
layerId = m002;
shapes = (
{
ref = "ha-cy";
},
{
attr = {
lineCapEnd = "1";
lineCapStart = "1";
strokeHeight = 100;
strokeWidth = 100;
};
closed = 0;
nodes = (
(500,50,l),
(600,50,l)
);
},
{
attr = {
lineCapEnd = "1";
lineCapStart = "1";
strokeHeight = 100;
strokeWidth = 100;
};
closed = 0;
nodes = (
(600,50,l),
(600,-50,l)
);
}
);
width = 700;
}
);
unicode = 1203;
}
{
glyphname = "Cheverticalstroke-cy";
layers = (
{
layerId = m002;
shapes = (
{
ref = "Che-cy";
},
{
attr = {
lineCapEnd = "1";
lineCapStart = "1";
strokeHeight = 100;
strokeWidth = 100;
};
closed = 0;
nodes = (
(365,180,l),
(365,630,l)
);
}
);
width = 730;
}
);
unicode = 1208;
}
{
glyphname = "cheverticalstroke-cy";
layers = (
{
layerId = m002;
shapes = (
{
ref = "che-cy";
},
{
attr = {
lineCapEnd = "1";
lineCapStart = "1";
strokeHeight = 100;
strokeWidth = 100;
};
closed = 0;
nodes = (
(302,165,l),
(300,465,l)
);
}
);
width = 600;
}
);
unicode = 1209;
}
{
glyphname = "Dzeabkhasian-cy";
layers = (
{
layerId = m002;
shapes = (
{
attr = {
lineCapEnd = "1";
lineCapStart = "1";
strokeHeight = 100;
strokeWidth = 100;
};
closed = 0;
nodes = (
(380,450,l)
);
},
{
attr = {
lineCapEnd = "1";
lineCapStart = "1";
strokeHeight = 100;
strokeWidth = 100;
};
closed = 0;
nodes = (
(100,117,l),
(156,71,o),
(215,50,o),
(349,50,cs),
(380,50,ls),
(491,50,o),
(580,140,o),
(580,250,cs),
(580,360,o),
(492,450,o),
(381,450,cs),
(184,450,l)
);
},
{
attr = {
lineCapEnd = "1";
lineCapStart = "1";
strokeHeight = 100;
strokeWidth = 100;
};
closed = 0;
nodes = (
(100,850,l),
(580,850,l)
);
},
{
attr = {
lineCapEnd = "1";
lineCapStart = "1";
strokeHeight = 100;
strokeWidth = 100;
};
closed = 0;
nodes = (
(580,850,l),
(184,450,l)
);
}
);
width = 680;
}
);
metricLeft = "=50";
metricRight = "=50";
unicode = 1248;
}
{
glyphname = "dzeabkhasian-cy";
layers = (
{
layerId = m002;
shapes = (
{
attr = {
lineCapEnd = "1";
lineCapStart = "1";
strokeHeight = 100;
strokeWidth = 100;
};
closed = 0;
nodes = (
(100,95,l),
(136,64,o),
(176,50,o),
(265,50,cs),
(318,50,ls),
(392,50,o),
(451,109,o),
(451,182,cs),
(451,256,o),
(392,315,o),
(318,315,cs),
(201,315,l)
);
},
{
attr = {
lineCapEnd = "1";
lineCapStart = "1";
strokeHeight = 100;
strokeWidth = 100;
};
closed = 0;
nodes = (
(100,580,l),
(463,580,l)
);
},
{
attr = {
lineCapEnd = "1";
lineCapStart = "1";
strokeHeight = 100;
strokeWidth = 100;
};
closed = 0;
nodes = (
(464,580,l),
(201,315,l)
);
}
);
width = 564;
}
);
metricLeft = "=50";
metricRight = "=50";
unicode = 1249;
}
{
glyphname = "Obarred-cy";
layers = (
{
layerId = m002;
shapes = (
{
ref = O;
},
{
attr = {
identifier = ID0x16fbe3760;
lineCapEnd = 1;
lineCapStart = 1;
strokeHeight = 100;
strokeWidth = 100;
};
closed = 0;
nodes = (
(100,450,l),
(630,450,l)
);
}
);
width = 730;
}
);
unicode = 1256;
}
{
export = 0;
glyphname = "gedescender-cy";
layers = (
{
layerId = m002;
shapes = (
{
ref = "ge-cy";
},
{
attr = {
lineCapEnd = "1";
lineCapStart = "1";
strokeHeight = 100;
strokeWidth = 100;
};
closed = 0;
nodes = (
(200,50,l),
(200,-67,l)
);
},
{
attr = {
lineCapEnd = "1";
lineCapStart = "1";
strokeHeight = 100;
strokeWidth = 100;
};
closed = 0;
nodes = (
(100,50,l),
(200,50,l)
);
}
);
width = 550;
}
);
unicode = 1271;
}
{
glyphname = "maqaf-hb";
layers = (
{
layerId = m002;
shapes = (
{
attr = {
lineCapEnd = "1";
lineCapStart = "1";
strokeHeight = 100;
strokeWidth = 100;
};
closed = 0;
nodes = (
(80,795,l),
(361,795,l)
);
}
);
width = 441;
}
);
unicode = 1470;
}
{
glyphname = "alef-hb";
layers = (
{
anchors = (
{
name = bottom;
pos = (330,0);
},
{
name = bottomleft;
pos = (20,0);
},
{
name = center;
pos = (330,508);
},
{
name = top;
pos = (330,1015);
},
{
name = topleft;
pos = (20,1015);
}
);
layerId = m002;
shapes = (
{
attr = {
lineCapEnd = 1;
lineCapStart = 1;
strokeHeight = 100;
strokeWidth = 100;
};
closed = 0;
nodes = (
(100,795,l),
(560,50,l)
);
},
{
attr = {
lineCapEnd = 1;
lineCapStart = 1;
strokeHeight = 100;
strokeWidth = 100;
};
closed = 0;
nodes = (
(560,795,l),
(560,511,ls),
(560,414,o),
(481,335,o),
(384,335,c)
);
},
{
attr = {
lineCapEnd = 1;
lineCapStart = 1;
strokeHeight = 100;
strokeWidth = 100;
};
closed = 0;
nodes = (
(100,50,l),
(100,334,ls),
(100,431,o),
(179,510,o),
(276,510,c)
);
}
);
width = 660;
}
);
unicode = 1488;
}
{
glyphname = "bet-hb";
layers = (
{
anchors = (
{
name = bottom;
pos = (365,0);
},
{
name = bottomleft;
pos = (20,0);
},
{
name = center;
pos = (365,508);
},
{
name = top;
pos = (365,1015);
},
{
name = topleft;
pos = (20,1015);
}
);
layerId = m002;
shapes = (
{
attr = {
lineCapEnd = 1;
lineCapStart = 1;
strokeHeight = 100;
strokeWidth = 100;
};
closed = 0;
nodes = (
(100,50,l),
(630,50,l)
);
},
{
attr = {
lineCapEnd = 1;
lineCapStart = 1;
strokeHeight = 100;
strokeWidth = 100;
};
closed = 0;
nodes = (
(530,50,l),
(530,595,ls),
(530,705,o),
(441,795,o),
(330,795,cs),
(209,795,ls),
(170,795,o),
(133,786,o),
(100,769,c)
);
}
);
width = 730;
}
);
unicode = 1489;
}
{
glyphname = "gimel-hb";
layers = (
{
anchors = (
{
name = bottom;
pos = (250,0);
},
{
name = bottomleft;
pos = (20,0);
},
{
name = center;
pos = (250,508);
},
{
name = top;
pos = (250,1015);
},
{
name = topleft;
pos = (20,1015);
}
);
layerId = m002;
shapes = (
{
attr = {
lineCapEnd = 1;
lineCapStart = 1;
strokeHeight = 100;
strokeWidth = 100;
};
closed = 0;
nodes = (
(400,50,l),
(400,653,ls),
(400,731,o),
(337,795,o),
(258,795,cs),
(230,795,o),
(204,788,o),
(180,777,c)
);
},
{
attr = {
lineCapEnd = 1;
lineCapStart = 1;
strokeHeight = 100;
strokeWidth = 100;
};
closed = 0;
nodes = (
(400,244,l),
(400,137,o),
(314,50,o),
(206,50,cs),
(168,50,o),
(132,59,o),
(100,75,c)
);
}
);
width = 500;
}
);
unicode = 1490;
}
{
glyphname = "dalet-hb";
layers = (
{
anchors = (
{
name = bottom;
pos = (330,0);
},
{
name = bottomleft;
pos = (20,0);
},
{
name = center;
pos = (330,508);
},
{
name = top;
pos = (330,1015);
},
{
name = topleft;
pos = (20,1015);
}
);
layerId = m002;
shapes = (
{
attr = {
lineCapEnd = 1;
lineCapStart = 1;
strokeHeight = 100;
strokeWidth = 100;
};
closed = 0;
nodes = (
(100,795,l),
(560,795,l)
);
},
{
attr = {
lineCapEnd = 1;
lineCapStart = 1;
strokeHeight = 100;
strokeWidth = 100;
};
closed = 0;
nodes = (
(430,50,l),
(430,665,ls),
(430,737,o),
(488,795,o),
(560,795,c)
);
}
);
width = 660;
}
);
unicode = 1491;
}
{
glyphname = "vav-hb";
layers = (
{
anchors = (
{
name = bottom;
pos = (100,0);
},
{
name = bottomleft;
pos = (20,0);
},
{
name = center;
pos = (100,508);
},
{
name = top;
pos = (100,1015);
},
{
name = topleft;
pos = (20,1015);
}
);
layerId = m002;
shapes = (
{
attr = {
lineCapEnd = 1;
lineCapStart = 1;
strokeHeight = 100;
strokeWidth = 100;
};
closed = 0;
nodes = (
(100,795,l),
(100,50,l)
);
}
);
width = 200;
}
);
unicode = 1493;
}
{
glyphname = "het-hb";
kernLeft = hebrewStraight;
kernRight = hebrewRounded;
layers = (
{
anchors = (
{
name = bottom;
pos = (340,0);
},
{
name = bottomleft;
pos = (20,0);
},
{
name = center;
pos = (340,508);
},
{
name = top;
pos = (340,1015);
},
{
name = topleft;
pos = (20,1015);
}
);
layerId = m002;
shapes = (
{
attr = {
lineCapEnd = 1;
lineCapStart = 1;
strokeHeight = 100;
strokeWidth = 100;
};
closed = 0;
nodes = (
(580,50,l),
(580,595,ls),
(580,705,o),
(490,795,o),
(380,795,cs),
(259,795,ls),
(220,795,o),
(148,792,o),
(100,769,c)
);
},
{
attr = {
lineCapEnd = 1;
lineCapStart = 1;
strokeHeight = 100;
strokeWidth = 100;
};
closed = 0;
nodes = (
(100,769,l),
(100,50,l)
);
}
);
width = 680;
}
);
unicode = 1495;
}
{
glyphname = "tet-hb";
layers = (
{
anchors = (
{
name = bottom;
pos = (350,0);
},
{
name = bottomleft;
pos = (70,0);
},
{
name = center;
pos = (350,508);
},
{
name = top;
pos = (350,1015);
},
{
name = topleft;
pos = (70,1015);
}
);
layerId = m002;
shapes = (
{
attr = {
lineCapEnd = 1;
lineCapStart = 1;
strokeHeight = 100;
strokeWidth = 100;
};
closed = 0;
nodes = (
(381,795,l),
(536,795,o),
(662,669,o),
(662,514,cs),
(662,331,ls),
(662,176,o),
(536,50,o),
(381,50,cs),
(226,50,o),
(100,176,o),
(100,331,cs),
(100,795,l)
);
}
);
width = 762;
}
);
unicode = 1496;
}
{
glyphname = "lamed-hb";
layers = (
{
anchors = (
{
name = bottom;
pos = (365,0);
},
{
name = bottomleft;
pos = (20,0);
},
{
name = center;
pos = (365,508);
},
{
name = top;
pos = (365,1015);
},
{
name = topleft;
pos = (20,1015);
}
);
layerId = m002;
shapes = (
{
attr = {
lineCapEnd = 1;
lineCapStart = 1;
strokeHeight = 100;
strokeWidth = 100;
};
closed = 0;
nodes = (
(100,785,l),
(630,785,l)
);
},
{
attr = {
lineCapEnd = 1;
lineCapStart = 1;
strokeHeight = 100;
strokeWidth = 100;
};
closed = 0;
nodes = (
(630,785,l),
(430,50,l)
);
},
{
attr = {
lineCapEnd = 1;
lineCapStart = 1;
strokeHeight = 100;
strokeWidth = 100;
};
closed = 0;
nodes = (
(100,925,l),
(100,785,l)
);
}
);
width = 730;
}
);
unicode = 1500;
}
{
glyphname = "mem-hb";
layers = (
{
anchors = (
{
name = bottom;
pos = (365,0);
},
{
name = bottomleft;
pos = (20,0);
},
{
name = center;
pos = (365,508);
},
{
name = top;
pos = (365,1015);
},
{
name = topleft;
pos = (20,1015);
}
);
layerId = m002;
shapes = (
{
attr = {
lineCapEnd = 1;
lineCapStart = 1;
strokeHeight = 100;
strokeWidth = 100;
};
closed = 0;
nodes = (
(630,50,l),
(450,50,l)
);
},
{
attr = {
lineCapEnd = 1;
lineCapStart = 1;
strokeHeight = 100;
strokeWidth = 100;
};
closed = 0;
nodes = (
(630,50,l),
(630,595,l),
(630,705,o),
(540,795,o),
(430,795,c),
(359,795,l),
(320,795,o),
(253,787,o),
(193,719,c)
);
},
{
attr = {
lineCapEnd = 1;
lineCapStart = 1;
strokeHeight = 100;
strokeWidth = 100;
};
closed = 0;
nodes = (
(112,795,l),
(157,795,o),
(192,759,o),
(192,715,c)
);
},
{
attr = {
lineCapEnd = 1;
lineCapStart = 1;
strokeHeight = 100;
strokeWidth = 100;
};
closed = 0;
nodes = (
(193,719,l),
(100,50,l)
);
}
);
width = 730;
}
);
unicode = 1502;
}
{
glyphname = "nunFinal-hb";
kernRight = hebrewRounded;
layers = (
{
anchors = (
{
name = bottom;
pos = (120,0);
},
{
name = bottomleft;
pos = (20,0);
},
{
name = center;
pos = (120,508);
},
{
name = top;
pos = (120,1015);
},
{
name = topleft;
pos = (20,1015);
}
);
layerId = m002;
shapes = (
{
attr = {
lineCapEnd = 1;
lineCapStart = 1;
strokeHeight = 100;
strokeWidth = 100;
};
closed = 0;
nodes = (
(140,-165,l),
(140,580,l)
);
},
{
attr = {
lineCapEnd = 1;
lineCapStart = 1;
strokeHeight = 100;
strokeWidth = 100;
};
closed = 0;
nodes = (
(140,580,l),
(100,795,l)
);
}
);
width = 240;
}
);
unicode = 1503;
}
{
glyphname = "nun-hb";
kernRight = hebrewRounded;
layers = (
{
anchors = (
{
name = bottom;
pos = (235,0);
},
{
name = bottomleft;
pos = (20,0);
},
{
name = center;
pos = (235,508);
},
{
name = top;
pos = (235,1015);
},
{
name = topleft;
pos = (20,1015);
}
);
layerId = m002;
shapes = (
{
attr = {
lineCapEnd = 1;
lineCapStart = 1;
strokeHeight = 100;
strokeWidth = 100;
};
closed = 0;
nodes = (
(370,50,l),
(370,653,l),
(370,731,o),
(306,795,o),
(228,795,c),
(200,795,o),
(173,788,o),
(150,777,c)
);
},
{
attr = {
lineCapEnd = 1;
lineCapStart = 1;
strokeHeight = 100;
strokeWidth = 100;
};
closed = 0;
nodes = (
(100,50,l),
(370,50,l)
);
}
);
width = 470;
}
);
unicode = 1504;
}
{
glyphname = "samekh-hb";
kernRight = hebrewRound;
layers = (
{
anchors = (
{
name = bottom;
pos = (381,0);
},
{
name = bottomleft;
pos = (20,0);
},
{
name = center;
pos = (381,508);
},
{
name = top;
pos = (381,1015);
},
{
name = topleft;
pos = (20,1015);
}
);
layerId = m002;
shapes = (
{
attr = {
lineCapEnd = 1;
lineCapStart = 1;
strokeHeight = 100;
strokeWidth = 100;
};
closed = 0;
nodes = (
(100,795,l),
(381,795,l)
);
},
{
attr = {
strokeHeight = 100;
strokeWidth = 100;
};
closed = 1;
nodes = (
(226,50,o),
(100,176,o),
(100,331,cs),
(100,514,ls),
(100,669,o),
(226,795,o),
(381,795,cs),
(536,795,o),
(662,669,o),
(662,514,cs),
(662,331,ls),
(662,176,o),
(536,50,o),
(381,50,cs)
);
}
);
width = 762;
}
);
unicode = 1505;
}
{
glyphname = "ayin-hb";
layers = (
{
anchors = (
{
name = bottom;
pos = (394,0);
},
{
name = bottomleft;
pos = (20,0);
},
{
name = center;
pos = (394,508);
},
{
name = top;
pos = (394,1015);
},
{
name = topleft;
pos = (20,1015);
}
);
layerId = m002;
shapes = (
{
attr = {
lineCapEnd = 1;
lineCapStart = 1;
strokeHeight = 100;
strokeWidth = 100;
};
closed = 0;
nodes = (
(100,50,l),
(309,90,ls),
(476,121,o),
(604,254,o),
(630,421,cs),
(688,795,l)
);
},
{
attr = {
lineCapEnd = 1;
lineCapStart = 1;
strokeHeight = 100;
strokeWidth = 100;
};
closed = 0;
nodes = (
(129,795,l),
(318,91,l)
);
}
);
width = 788;
}
);
unicode = 1506;
}
{
glyphname = "peFinal-hb";
layers = (
{
anchors = (
{
name = bottom;
pos = (350,0);
},
{
name = bottomleft;
pos = (20,0);
},
{
name = center;
pos = (350,508);
},
{
name = top;
pos = (350,1015);
},
{
name = topleft;
pos = (20,1015);
}
);
layerId = m002;
shapes = (
{
attr = {
lineCapEnd = "1";
lineCapStart = "1";
strokeHeight = 100;
strokeWidth = 100;
};
closed = 0;
nodes = (
(600,-165,l),
(600,435,ls),
(600,674,o),
(484,795,o),
(340,795,cs),
(207,795,o),
(100,688,o),
(100,555,cs),
(100,435,o),
(188,336,o),
(303,318,c)
);
}
);
width = 700;
}
);
unicode = 1507;
}
{
glyphname = "pe-hb";
layers = (
{
anchors = (
{
name = bottom;
pos = (350,0);
},
{
name = bottomleft;
pos = (20,0);
},
{
name = center;
pos = (350,508);
},
{
name = top;
pos = (350,1015);
},
{
name = topleft;
pos = (20,1015);
}
);
layerId = m002;
shapes = (
{
attr = {
lineCapEnd = 1;
lineCapStart = 1;
strokeHeight = 100;
strokeWidth = 100;
};
closed = 0;
nodes = (
(303,318,l),
(188,336,o),
(100,435,o),
(100,555,cs),
(100,688,o),
(207,795,o),
(340,795,cs),
(484,795,o),
(600,674,o),
(600,435,cs),
(600,389,ls),
(600,155,o),
(493,50,o),
(361,50,cs),
(228,50,o),
(191,65,o),
(130,93,c)
);
}
);
width = 700;
}
);
unicode = 1508;
}
{
glyphname = "tsadiFinal-hb";
layers = (
{
anchors = (
{
name = bottom;
pos = (300,0);
},
{
name = bottomleft;
pos = (20,0);
},
{
name = center;
pos = (300,508);
},
{
name = top;
pos = (300,1015);
},
{
name = topleft;
pos = (20,1015);
}
);
layerId = m002;
shapes = (
{
attr = {
lineCapEnd = 1;
lineCapStart = 1;
strokeHeight = 100;
strokeWidth = 100;
};
closed = 0;
nodes = (
(300,-165,l),
(300,380,l)
);
},
{
attr = {
lineCapEnd = 1;
lineCapStart = 1;
strokeHeight = 100;
strokeWidth = 100;
};
closed = 0;
nodes = (
(300,380,l),
(410,380,o),
(500,470,o),
(500,580,cs),
(500,795,l)
);
},
{
attr = {
lineCapEnd = 1;
lineCapStart = 1;
strokeHeight = 100;
strokeWidth = 100;
};
closed = 0;
nodes = (
(300,380,l),
(100,795,l)
);
}
);
width = 600;
}
);
unicode = 1509;
}
{
glyphname = "tsadi-hb";
layers = (
{
anchors = (
{
name = bottom;
pos = (383,0);
},
{
name = bottomleft;
pos = (20,0);
},
{
name = center;
pos = (383,508);
},
{
name = top;
pos = (383,1015);
},
{
name = topleft;
pos = (20,1015);
}
);
layerId = m002;
shapes = (
{
attr = {
lineCapEnd = 1;
lineCapStart = 1;
strokeHeight = 100;
strokeWidth = 100;
};
closed = 0;
nodes = (
(630,50,l),
(230,785,l)
);
},
{
attr = {
lineCapEnd = 1;
lineCapStart = 1;
strokeHeight = 100;
strokeWidth = 100;
};
closed = 0;
nodes = (
(665,795,l),
(647,641,l),
(636,542,o),
(592,450,o),
(521,380,c),
(476,334,l)
);
},
{
attr = {
lineCapEnd = 1;
lineCapStart = 1;
strokeHeight = 100;
strokeWidth = 100;
};
closed = 0;
nodes = (
(100,50,l),
(630,50,l)
);
}
);
width = 765;
}
);
unicode = 1510;
}
{
glyphname = "qof-hb";
kernLeft = hebrewStraight;
layers = (
{
anchors = (
{
name = bottom;
pos = (355,0);
},
{
name = bottomleft;
pos = (20,0);
},
{
name = center;
pos = (355,508);
},
{
name = top;
pos = (355,1015);
},
{
name = topleft;
pos = (20,1015);
}
);
layerId = m002;
shapes = (
{
attr = {
lineCapEnd = 1;
lineCapStart = 1;
strokeHeight = 100;
strokeWidth = 100;
};
closed = 0;
nodes = (
(100,795,l),
(458,795,l),
(549,795,o),
(619,715,o),
(607,625,c),
(561,288,l),
(543,157,o),
(432,60,o),
(300,60,c)
);
},
{
attr = {
lineCapEnd = 1;
lineCapStart = 1;
strokeHeight = 100;
strokeWidth = 100;
};
closed = 0;
nodes = (
(100,480,l),
(100,-165,l)
);
}
);
width = 709;
}
);
unicode = 1511;
}
{
glyphname = "resh-hb";
kernRight = hebrewRounded;
layers = (
{
anchors = (
{
name = bottom;
pos = (378,0);
},
{
name = bottomleft;
pos = (98,0);
},
{
name = center;
pos = (378,508);
},
{
name = top;
pos = (378,1015);
},
{
name = topleft;
pos = (98,1015);
}
);
layerId = m002;
shapes = (
{
attr = {
lineCapEnd = 1;
lineCapStart = 1;
strokeHeight = 100;
strokeWidth = 100;
};
closed = 0;
nodes = (
(530,50,l),
(530,595,l),
(530,705,o),
(440,795,o),
(330,795,c),
(209,795,l),
(170,795,o),
(133,786,o),
(100,769,c)
);
}
);
width = 630;
}
);
unicode = 1512;
}
{
glyphname = "shin-hb";
layers = (
{
anchors = (
{
name = bottom;
pos = (465,0);
},
{
name = bottomleft;
pos = (20,0);
},
{
name = center;
pos = (465,508);
},
{
name = top;
pos = (465,1015);
},
{
name = topleft;
pos = (20,1015);
},
{
name = topright;
pos = (910,1015);
}
);
layerId = m002;
shapes = (
{
attr = {
lineCapEnd = 1;
lineCapStart = 1;
strokeHeight = 100;
strokeWidth = 100;
};
closed = 0;
nodes = (
(200,50,l),
(380,50,ls),
(580,50,o),
(750,198,o),
(777,397,cs),
(830,795,l)
);
},
{
attr = {
lineCapEnd = 1;
lineCapStart = 1;
strokeHeight = 100;
strokeWidth = 100;
};
closed = 0;
nodes = (
(164,315,l),
(217,315,ls),
(312,315,o),
(394,381,o),
(413,474,cs),
(480,795,l)
);
},
{
attr = {
lineCapEnd = 1;
lineCapStart = 1;
strokeHeight = 100;
strokeWidth = 100;
};
closed = 0;
nodes = (
(100,795,l),
(200,50,l)
);
}
);
width = 930;
}
);
unicode = 1513;
}
{
export = 0;
glyphname = "koKai-thai";
kernLeft = lowercaseRound;
kernRight = lowercaseRound;
layers = (
{
layerId = m002;
shapes = (
{
attr = {
lineCapEnd = 1;
lineCapStart = 1;
strokeHeight = 100;
strokeWidth = 100;
};
closed = 0;
nodes = (
(500,50,l),
(500,381,l),
(500,491,o),
(410,580,o),
(300,580,c),
(190,580,o),
(100,491,o),
(100,381,c)
);
},
{
attr = {
lineCapEnd = 1;
lineCapStart = 1;
strokeHeight = 100;
strokeWidth = 100;
};
closed = 0;
nodes = (
(180,330,l),
(180,50,l)
);
},
{
attr = {
lineCapEnd = 1;
lineCapStart = 1;
strokeHeight = 100;
strokeWidth = 100;
};
closed = 0;
nodes = (
(100,381,l),
(180,330,l)
);
}
);
width = 600;
}
);
metricLeft = "=50";
metricRight = "=50";
unicode = 3585;
}
{
export = 0;
glyphname = "khoKhuat-thai";
kernLeft = lowercaseRound;
kernRight = lowercaseRound;
layers = (
{
layerId = m002;
shapes = (
{
attr = {
lineCapEnd = 1;
lineCapStart = 1;
strokeHeight = 100;
strokeWidth = 100;
};
closed = 0;
nodes = (
(100,580,l),
(100,520,l)
);
},
{
attr = {
lineCapEnd = 1;
lineCapStart = 1;
strokeHeight = 100;
strokeWidth = 100;
};
closed = 0;
nodes = (
(140,250,l),
(140,316,o),
(181,373,o),
(215,410,cs),
(243,440,o),
(260,479,o),
(260,520,cs),
(260,580,l)
);
},
{
attr = {
lineCapEnd = 1;
lineCapStart = 1;
strokeHeight = 100;
strokeWidth = 100;
};
closed = 0;
nodes = (
(540,580,l),
(540,250,ls),
(540,140,o),
(450,50,o),
(340,50,cs),
(229,50,o),
(140,140,o),
(140,250,c)
);
},
{
attr = {
lineCapEnd = 1;
lineCapStart = 1;
strokeHeight = 100;
strokeWidth = 100;
};
closed = 0;
nodes = (
(260,580,l),
(100,580,l)
);
}
);
width = 640;
}
);
metricLeft = "=50";
metricRight = "=50";
unicode = 3587;
}
{
export = 0;
glyphname = "khoKhwai-thai";
kernLeft = lowercaseRound;
kernRight = lowercaseRound;
layers = (
{
layerId = m002;
shapes = (
{
attr = {
lineCapEnd = 1;
lineCapStart = 1;
strokeHeight = 100;
strokeWidth = 100;
};
closed = 0;
nodes = (
(500,50,l),
(500,390,ls),
(500,501,o),
(410,590,o),
(300,590,cs),
(189,590,o),
(100,501,o),
(100,390,cs),
(100,50,l)
);
},
{
attr = {
lineCapEnd = 1;
lineCapStart = 1;
strokeHeight = 100;
strokeWidth = 100;
};
closed = 0;
nodes = (
(300,310,l),
(189,310,o),
(100,221,o),
(100,110,c)
);
}
);
width = 600;
}
);
metricLeft = "=50";
metricRight = "=50";
unicode = 3588;
}
{
export = 0;
glyphname = "ngoNgu-thai";
layers = (
{
layerId = m002;
shapes = (
{
attr = {
lineCapEnd = 1;
lineCapStart = 1;
strokeHeight = 100;
strokeWidth = 100;
};
closed = 0;
nodes = (
(319,580,l),
(447,580,o),
(550,477,o),
(550,349,cs),
(550,282,ls),
(550,154,o),
(447,50,o),
(319,50,cs),
(249,50,l)
);
},
{
attr = {
lineCapEnd = 1;
lineCapStart = 1;
strokeHeight = 100;
strokeWidth = 100;
};
closed = 0;
nodes = (
(249,50,l),
(100,580,l)
);
}
);
width = 650;
}
);
metricLeft = "=50";
metricRight = "=50";
unicode = 3591;
}
{
export = 0;
glyphname = "choChan-thai";
layers = (
{
layerId = m002;
shapes = (
{
attr = {
lineCapEnd = 1;
lineCapStart = 1;
strokeHeight = 100;
strokeWidth = 100;
};
closed = 0;
nodes = (
(251,315,l),
(151,315,l)
);
},
{
attr = {
lineCapEnd = 1;
lineCapStart = 1;
strokeHeight = 100;
strokeWidth = 100;
};
closed = 0;
nodes = (
(100,539,l),
(150,565,o),
(212,580,o),
(280,580,cs),
(408,580,o),
(512,476,o),
(512,348,cs),
(512,282,ls),
(512,154,o),
(408,50,o),
(280,50,cs),
(251,50,l)
);
},
{
attr = {
lineCapEnd = 1;
lineCapStart = 1;
strokeHeight = 100;
strokeWidth = 100;
};
closed = 0;
nodes = (
(251,50,l),
(251,315,l)
);
}
);
width = 612;
}
);
metricLeft = "=50";
metricRight = "=50";
unicode = 3592;
}
{
export = 0;
glyphname = "choChing-thai";
layers = (
{
layerId = m002;
shapes = (
{
attr = {
lineCapEnd = 1;
lineCapStart = 1;
strokeHeight = 100;
strokeWidth = 100;
};
closed = 0;
nodes = (
(100,538,l),
(151,565,o),
(216,580,o),
(284,579,cs),
(410,578,o),
(511,473,o),
(511,347,cs),
(511,282,ls),
(511,154,o),
(407,50,o),
(279,50,cs),
(180,50,o),
(100,131,o),
(100,230,cs),
(100,315,l)
);
},
{
attr = {
lineCapEnd = 1;
lineCapStart = 1;
strokeHeight = 100;
strokeWidth = 100;
};
closed = 0;
nodes = (
(511,282,l),
(511,50,l)
);
}
);
width = 611;
}
);
metricLeft = "=50";
metricRight = "=50";
unicode = 3593;
}
{
export = 0;
glyphname = "choChang-thai";
layers = (
{
layerId = m002;
shapes = (
{
attr = {
lineCapEnd = 1;
lineCapStart = 1;
strokeHeight = 100;
strokeWidth = 100;
};
closed = 0;
nodes = (
(532,250,l),
(532,140,o),
(443,50,o),
(332,50,cs),
(222,50,o),
(133,140,o),
(133,250,cs),
(133,316,o),
(173,373,o),
(208,410,cs),
(235,439,o),
(252,479,o),
(252,520,c)
);
},
{
attr = {
lineCapEnd = 1;
lineCapStart = 1;
strokeHeight = 100;
strokeWidth = 100;
};
closed = 0;
nodes = (
(252,520,l),
(252,558,o),
(223,590,o),
(182,590,c)
);
},
{
attr = {
lineCapEnd = 1;
lineCapStart = 1;
strokeHeight = 100;
strokeWidth = 100;
};
closed = 0;
nodes = (
(182,590,l),
(144,590,o),
(125,590,o),
(100,573,c)
);
},
{
attr = {
lineCapEnd = 1;
lineCapStart = 1;
strokeHeight = 100;
strokeWidth = 100;
};
closed = 0;
nodes = (
(410,443,l),
(478,443,o),
(532,497,o),
(532,566,cs),
(532,580,l)
);
},
{
attr = {
lineCapEnd = 1;
lineCapStart = 1;
strokeHeight = 100;
strokeWidth = 100;
};
closed = 0;
nodes = (
(410,443,l),
(478,443,o),
(532,388,o),
(532,321,cs),
(532,250,l)
);
}
);
width = 632;
}
);
metricLeft = "=50";
metricRight = "=50";
unicode = 3594;
}
{
export = 0;
glyphname = "soSo-thai";
layers = (
{
layerId = m002;
shapes = (
{
attr = {
lineCapEnd = 1;
lineCapStart = 1;
strokeHeight = 100;
strokeWidth = 100;
};
closed = 0;
nodes = (
(433,443,l),
(501,443,o),
(556,498,o),
(556,566,cs),
(556,580,l)
);
},
{
attr = {
lineCapEnd = 1;
lineCapStart = 1;
strokeHeight = 100;
strokeWidth = 100;
};
closed = 0;
nodes = (
(276,580,l),
(276,541,o),
(234,509,o),
(172,509,cs),
(132,509,o),
(100,541,o),
(100,580,c)
);
},
{
attr = {
lineCapEnd = 1;
lineCapStart = 1;
strokeHeight = 100;
strokeWidth = 100;
};
closed = 0;
nodes = (
(433,443,l),
(501,443,o),
(556,389,o),
(556,321,cs),
(556,250,ls),
(556,140,o),
(466,50,o),
(356,50,cs),
(245,50,o),
(156,140,o),
(156,250,cs),
(156,316,o),
(197,373,o),
(231,410,cs),
(259,440,o),
(276,479,o),
(276,520,cs),
(276,580,l)
);
}
);
width = 656;
}
);
metricLeft = "=50";
metricRight = "=50";
unicode = 3595;
}
{
export = 0;
glyphname = "choChoe-thai";
layers = (
{
layerId = m002;
shapes = (
{
attr = {
lineCapEnd = 1;
lineCapStart = 1;
strokeHeight = 100;
strokeWidth = 100;
};
closed = 0;
nodes = (
(440,208,l),
(440,121,o),
(511,50,o),
(598,50,c),
(685,50,o),
(756,121,o),
(756,208,c),
(756,580,l)
);
},
{
attr = {
lineCapEnd = 1;
lineCapStart = 1;
strokeHeight = 100;
strokeWidth = 100;
};
closed = 0;
nodes = (
(223,54,l),
(199,51,l),
(147,43,o),
(100,84,o),
(100,136,c),
(100,232,l),
(100,311,o),
(160,362,o),
(234,362,c)
);
},
{
attr = {
lineCapEnd = 1;
lineCapStart = 1;
strokeHeight = 100;
strokeWidth = 100;
};
closed = 0;
nodes = (
(103,441,l),
(103,535,o),
(169,580,o),
(270,580,c),
(273,580,l),
(365,580,o),
(440,505,o),
(440,412,c),
(440,50,l)
);
},
{
attr = {
lineCapEnd = 1;
lineCapStart = 1;
strokeHeight = 100;
strokeWidth = 100;
};
closed = 0;
nodes = (
(234,362,l),
(103,441,l)
);
}
);
width = 856;
}
);
metricLeft = "=50";
metricRight = "=50";
unicode = 3596;
}
{
export = 0;
glyphname = "yoYing-thai";
layers = (
{
layerId = m002;
shapes = (
{
attr = {
lineCapEnd = 1;
lineCapStart = 1;
strokeHeight = 100;
strokeWidth = 100;
};
closed = 0;
nodes = (
(440,440,l),
(440,535,o),
(372,580,o),
(270,580,cs),
(168,580,o),
(100,535,o),
(100,440,c)
);
},
{
attr = {
lineCapEnd = 1;
lineCapStart = 1;
strokeHeight = 100;
strokeWidth = 100;
};
closed = 0;
nodes = (
(440,440,l),
(440,220,l)
);
},
{
attr = {
lineCapEnd = 1;
lineCapStart = 1;
strokeHeight = 100;
strokeWidth = 100;
};
closed = 0;
nodes = (
(100,440,l),
(250,350,l)
);
},
{
attr = {
lineCapEnd = 1;
lineCapStart = 1;
strokeHeight = 100;
strokeWidth = 100;
};
closed = 0;
nodes = (
(120,122,l),
(120,240,ls),
(120,301,o),
(169,350,o),
(230,350,cs),
(250,350,l)
);
},
{
attr = {
lineCapEnd = 1;
lineCapStart = 1;
strokeHeight = 100;
strokeWidth = 100;
};
closed = 0;
nodes = (
(120,122,l),
(120,82,o),
(152,50,o),
(192,50,cs),
(215,50,o),
(252,57,o),
(276,77,c)
);
},
{
attr = {
lineCapEnd = 1;
lineCapStart = 1;
strokeHeight = 100;
strokeWidth = 100;
};
closed = 0;
nodes = (
(440,220,l),
(440,126,o),
(516,50,o),
(610,50,cs),
(704,50,o),
(780,126,o),
(780,220,cs),
(780,580,l)
);
},
{
attr = {
lineCapEnd = 1;
lineCapStart = 1;
strokeHeight = 100;
strokeWidth = 100;
};
closed = 0;
nodes = (
(780,220,l),
(780,3,ls),
(780,-91,o),
(704,-167,o),
(610,-167,cs),
(563,-167,o),
(521,-148,o),
(490,-117,c)
);
},
{
attr = {
lineCapEnd = 1;
lineCapStart = 1;
strokeHeight = 100;
strokeWidth = 100;
};
closed = 0;
nodes = (
(440,415,l),
(440,220,l)
);
}
);
width = 880;
}
);
metricLeft = "=50";
metricRight = "=50";
unicode = 3597;
}
{
export = 0;
glyphname = "doChada-thai";
layers = (
{
layerId = m002;
shapes = (
{
attr = {
lineCapEnd = 1;
lineCapStart = 1;
strokeHeight = 100;
strokeWidth = 100;
};
closed = 0;
nodes = (
(223,232,l),
(223,312,o),
(282,363,o),
(357,363,c)
);
},
{
attr = {
lineCapEnd = 1;
lineCapStart = 1;
strokeHeight = 100;
strokeWidth = 100;
};
closed = 0;
nodes = (
(225,442,l),
(225,536,o),
(292,580,o),
(393,580,c),
(395,580,l),
(488,580,o),
(563,505,o),
(563,413,c),
(563,-165,l)
);
},
{
attr = {
lineCapEnd = 1;
lineCapStart = 1;
strokeHeight = 100;
strokeWidth = 100;
};
closed = 0;
nodes = (
(357,363,l),
(225,442,l)
);
},
{
attr = {
lineCapEnd = 1;
lineCapStart = 1;
strokeHeight = 100;
strokeWidth = 100;
};
closed = 0;
nodes = (
(100,55,l),
(124,51,l),
(176,44,o),
(223,84,o),
(223,136,c),
(223,232,l)
);
},
{
attr = {
lineCapEnd = 1;
lineCapStart = 1;
strokeHeight = 100;
strokeWidth = 100;
};
closed = 0;
nodes = (
(223,-165,l),
(223,-110,o),
(268,-65,o),
(323,-65,c),
(490,-65,o),
(563,-165,o),
(563,-165,c)
);
}
);
width = 663;
}
);
metricLeft = "=50";
metricRight = "=50";
unicode = 3598;
}
{
export = 0;
glyphname = "doDek-thai";
layers = (
{
layerId = m002;
shapes = (
{
attr = {
lineCapEnd = 1;
lineCapStart = 1;
strokeHeight = 100;
strokeWidth = 100;
};
closed = 0;
nodes = (
(500,395,l),
(500,50,l)
);
},
{
attr = {
lineCapEnd = 1;
lineCapStart = 1;
strokeHeight = 100;
strokeWidth = 100;
};
closed = 0;
nodes = (
(500,395,l),
(500,490,o),
(420,580,o),
(300,580,cs),
(180,580,o),
(100,490,o),
(100,395,c)
);
},
{
attr = {
lineCapEnd = 1;
lineCapStart = 1;
strokeHeight = 100;
strokeWidth = 100;
};
closed = 0;
nodes = (
(100,395,l),
(100,203,ls),
(100,133,o),
(150,50,o),
(253,50,cs),
(270,50,o),
(286,52,o),
(300,55,c)
);
}
);
width = 600;
}
);
metricLeft = "=50";
metricRight = "=50";
unicode = 3604;
}
{
export = 0;
glyphname = "toTao-thai";
layers = (
{
layerId = m002;
shapes = (
{
attr = {
lineCapEnd = 1;
lineCapStart = 1;
strokeHeight = 100;
strokeWidth = 100;
};
closed = 0;
nodes = (
(300,490,l),
(300,546,o),
(345,590,o),
(400,590,cs),
(455,590,o),
(500,546,o),
(500,490,cs),
(500,50,l)
);
},
{
attr = {
lineCapEnd = 1;
lineCapStart = 1;
strokeHeight = 100;
strokeWidth = 100;
};
closed = 0;
nodes = (
(300,490,l),
(300,546,o),
(255,590,o),
(200,590,cs),
(145,590,o),
(100,546,o),
(100,490,cs),
(100,380,l),
(100,203,ls),
(100,133,o),
(150,50,o),
(253,50,cs),
(270,50,o),
(286,52,o),
(300,55,c)
);
}
);
width = 600;
}
);
metricLeft = "=50";
metricRight = "=50";
unicode = 3605;
}
{
export = 0;
glyphname = "thoThung-thai";
layers = (
{
layerId = m002;
shapes = (
{
attr = {
lineCapEnd = 1;
lineCapStart = 1;
strokeHeight = 100;
strokeWidth = 100;
};
closed = 0;
nodes = (
(500,440,l),
(500,535,o),
(420,580,o),
(300,580,cs),
(180,580,o),
(100,535,o),
(100,440,c)
);
},
{
attr = {
lineCapEnd = 1;
lineCapStart = 1;
strokeHeight = 100;
strokeWidth = 100;
};
closed = 0;
nodes = (
(500,440,l),
(500,50,l)
);
},
{
attr = {
lineCapEnd = 1;
lineCapStart = 1;
strokeHeight = 100;
strokeWidth = 100;
};
closed = 0;
nodes = (
(100,440,l),
(250,350,l)
);
},
{
attr = {
lineCapEnd = 1;
lineCapStart = 1;
strokeHeight = 100;
strokeWidth = 100;
};
closed = 0;
nodes = (
(120,122,l),
(120,240,ls),
(120,301,o),
(169,350,o),
(230,350,cs),
(250,350,l)
);
},
{
attr = {
lineCapEnd = 1;
lineCapStart = 1;
strokeHeight = 100;
strokeWidth = 100;
};
closed = 0;
nodes = (
(120,122,l),
(120,82,o),
(152,50,o),
(192,50,cs),
(215,50,o),
(236,58,o),
(256,77,c)
);
}
);
width = 600;
}
);
metricLeft = "=50";
metricRight = "=50";
unicode = 3606;
}
{
export = 0;
glyphname = "thoThong-thai";
layers = (
{
layerId = m002;
shapes = (
{
attr = {
lineCapEnd = 1;
lineCapStart = 1;
strokeHeight = 100;
strokeWidth = 100;
};
closed = 0;
nodes = (
(113,95,l),
(149,64,o),
(188,50,o),
(277,50,cs),
(322,50,ls),
(395,50,o),
(454,110,o),
(454,183,cs),
(454,256,o),
(395,315,o),
(322,315,cs),
(232,315,ls),
(159,315,o),
(100,375,o),
(100,448,cs),
(100,521,o),
(159,580,o),
(232,580,cs),
(277,580,ls),
(366,580,o),
(405,566,o),
(442,536,c)
);
},
{
attr = {
lineCapEnd = 1;
lineCapStart = 1;
strokeHeight = 100;
strokeWidth = 100;
};
closed = 0;
nodes = (
(113,195,l),
(113,95,l)
);
}
);
width = 554;
}
);
metricLeft = "=50";
metricRight = "=50";
unicode = 3608;
}
{
export = 0;
glyphname = "boBaimai-thai";
layers = (
{
layerId = m002;
shapes = (
{
attr = {
lineCapEnd = 1;
lineCapStart = 1;
strokeHeight = 100;
strokeWidth = 100;
};
closed = 0;
nodes = (
(100,580,l),
(100,250,ls),
(100,140,o),
(189,50,o),
(300,50,cs),
(410,50,o),
(500,140,o),
(500,250,cs),
(500,580,l)
);
}
);
width = 600;
}
);
metricLeft = "=50";
metricRight = "=50";
unicode = 3610;
}
{
export = 0;
glyphname = "poPla-thai";
layers = (
{
layerId = m002;
shapes = (
{
attr = {
lineCapEnd = 1;
lineCapStart = 1;
strokeHeight = 100;
strokeWidth = 100;
};
closed = 0;
nodes = (
(500,795,l),
(500,250,ls),
(500,140,o),
(410,50,o),
(300,50,cs),
(189,50,o),
(100,140,o),
(100,250,cs),
(100,580,l)
);
}
);
width = 600;
}
);
metricLeft = "=50";
metricRight = "=50";
unicode = 3611;
}
{
export = 0;
glyphname = "foFa-thai";
layers = (
{
layerId = m002;
shapes = (
{
attr = {
lineCapEnd = 1;
lineCapStart = 1;
strokeHeight = 100;
strokeWidth = 100;
};
closed = 0;
nodes = (
(530,50,l),
(315,367,l)
);
},
{
attr = {
lineCapEnd = 1;
lineCapStart = 1;
strokeHeight = 100;
strokeWidth = 100;
};
closed = 0;
nodes = (
(100,51,l),
(100,509,ls),
(100,546,o),
(127,590,o),
(182,590,cs),
(200,590,o),
(215,587,o),
(228,580,c)
);
},
{
attr = {
lineCapEnd = 1;
lineCapStart = 1;
strokeHeight = 100;
strokeWidth = 100;
};
closed = 0;
nodes = (
(315,367,l),
(100,51,l)
);
},
{
attr = {
lineCapEnd = 1;
lineCapStart = 1;
strokeHeight = 100;
strokeWidth = 100;
};
closed = 0;
nodes = (
(530,795,l),
(530,50,l)
);
}
);
width = 630;
}
);
metricLeft = "=50";
metricRight = "=50";
unicode = 3613;
}
{
export = 0;
glyphname = "phoPhan-thai";
layers = (
{
layerId = m002;
shapes = (
{
attr = {
lineCapEnd = 1;
lineCapStart = 1;
strokeHeight = 100;
strokeWidth = 100;
};
closed = 0;
nodes = (
(233,50,l),
(100,580,l)
);
},
{
attr = {
lineCapEnd = 1;
lineCapStart = 1;
strokeHeight = 100;
strokeWidth = 100;
};
closed = 0;
nodes = (
(498,50,l),
(365,580,l)
);
},
{
attr = {
lineCapEnd = 1;
lineCapStart = 1;
strokeHeight = 100;
strokeWidth = 100;
};
closed = 0;
nodes = (
(365,580,l),
(233,50,l)
);
},
{
attr = {
lineCapEnd = 1;
lineCapStart = 1;
strokeHeight = 100;
strokeWidth = 100;
};
closed = 0;
nodes = (
(630,580,l),
(498,50,l)
);
}
);
width = 730;
}
);
metricLeft = "=50";
metricRight = "=50";
unicode = 3614;
}
{
export = 0;
glyphname = "foFan-thai";
layers = (
{
layerId = m002;
shapes = (
{
attr = {
lineCapEnd = 1;
lineCapStart = 1;
strokeHeight = 100;
strokeWidth = 100;
};
closed = 0;
nodes = (
(233,50,l),
(100,580,l)
);
},
{
attr = {
lineCapEnd = 1;
lineCapStart = 1;
strokeHeight = 100;
strokeWidth = 100;
};
closed = 0;
nodes = (
(498,50,l),
(365,580,l)
);
},
{
attr = {
lineCapEnd = 1;
lineCapStart = 1;
strokeHeight = 100;
strokeWidth = 100;
};
closed = 0;
nodes = (
(365,580,l),
(233,50,l)
);
},
{
attr = {
lineCapEnd = 1;
lineCapStart = 1;
strokeHeight = 100;
strokeWidth = 100;
};
closed = 0;
nodes = (
(683,795,l),
(498,50,l)
);
}
);
width = 783;
}
);
metricLeft = "=50";
metricRight = "=50";
unicode = 3615;
}
{
export = 0;
glyphname = "soSua-thai";
layers = (
{
layerId = m002;
shapes = (
{
attr = {
lineCapEnd = 1;
lineCapStart = 1;
strokeHeight = 100;
strokeWidth = 100;
};
closed = 0;
nodes = (
(317,66,l),
(288,50,o),
(249,50,o),
(231,50,c),
(159,50,o),
(100,110,o),
(100,183,c),
(100,256,o),
(159,315,o),
(231,315,c),
(500,315,l)
);
},
{
attr = {
lineCapEnd = 1;
lineCapStart = 1;
strokeHeight = 100;
strokeWidth = 100;
};
closed = 0;
nodes = (
(150,528,l),
(198,576,o),
(232,580,o),
(325,580,c),
(430,580,o),
(500,534,o),
(500,408,c),
(500,50,l)
);
},
{
attr = {
lineCapEnd = 1;
lineCapStart = 1;
strokeHeight = 100;
strokeWidth = 100;
};
closed = 0;
nodes = (
(571,605,l),
(571,550,o),
(525,520,o),
(471,520,c)
);
}
);
width = 671;
}
);
metricLeft = "=50";
metricRight = "=50";
unicode = 3626;
}
{
export = 0;
glyphname = "hoHip-thai";
layers = (
{
layerId = m002;
shapes = (
{
attr = {
lineCapEnd = 1;
lineCapStart = 1;
strokeHeight = 100;
strokeWidth = 100;
};
closed = 0;
nodes = (
(100,580,l),
(100,50,l)
);
},
{
attr = {
lineCapEnd = 1;
lineCapStart = 1;
strokeHeight = 100;
strokeWidth = 100;
};
closed = 0;
nodes = (
(415,580,l),
(101,280,l)
);
},
{
attr = {
lineCapEnd = 1;
lineCapStart = 1;
strokeHeight = 100;
strokeWidth = 100;
};
closed = 0;
nodes = (
(210,384,l),
(314,384,ls),
(385,384,o),
(444,326,o),
(444,254,cs),
(444,50,l)
);
}
);
width = 544;
}
);
metricLeft = "=50";
metricRight = "=50";
unicode = 3627;
}
{
export = 0;
glyphname = "oAng-thai";
layers = (
{
layerId = m002;
shapes = (
{
attr = {
lineCapEnd = 1;
lineCapStart = 1;
strokeHeight = 100;
strokeWidth = 100;
};
closed = 0;
nodes = (
(100,235,l),
(100,315,l)
);
},
{
attr = {
lineCapEnd = 1;
lineCapStart = 1;
strokeHeight = 100;
strokeWidth = 100;
};
closed = 0;
nodes = (
(100,315,l),
(240,315,l)
);
},
{
attr = {
lineCapEnd = 1;
lineCapStart = 1;
strokeHeight = 100;
strokeWidth = 100;
};
closed = 0;
nodes = (
(300,580,l),
(420,580,o),
(500,490,o),
(500,395,c),
(500,235,l),
(500,140,o),
(420,50,o),
(300,50,c),
(180,50,o),
(100,140,o),
(100,235,c)
);
},
{
attr = {
lineCapEnd = 1;
lineCapStart = 1;
strokeHeight = 100;
strokeWidth = 100;
};
closed = 0;
nodes = (
(105,530,l),
(153,564,o),
(220,580,o),
(300,580,c)
);
}
);
width = 600;
}
);
metricLeft = "=50";
metricRight = "=50";
unicode = 3629;
}
{
export = 0;
glyphname = "hoNokhuk-thai";
layers = (
{
layerId = m002;
shapes = (
{
attr = {
lineCapEnd = 1;
lineCapStart = 1;
strokeHeight = 100;
strokeWidth = 100;
};
closed = 0;
nodes = (
(100,235,l),
(100,315,l)
);
},
{
attr = {
lineCapEnd = 1;
lineCapStart = 1;
strokeHeight = 100;
strokeWidth = 100;
};
closed = 0;
nodes = (
(100,315,l),
(240,315,l)
);
},
{
attr = {
lineCapEnd = 1;
lineCapStart = 1;
strokeHeight = 100;
strokeWidth = 100;
};
closed = 0;
nodes = (
(300,580,l),
(421,580,o),
(500,490,o),
(500,395,cs),
(500,235,ls),
(500,140,o),
(421,50,o),
(300,50,cs),
(180,50,o),
(100,140,o),
(100,235,c)
);
},
{
attr = {
lineCapEnd = 1;
lineCapStart = 1;
strokeHeight = 100;
strokeWidth = 100;
};
closed = 0;
nodes = (
(106,530,l),
(154,564,o),
(221,580,o),
(300,580,c)
);
},
{
attr = {
lineCapEnd = 1;
lineCapStart = 1;
strokeHeight = 100;
strokeWidth = 100;
};
closed = 0;
nodes = (
(543,618,l),
(543,562,o),
(494,531,o),
(437,531,c)
);
}
);
width = 643;
}
);
metricLeft = "=50";
metricRight = "=50";
unicode = 3630;
}
{
export = 0;
glyphname = "saraA-thai";
layers = (
{
layerId = m002;
shapes = (
{
attr = {
lineCapEnd = 1;
lineCapStart = 1;
strokeHeight = 100;
strokeWidth = 100;
};
closed = 0;
nodes = (
(300,430,l),
(164,430,l),
(135,430,o),
(100,451,o),
(100,494,c),
(100,508,o),
(103,520,o),
(108,530,c)
);
},
{
attr = {
lineCapEnd = 1;
lineCapStart = 1;
strokeHeight = 100;
strokeWidth = 100;
};
closed = 0;
nodes = (
(300,150,l),
(164,150,l),
(135,150,o),
(100,171,o),
(100,214,c),
(100,228,o),
(103,240,o),
(108,250,c)
);
}
);
width = 400;
}
);
metricLeft = "=50";
metricRight = "=50";
unicode = 3632;
}
{
export = 0;
glyphname = "saraAa-thai";
layers = (
{
layerId = m002;
shapes = (
{
attr = {
lineCapEnd = 1;
lineCapStart = 1;
strokeHeight = 100;
strokeWidth = 100;
};
closed = 0;
nodes = (
(100,549,l),
(130,570,o),
(170,580,o),
(219,580,cs),
(322,580,o),
(390,510,o),
(390,416,cs),
(390,50,l)
);
}
);
width = 490;
}
);
metricLeft = "=50";
metricRight = "=50";
unicode = 3634;
}
{
export = 0;
glyphname = "saraAm-thai";
layers = (
{
anchors = (
{
name = bottom;
pos = (180,630);
},
{
name = top;
pos = (180,900);
}
);
layerId = m002;
shapes = (
{
attr = {
strokeHeight = 100;
strokeWidth = 100;
};
closed = 1;
nodes = (
(223,689,o),
(260,725,o),
(260,769,cs),
(260,813,o),
(223,849,o),
(180,849,cs),
(136,849,o),
(100,813,o),
(100,769,cs),
(100,725,o),
(136,689,o),
(180,689,cs)
);
},
{
attr = {
lineCapEnd = 1;
lineCapStart = 1;
strokeHeight = 100;
strokeWidth = 100;
};
closed = 0;
nodes = (
(407,549,l),
(437,570,o),
(477,580,o),
(526,580,cs),
(629,580,o),
(697,510,o),
(697,416,cs),
(697,50,l)
);
}
);
width = 797;
}
);
metricLeft = "=50";
metricRight = "=50";
unicode = 3635;
}
{
glyphname = baht;
layers = (
{
layerId = m002;
shapes = (
{
attr = {
lineCapEnd = 1;
lineCapStart = 1;
strokeHeight = 100;
strokeWidth = 100;
};
closed = 0;
nodes = (
(315,-50,l),
(315,950,l)
);
},
{
ref = B;
}
);
width = 730;
}
);
unicode = 3647;
}
{
export = 0;
glyphname = "saraAiMaimuan-thai";
layers = (
{
layerId = m002;
shapes = (
{
attr = {
lineCapEnd = 1;
lineCapStart = 1;
strokeHeight = 100;
strokeWidth = 100;
};
closed = 0;
nodes = (
(172,500,l),
(172,132,ls),
(172,94,o),
(198,50,o),
(253,50,cs),
(271,50,o),
(287,54,o),
(299,60,c)
);
},
{
attr = {
lineCapEnd = 1;
lineCapStart = 1;
strokeHeight = 100;
strokeWidth = 100;
};
closed = 0;
nodes = (
(100,831,l),
(118,844,o),
(144,850,o),
(174,850,cs),
(238,850,o),
(280,807,o),
(280,748,cs),
(280,656,o),
(172,605,o),
(172,500,c)
);
}
);
width = 399;
}
);
metricLeft = "=50";
metricRight = "=50";
unicode = 3651;
}
{
export = 0;
glyphname = "saraAiMaimalai-thai";
layers = (
{
layerId = m002;
shapes = (
{
attr = {
lineCapEnd = 1;
lineCapStart = 1;
strokeHeight = 100;
strokeWidth = 100;
};
closed = 0;
nodes = (
(240,665,l),
(240,132,l),
(240,94,o),
(267,50,o),
(321,50,c),
(340,50,o),
(355,54,o),
(368,60,c)
);
},
{
attr = {
lineCapEnd = 1;
lineCapStart = 1;
strokeHeight = 100;
strokeWidth = 100;
};
closed = 0;
nodes = (
(240,665,l),
(240,737,o),
(298,795,o),
(370,795,c)
);
},
{
attr = {
lineCapEnd = 1;
lineCapStart = 1;
strokeHeight = 100;
strokeWidth = 100;
};
closed = 0;
nodes = (
(100,795,l),
(370,795,l)
);
}
);
width = 470;
}
);
metricLeft = "=50";
metricRight = "=50";
unicode = 3652;
}
{
export = 0;
glyphname = "lakkhangyao-thai";
layers = (
{
layerId = m002;
shapes = (
{
attr = {
lineCapEnd = 1;
lineCapStart = 1;
strokeHeight = 100;
strokeWidth = 100;
};
closed = 0;
nodes = (
(100,764,l),
(130,785,o),
(171,795,o),
(219,795,cs),
(322,795,o),
(390,725,o),
(390,630,cs),
(390,50,l)
);
}
);
width = 490;
}
);
metricLeft = "=50";
metricRight = "=50";
unicode = 3653;
}
{
glyphname = Germandbls;
layers = (
{
anchors = (
{
name = bottom;
pos = (390,0);
},
{
name = top;
pos = (390,900);
}
);
layerId = m002;
shapes = (
{
attr = {
lineCapEnd = 1;
lineCapStart = 1;
strokeHeight = 100;
strokeWidth = 100;
};
closed = 0;
nodes = (
(100,850,l),
(630,850,l)
);
},
{
attr = {
lineCapEnd = 1;
lineCapStart = 1;
strokeHeight = 100;
strokeWidth = 100;
};
closed = 0;
nodes = (
(415,580,l),
(561,580,o),
(680,461,o),
(680,315,cs),
(680,169,o),
(561,50,o),
(415,50,cs),
(379,50,o),
(344,57,o),
(313,70,c)
);
},
{
attr = {
lineCapEnd = 1;
lineCapStart = 1;
strokeHeight = 100;
strokeWidth = 100;
};
closed = 0;
nodes = (
(630,850,l),
(415,580,l)
);
},
{
attr = {
lineCapEnd = 1;
lineCapStart = 1;
strokeHeight = 100;
strokeWidth = 100;
};
closed = 0;
nodes = (
(100,50,l),
(100,850,l)
);
}
);
width = 780;
}
);
unicode = 7838;
}
{
glyphname = ydotbelow;
kernLeft = u;
kernRight = lowercaseStraight;
layers = (
{
anchors = (
{
name = bottom;
pos = (300,-220);
},
{
name = top;
pos = (300,630);
}
);
layerId = m002;
shapes = (
{
attr = {
identifier = ID0x131ec7000;
lineCapEnd = 1;
lineCapStart = 1;
strokeHeight = 100;
strokeWidth = 100;
};
closed = 0;
nodes = (
(500,250,l),
(500,140,o),
(410,50,o),
(300,50,cs),
(189,50,o),
(100,140,o),
(100,250,cs),
(100,580,l)
);
},
{
attr = {
identifier = ID0x131ec7000;
lineCapEnd = 1;
lineCapStart = 1;
strokeHeight = 100;
strokeWidth = 100;
};
closed = 0;
nodes = (
(500,580,l),
(500,-20,ls),
(500,-130,o),
(410,-220,o),
(300,-220,cs),
(276,-220,o),
(252,-215,o),
(231,-208,cs)
);
},
{
alignment = -1;
pos = (20,120);
ref = dotbelowcomb;
}
);
width = 600;
}
);
metricLeft = y;
metricRight = dot;
unicode = 7925;
}
{
glyphname = endash;
kernLeft = dash;
kernRight = dash;
layers = (
{
layerId = m002;
shapes = (
{
attr = {
lineCapEnd = "1";
lineCapStart = "1";
strokeHeight = 100;
strokeWidth = 100;
};
closed = 0;
nodes = (
(100,315,l),
(600,315,l)
);
}
);
width = 700;
}
);
unicode = 8211;
}
{
glyphname = dagger;
layers = (
{
layerId = m002;
shapes = (
{
attr = {
lineCapEnd = "1";
lineCapStart = "1";
strokeHeight = 100;
strokeWidth = 100;
};
closed = 0;
nodes = (
(350,850,l),
(350,-165,l)
);
},
{
attr = {
lineCapEnd = "1";
lineCapStart = "1";
strokeHeight = 100;
strokeWidth = 100;
};
closed = 0;
nodes = (
(100,580,l),
(600,580,l)
);
}
);
width = 700;
}
);
unicode = 8224;
}
{
glyphname = perthousand;
layers = (
{
layerId = m002;
shapes = (
{
attr = {
strokeHeight = 100;
strokeWidth = 100;
};
closed = 1;
nodes = (
(100,617,o),
(167,550,o),
(250,550,c),
(333,550,o),
(400,617,o),
(400,700,c),
(400,783,o),
(333,850,o),
(250,850,c),
(167,850,o),
(100,783,o),
(100,700,c)
);
},
{
attr = {
strokeHeight = 100;
strokeWidth = 100;
};
closed = 1;
nodes = (
(500,117,o),
(567,50,o),
(650,50,c),
(733,50,o),
(800,117,o),
(800,200,c),
(800,283,o),
(733,350,o),
(650,350,c),
(567,350,o),
(500,283,o),
(500,200,c)
);
},
{
attr = {
lineCapEnd = "1";
lineCapStart = "1";
strokeHeight = 100;
strokeWidth = 100;
};
closed = 0;
nodes = (
(190,50,l),
(710,850,l)
);
},
{
attr = {
strokeHeight = 100;
strokeWidth = 100;
};
closed = 1;
nodes = (
(960,117,o),
(1027,50,o),
(1110,50,c),
(1193,50,o),
(1260,117,o),
(1260,200,c),
(1260,283,o),
(1193,350,o),
(1110,350,c),
(1027,350,o),
(960,283,o),
(960,200,c)
);
}
);
width = 1360;
}
);
unicode = 8240;
}
{
glyphname = guilsinglright;
layers = (
{
layerId = m002;
shapes = (
{
attr = {
lineCapEnd = "1";
lineCapStart = "1";
strokeHeight = 100;
strokeWidth = 100;
};
closed = 0;
nodes = (
(340,315,l),
(100,580,l)
);
},
{
attr = {
lineCapEnd = "1";
lineCapStart = "1";
strokeHeight = 100;
strokeWidth = 100;
};
closed = 0;
nodes = (
(100,50,l),
(340,315,l)
);
}
);
width = 440;
}
);
unicode = 8250;
}
{
glyphname = asterism;
kernRight = dot;
layers = (
{
layerId = m002;
shapes = (
{
attr = {
lineCapEnd = 1;
lineCapStart = 1;
strokeWidth = 100;
};
closed = 0;
nodes = (
(471,503,l),
(471,850,l)
);
},
{
attr = {
lineCapEnd = 1;
lineCapStart = 1;
strokeWidth = 100;
};
closed = 0;
nodes = (
(622,589,l),
(321,763,l)
);
},
{
attr = {
lineCapEnd = 1;
lineCapStart = 1;
strokeWidth = 100;
};
closed = 0;
nodes = (
(321,589,l),
(622,763,l)
);
},
{
attr = {
lineCapEnd = 1;
lineCapStart = 1;
strokeWidth = 100;
};
closed = 0;
nodes = (
(732,50,l),
(732,397,l)
);
},
{
attr = {
lineCapEnd = 1;
lineCapStart = 1;
strokeWidth = 100;
};
closed = 0;
nodes = (
(882,137,l),
(581,310,l)
);
},
{
attr = {
lineCapEnd = 1;
lineCapStart = 1;
strokeWidth = 100;
};
closed = 0;
nodes = (
(581,137,l),
(882,310,l)
);
},
{
attr = {
lineCapEnd = 1;
lineCapStart = 1;
strokeWidth = 100;
};
closed = 0;
nodes = (
(211,50,l),
(211,397,l)
);
},
{
attr = {
lineCapEnd = 1;
lineCapStart = 1;
strokeWidth = 100;
};
closed = 0;
nodes = (
(361,137,l),
(60,310,l)
);
},
{
attr = {
lineCapEnd = 1;
lineCapStart = 1;
strokeWidth = 100;
};
closed = 0;
nodes = (
(60,137,l),
(361,310,l)
);
}
);
width = 942;
}
);
unicode = 8258;
}
{
glyphname = fraction;
layers = (
{
layerId = m002;
shapes = (
{
attr = {
lineCapEnd = "1";
lineCapStart = "1";
strokeHeight = 100;
strokeWidth = 100;
};
closed = 0;
nodes = (
(100,50,l),
(680,850,l)
);
}
);
width = 900;
}
);
unicode = 8260;
}
{
glyphname = zerosuperior;
layers = (
{
layerId = m002;
shapes = (
{
attr = {
identifier = ID0x15af739a0;
strokeHeight = 100;
strokeWidth = 100;
};
closed = 1;
nodes = (
(365,610,o),
(305,550,o),
(232,550,cs),
(159,550,o),
(100,610,o),
(100,683,cs),
(100,818,ls),
(100,891,o),
(159,950,o),
(232,950,cs),
(305,950,o),
(365,891,o),
(365,818,cs),
(365,683,ls)
);
}
);
width = 465;
}
);
metricLeft = zero;
metricRight = zero;
unicode = 8304;
}
{
glyphname = foursuperior;
layers = (
{
layerId = m002;
shapes = (
{
attr = {
identifier = ID0x15af7ed90;
lineCapEnd = 1;
lineCapStart = 1;
strokeHeight = 100;
strokeWidth = 100;
};
closed = 0;
nodes = (
(314,950,l),
(100,682,l)
);
},
{
attr = {
identifier = ID0x15af7ed90;
lineCapEnd = 1;
lineCapStart = 1;
strokeHeight = 100;
strokeWidth = 100;
};
closed = 0;
nodes = (
(100,682,l),
(365,682,l)
);
},
{
attr = {
identifier = ID0x15af7ed90;
lineCapEnd = 1;
lineCapStart = 1;
strokeHeight = 100;
strokeWidth = 100;
};
closed = 0;
nodes = (
(314,550,l),
(314,950,l)
);
}
);
width = 455;
}
);
metricLeft = four;
metricRight = four;
unicode = 8308;
}
{
glyphname = fivesuperior;
layers = (
{
layerId = m002;
shapes = (
{
attr = {
identifier = ID0x15af7f220;
lineCapEnd = 1;
lineCapStart = 1;
strokeHeight = 100;
strokeWidth = 100;
};
closed = 0;
nodes = (
(100,584,l),
(128,561,o),
(154,550,o),
(221,550,c),
(232,550,l),
(295,550,o),
(345,601,o),
(345,663,c),
(345,725,o),
(295,775,o),
(232,775,c),
(100,775,l)
);
},
{
attr = {
identifier = ID0x15af7f220;
lineCapEnd = 1;
lineCapStart = 1;
strokeHeight = 100;
strokeWidth = 100;
};
closed = 0;
nodes = (
(100,950,l),
(345,950,l)
);
},
{
attr = {
identifier = ID0x15af7f220;
lineCapEnd = 1;
lineCapStart = 1;
strokeHeight = 100;
strokeWidth = 100;
};
closed = 0;
nodes = (
(100,775,l),
(100,950,l)
);
}
);
width = 445;
}
);
metricLeft = five;
metricRight = five;
unicode = 8309;
}
{
glyphname = sevensuperior;
layers = (
{
layerId = m002;
shapes = (
{
attr = {
identifier = ID0x15af809e0;
lineCapEnd = 1;
lineCapStart = 1;
strokeHeight = 100;
strokeWidth = 100;
};
closed = 0;
nodes = (
(365,950,l),
(100,950,l)
);
},
{
attr = {
identifier = ID0x15af809e0;
lineCapEnd = 1;
lineCapStart = 1;
strokeHeight = 100;
strokeWidth = 100;
};
closed = 0;
nodes = (
(150,550,l),
(365,950,l)
);
}
);
width = 445;
}
);
metricLeft = seven;
metricRight = seven;
unicode = 8311;
}
{
glyphname = eightsuperior;
layers = (
{
layerId = m002;
shapes = (
{
attr = {
identifier = ID0x15af80e70;
lineCapEnd = 1;
lineCapStart = 1;
strokeHeight = 100;
strokeWidth = 100;
};
closed = 0;
nodes = (
(265,750,l),
(320,750,o),
(365,705,o),
(365,650,cs),
(365,595,o),
(320,550,o),
(265,550,cs),
(200,550,ls),
(145,550,o),
(100,595,o),
(100,650,cs),
(100,705,o),
(145,750,o),
(200,750,c)
);
},
{
attr = {
identifier = ID0x15af80e70;
lineCapEnd = 1;
lineCapStart = 1;
strokeHeight = 100;
strokeWidth = 100;
};
closed = 0;
nodes = (
(200,750,l),
(145,750,o),
(100,795,o),
(100,850,cs),
(100,905,o),
(145,950,o),
(200,950,cs),
(265,950,ls),
(320,950,o),
(365,905,o),
(365,850,cs),
(365,795,o),
(320,750,o),
(265,750,c)
);
},
{
attr = {
identifier = ID0x15af80e70;
lineCapEnd = 1;
lineCapStart = 1;
strokeHeight = 100;
strokeWidth = 100;
};
closed = 0;
nodes = (
(200,750,l),
(265,750,l)
);
}
);
width = 465;
}
);
metricLeft = eight;
metricRight = eight;
unicode = 8312;
}
{
glyphname = ninesuperior;
layers = (
{
layerId = m002;
shapes = (
{
attr = {
identifier = ID0x15af81300;
strokeHeight = 100;
strokeWidth = 100;
};
closed = 1;
nodes = (
(100,891,o),
(159,950,o),
(232,950,cs),
(306,950,o),
(365,891,o),
(365,818,cs),
(365,745,o),
(306,685,o),
(232,685,cs),
(159,685,o),
(100,745,o),
(100,818,cs)
);
},
{
attr = {
identifier = ID0x15af81300;
lineCapEnd = 1;
lineCapStart = 1;
strokeHeight = 100;
strokeWidth = 100;
};
closed = 0;
nodes = (
(112,599,l),
(134,570,o),
(167,550,o),
(223,550,cs),
(232,550,ls),
(306,550,o),
(365,610,o),
(365,683,cs),
(365,818,l)
);
}
);
width = 465;
}
);
metricLeft = nine;
metricRight = nine;
unicode = 8313;
}
{
glyphname = zeroinferior;
layers = (
{
layerId = m002;
shapes = (
{
attr = {
identifier = ID0x15af81790;
strokeHeight = 100;
strokeWidth = 100;
};
closed = 1;
nodes = (
(365,10,o),
(305,-50,o),
(232,-50,c),
(159,-50,o),
(100,10,o),
(100,83,c),
(100,218,l),
(100,291,o),
(159,350,o),
(232,350,c),
(305,350,o),
(365,291,o),
(365,218,c),
(365,83,l)
);
}
);
width = 465;
}
);
metricLeft = zero;
metricRight = zero;
unicode = 8320;
}
{
glyphname = oneinferior;
layers = (
{
layerId = m002;
shapes = (
{
attr = {
identifier = ID0x15af81c20;
lineCapEnd = 1;
lineCapStart = 1;
strokeHeight = 100;
strokeWidth = 100;
};
closed = 0;
nodes = (
(200,350,l),
(200,-50,l)
);
},
{
attr = {
identifier = ID0x15af81c20;
lineCapEnd = 1;
lineCapStart = 1;
strokeHeight = 100;
strokeWidth = 100;
};
closed = 0;
nodes = (
(100,296,l),
(200,350,l)
);
}
);
width = 300;
}
);
metricLeft = one;
metricRight = one;
unicode = 8321;
}
{
glyphname = twoinferior;
layers = (
{
layerId = m002;
shapes = (
{
attr = {
identifier = ID0x15af82350;
lineCapEnd = 1;
lineCapStart = 1;
strokeHeight = 100;
strokeWidth = 100;
};
closed = 0;
nodes = (
(100,-50,l),
(100,-50,o),
(273,77,o),
(326,124,cs),
(352,146,o),
(365,181,o),
(365,218,cs),
(365,291,o),
(306,350,o),
(232,350,cs),
(159,350,o),
(100,291,o),
(100,218,c)
);
},
{
attr = {
identifier = ID0x15af82350;
lineCapEnd = 1;
lineCapStart = 1;
strokeHeight = 100;
strokeWidth = 100;
};
closed = 0;
nodes = (
(365,-50,l),
(100,-50,l)
);
},
{
attr = {
identifier = ID0x15af82350;
lineCapEnd = 1;
lineCapStart = 1;
strokeHeight = 100;
strokeWidth = 100;
};
closed = 1;
nodes = (
);
}
);
width = 465;
}
);
metricLeft = two;
metricRight = two;
unicode = 8322;
}
{
glyphname = threeinferior;
layers = (
{
layerId = m002;
shapes = (
{
attr = {
identifier = ID0x15af827e0;
lineCapEnd = 1;
lineCapStart = 1;
strokeHeight = 100;
strokeWidth = 100;
};
closed = 0;
nodes = (
(100,317,l),
(128,340,o),
(158,350,o),
(225,350,c),
(240,350,l),
(296,350,o),
(340,305,o),
(340,250,c),
(340,195,o),
(296,150,o),
(240,150,c)
);
},
{
attr = {
identifier = ID0x15af827e0;
lineCapEnd = 1;
lineCapStart = 1;
strokeHeight = 100;
strokeWidth = 100;
};
closed = 0;
nodes = (
(100,-16,l),
(128,-39,o),
(158,-50,o),
(225,-50,c),
(240,-50,l),
(296,-50,o),
(340,-5,o),
(340,50,c),
(340,105,o),
(296,150,o),
(240,150,c)
);
},
{
attr = {
identifier = ID0x15af827e0;
lineCapEnd = 1;
lineCapStart = 1;
strokeHeight = 100;
strokeWidth = 100;
};
closed = 0;
nodes = (
(164,150,l),
(241,150,l)
);
}
);
width = 440;
}
);
metricLeft = three;
metricRight = three;
unicode = 8323;
}
{
glyphname = sixinferior;
layers = (
{
layerId = m002;
shapes = (
{
attr = {
identifier = ID0x15af83590;
strokeHeight = 100;
strokeWidth = 100;
};
closed = 1;
nodes = (
(365,10,o),
(306,-50,o),
(232,-50,cs),
(159,-50,o),
(100,10,o),
(100,83,cs),
(100,156,o),
(159,215,o),
(232,215,cs),
(306,215,o),
(365,156,o),
(365,83,cs)
);
},
{
attr = {
identifier = ID0x15af83590;
lineCapEnd = 1;
lineCapStart = 1;
strokeHeight = 100;
strokeWidth = 100;
};
closed = 0;
nodes = (
(353,301,l),
(331,330,o),
(298,350,o),
(242,350,cs),
(232,350,ls),
(159,350,o),
(100,291,o),
(100,218,cs),
(100,83,l)
);
}
);
width = 465;
}
);
metricLeft = six;
metricRight = six;
unicode = 8326;
}
{
glyphname = seveninferior;
layers = (
{
layerId = m002;
shapes = (
{
attr = {
identifier = ID0x15af83a20;
lineCapEnd = 1;
lineCapStart = 1;
strokeHeight = 100;
strokeWidth = 100;
};
closed = 0;
nodes = (
(365,350,l),
(100,350,l)
);
},
{
attr = {
identifier = ID0x15af83a20;
lineCapEnd = 1;
lineCapStart = 1;
strokeHeight = 100;
strokeWidth = 100;
};
closed = 0;
nodes = (
(150,-50,l),
(365,350,l)
);
}
);
width = 445;
}
);
metricLeft = seven;
metricRight = seven;
unicode = 8327;
}
{
glyphname = eightinferior;
layers = (
{
layerId = m002;
shapes = (
{
attr = {
identifier = ID0x15af83eb0;
lineCapEnd = 1;
lineCapStart = 1;
strokeHeight = 100;
strokeWidth = 100;
};
closed = 0;
nodes = (
(265,150,l),
(320,150,o),
(365,105,o),
(365,50,c),
(365,-5,o),
(320,-50,o),
(265,-50,c),
(200,-50,l),
(145,-50,o),
(100,-5,o),
(100,50,c),
(100,105,o),
(145,150,o),
(200,150,c)
);
},
{
attr = {
identifier = ID0x15af83eb0;
lineCapEnd = 1;
lineCapStart = 1;
strokeHeight = 100;
strokeWidth = 100;
};
closed = 0;
nodes = (
(200,150,l),
(145,150,o),
(100,195,o),
(100,250,c),
(100,305,o),
(145,350,o),
(200,350,c),
(265,350,l),
(320,350,o),
(365,305,o),
(365,250,c),
(365,195,o),
(320,150,o),
(265,150,c)
);
},
{
attr = {
identifier = ID0x15af83eb0;
lineCapEnd = 1;
lineCapStart = 1;
strokeHeight = 100;
strokeWidth = 100;
};
closed = 0;
nodes = (
(200,150,l),
(265,150,l)
);
}
);
width = 465;
}
);
metricLeft = eight;
metricRight = eight;
unicode = 8328;
}
{
glyphname = nineinferior;
layers = (
{
layerId = m002;
shapes = (
{
attr = {
identifier = ID0x15af84340;
strokeHeight = 100;
strokeWidth = 100;
};
closed = 1;
nodes = (
(100,291,o),
(159,350,o),
(232,350,c),
(306,350,o),
(365,291,o),
(365,218,c),
(365,145,o),
(306,85,o),
(232,85,c),
(159,85,o),
(100,145,o),
(100,218,c)
);
},
{
attr = {
identifier = ID0x15af84340;
lineCapEnd = 1;
lineCapStart = 1;
strokeHeight = 100;
strokeWidth = 100;
};
closed = 0;
nodes = (
(112,-1,l),
(134,-30,o),
(167,-50,o),
(223,-50,c),
(232,-50,l),
(306,-50,o),
(365,10,o),
(365,83,c),
(365,218,l)
);
}
);
width = 465;
}
);
metricLeft = nine;
metricRight = nine;
unicode = 8329;
}
{
glyphname = won;
layers = (
{
layerId = m002;
shapes = (
{
attr = {
lineCapEnd = 1;
lineCapStart = 1;
strokeHeight = 100;
strokeWidth = 100;
};
closed = 0;
nodes = (
(100,450,l),
(900,450,l)
);
},
{
attr = {
lineCapEnd = 1;
lineCapStart = 1;
strokeHeight = 100;
strokeWidth = 100;
};
closed = 0;
nodes = (
(100,250,l),
(900,250,l)
);
},
{
attr = {
lineCapEnd = 1;
lineCapStart = 1;
strokeHeight = 100;
strokeWidth = 100;
};
closed = 0;
nodes = (
(500,850,l),
(300,50,l)
);
},
{
attr = {
lineCapEnd = 1;
lineCapStart = 1;
strokeHeight = 100;
strokeWidth = 100;
};
closed = 0;
nodes = (
(900,850,l),
(700,50,l)
);
},
{
attr = {
lineCapEnd = 1;
lineCapStart = 1;
strokeHeight = 100;
strokeWidth = 100;
};
closed = 0;
nodes = (
(300,50,l),
(100,850,l)
);
},
{
attr = {
lineCapEnd = 1;
lineCapStart = 1;
strokeHeight = 100;
strokeWidth = 100;
};
closed = 0;
nodes = (
(700,50,l),
(500,850,l)
);
}
);
width = 1000;
}
);
unicode = 8361;
}
{
glyphname = sheqel;
layers = (
{
layerId = m002;
shapes = (
{
attr = {
lineCapEnd = 1;
lineCapStart = 1;
strokeHeight = 100;
strokeWidth = 100;
};
closed = 0;
nodes = (
(500,300,l),
(500,380,ls),
(500,491,o),
(411,580,o),
(300,580,cs),
(100,580,l)
);
},
{
attr = {
lineCapEnd = 1;
lineCapStart = 1;
strokeHeight = 100;
strokeWidth = 100;
};
closed = 0;
nodes = (
(100,50,l),
(100,580,l)
);
},
{
attr = {
lineCapEnd = 1;
lineCapStart = 1;
strokeHeight = 100;
strokeWidth = 100;
};
closed = 0;
nodes = (
(700,580,l),
(700,250,ls),
(700,140,o),
(611,50,o),
(500,50,cs),
(300,50,l)
);
},
{
attr = {
lineCapEnd = 1;
lineCapStart = 1;
strokeHeight = 100;
strokeWidth = 100;
};
closed = 0;
nodes = (
(300,50,l),
(300,330,l)
);
}
);
width = 800;
}
);
metricLeft = "=50";
metricRight = "=50";
unicode = 8362;
}
{
glyphname = dong;
layers = (
{
layerId = m002;
shapes = (
{
attr = {
lineCapEnd = 1;
lineCapStart = 1;
strokeHeight = 100;
strokeWidth = 100;
};
closed = 0;
nodes = (
(100,-165,l),
(500,-165,l)
);
},
{
attr = {
lineCapEnd = 1;
lineCapStart = 1;
strokeHeight = 100;
strokeWidth = 100;
};
closed = 0;
nodes = (
(400,750,l),
(600,750,l)
);
},
{
attr = {
lineCapEnd = 1;
lineCapStart = 1;
strokeHeight = 100;
strokeWidth = 100;
};
closed = 0;
nodes = (
(500,380,l),
(500,490,o),
(411,580,o),
(300,580,cs),
(190,580,o),
(100,490,o),
(100,380,c),
(100,250,l),
(100,139,o),
(190,50,o),
(300,50,cs),
(411,50,o),
(500,139,o),
(500,250,c)
);
},
{
attr = {
lineCapEnd = 1;
lineCapStart = 1;
strokeHeight = 100;
strokeWidth = 100;
};
closed = 0;
nodes = (
(500,50,l),
(500,850,l)
);
},
{
attr = {
lineCapEnd = 1;
lineCapStart = 1;
strokeHeight = 100;
strokeWidth = 100;
};
closed = 1;
nodes = (
(300,580,l)
);
},
{
attr = {
lineCapEnd = 1;
lineCapStart = 1;
strokeHeight = 100;
strokeWidth = 100;
};
closed = 1;
nodes = (
(300,50,l)
);
}
);
width = 700;
}
);
metricLeft = d;
unicode = 8363;
}
{
glyphname = euro;
layers = (
{
layerId = m002;
shapes = (
{
attr = {
lineCapEnd = 1;
lineCapStart = 1;
strokeHeight = 100;
strokeWidth = 100;
};
closed = 0;
nodes = (
(673,146,l),
(624,87,o),
(550,50,o),
(468,50,cs),
(320,50,o),
(200,170,o),
(200,318,c),
(200,582,l),
(200,730,o),
(320,850,o),
(468,850,cs),
(551,850,o),
(625,812,o),
(674,753,c)
);
},
{
attr = {
lineCapEnd = 1;
lineCapStart = 1;
strokeHeight = 100;
strokeWidth = 100;
};
closed = 0;
nodes = (
(100,547,l),
(400,547,l)
);
},
{
attr = {
lineCapEnd = 1;
lineCapStart = 1;
strokeHeight = 100;
strokeWidth = 100;
};
closed = 0;
nodes = (
(100,351,l),
(400,351,l)
);
},
{
attr = {
lineCapEnd = 1;
lineCapStart = 1;
strokeHeight = 100;
strokeWidth = 100;
};
closed = 1;
nodes = (
(468,850,l)
);
},
{
attr = {
lineCapEnd = 1;
lineCapStart = 1;
strokeHeight = 100;
strokeWidth = 100;
};
closed = 1;
nodes = (
(468,50,l)
);
}
);
width = 774;
}
);
unicode = 8364;
}
{
glyphname = hryvnia;
layers = (
{
layerId = m002;
shapes = (
{
attr = {
lineCapEnd = 1;
lineCapStart = 1;
strokeHeight = 100;
strokeWidth = 100;
};
closed = 0;
nodes = (
(100,370,l),
(630,370,l)
);
},
{
attr = {
lineCapEnd = 1;
lineCapStart = 1;
strokeHeight = 100;
strokeWidth = 100;
};
closed = 0;
nodes = (
(630,530,l),
(100,530,l)
);
},
{
attr = {
lineCapEnd = 1;
lineCapStart = 1;
strokeHeight = 100;
strokeWidth = 100;
};
closed = 0;
nodes = (
(422,530,l),
(510,530,o),
(582,602,o),
(582,690,cs),
(582,778,o),
(510,850,o),
(421,850,cs),
(351,850,ls),
(283,850,o),
(234,831,o),
(194,780,c)
);
},
{
attr = {
lineCapEnd = 1;
lineCapStart = 1;
strokeHeight = 100;
strokeWidth = 100;
};
closed = 0;
nodes = (
(559,120,l),
(519,69,o),
(470,50,o),
(402,50,cs),
(331,50,ls),
(243,50,o),
(171,122,o),
(171,210,cs),
(171,298,o),
(243,370,o),
(331,370,c)
);
}
);
width = 730;
}
);
metricLeft = "=50";
metricRight = "=50";
unicode = 8372;
}
{
glyphname = rupeeIndian;
layers = (
{
layerId = m002;
shapes = (
{
attr = {
lineCapEnd = 1;
lineCapStart = 1;
strokeHeight = 100;
strokeWidth = 100;
};
closed = 0;
nodes = (
(100,836,l),
(262,836,l),
(410,836,o),
(530,715,o),
(530,567,c),
(530,418,o),
(410,298,o),
(262,298,c)
);
},
{
attr = {
lineCapEnd = 1;
lineCapStart = 1;
strokeHeight = 100;
strokeWidth = 100;
};
closed = 0;
nodes = (
(262,836,l),
(630,836,l)
);
},
{
attr = {
lineCapEnd = 1;
lineCapStart = 1;
strokeHeight = 100;
strokeWidth = 100;
};
closed = 0;
nodes = (
(100,566,l),
(630,566,l)
);
},
{
attr = {
lineCapEnd = 1;
lineCapStart = 1;
strokeHeight = 100;
strokeWidth = 100;
};
closed = 0;
nodes = (
(262,298,l),
(530,36,l)
);
}
);
width = 730;
}
);
unicode = 8377;
}
{
glyphname = ruble;
layers = (
{
layerId = m002;
shapes = (
{
attr = {
lineCapEnd = 1;
lineCapStart = 1;
strokeHeight = 100;
strokeWidth = 100;
};
closed = 0;
nodes = (
(238,50,l),
(238,850,l)
);
},
{
attr = {
lineCapEnd = 1;
lineCapStart = 1;
strokeHeight = 100;
strokeWidth = 100;
};
closed = 0;
nodes = (
(238,850,l),
(470,850,ls),
(586,850,o),
(680,756,o),
(680,640,cs),
(680,524,o),
(586,430,o),
(470,430,cs),
(100,430,l)
);
},
{
attr = {
lineCapEnd = 1;
lineCapStart = 1;
strokeHeight = 100;
strokeWidth = 100;
};
closed = 0;
nodes = (
(420,247,l),
(100,247,l)
);
}
);
width = 780;
}
);
metricLeft = "=50";
metricRight = "=50";
unicode = 8381;
}
{
glyphname = oneeighth;
layers = (
{
layerId = m002;
shapes = (
{
attr = {
identifier = ID0x2bbdd0dd0;
lineCapEnd = "1";
lineCapStart = "1";
strokeHeight = 100;
strokeWidth = 100;
};
closed = 0;
nodes = (
(220,850,l),
(220,370,l)
);
},
{
attr = {
identifier = ID0x2bbdd0dd0;
lineCapEnd = "1";
lineCapStart = "1";
strokeHeight = 100;
strokeWidth = 100;
};
closed = 0;
nodes = (
(100,785,l),
(220,850,l)
);
},
{
pos = (120,0);
ref = fraction;
},
{
attr = {
identifier = ID0x2bc375c10;
lineCapEnd = 1;
lineCapStart = 1;
strokeHeight = 100;
strokeWidth = 100;
};
closed = 0;
nodes = (
(937,290,l),
(1004,290,o),
(1057,236,o),
(1057,170,cs),
(1057,104,o),
(1004,50,o),
(937,50,cs),
(859,50,ls),
(793,50,o),
(739,104,o),
(739,170,cs),
(739,236,o),
(793,290,o),
(859,290,c)
);
},
{
attr = {
identifier = ID0x2bc375c10;
lineCapEnd = 1;
lineCapStart = 1;
strokeHeight = 100;
strokeWidth = 100;
};
closed = 0;
nodes = (
(859,290,l),
(793,290,o),
(739,344,o),
(739,410,cs),
(739,476,o),
(793,530,o),
(859,530,cs),
(937,530,ls),
(1004,530,o),
(1057,476,o),
(1057,410,cs),
(1057,344,o),
(1004,290,o),
(937,290,c)
);
},
{
attr = {
identifier = ID0x2bc375c10;
lineCapEnd = 1;
lineCapStart = 1;
strokeHeight = 100;
strokeWidth = 100;
};
closed = 0;
nodes = (
(859,290,l),
(937,290,l)
);
}
);
width = 1157;
}
);
unicode = 8539;
}
{
glyphname = threeeighths;
layers = (
{
layerId = m002;
shapes = (
{
pos = (235,0);
ref = fraction;
},
{
attr = {
identifier = ID0x2bc412590;
lineCapEnd = "1";
lineCapStart = "1";
strokeHeight = 100;
strokeWidth = 100;
};
closed = 0;
nodes = (
(100,810,l),
(134,837,o),
(169,850,o),
(249,850,cs),
(268,850,ls),
(335,850,o),
(388,796,o),
(388,730,cs),
(388,664,o),
(335,610,o),
(268,610,c)
);
},
{
attr = {
identifier = ID0x2bc412590;
lineCapEnd = "1";
lineCapStart = "1";
strokeHeight = 100;
strokeWidth = 100;
};
closed = 0;
nodes = (
(100,410,l),
(134,383,o),
(169,370,o),
(249,370,cs),
(268,370,ls),
(335,370,o),
(388,424,o),
(388,490,cs),
(388,556,o),
(335,610,o),
(268,610,c)
);
},
{
attr = {
identifier = ID0x2bc412590;
lineCapEnd = "1";
lineCapStart = "1";
strokeHeight = 100;
strokeWidth = 100;
};
closed = 0;
nodes = (
(176,610,l),
(269,610,l)
);
},
{
attr = {
identifier = ID0x2bc375c10;
lineCapEnd = "1";
lineCapStart = "1";
strokeHeight = 100;
strokeWidth = 100;
};
closed = 0;
nodes = (
(1047,290,l),
(1114,290,o),
(1167,236,o),
(1167,170,cs),
(1167,104,o),
(1114,50,o),
(1047,50,cs),
(969,50,ls),
(903,50,o),
(849,104,o),
(849,170,cs),
(849,236,o),
(903,290,o),
(969,290,c)
);
},
{
attr = {
identifier = ID0x2bc375c10;
lineCapEnd = "1";
lineCapStart = "1";
strokeHeight = 100;
strokeWidth = 100;
};
closed = 0;
nodes = (
(969,290,l),
(903,290,o),
(849,344,o),
(849,410,cs),
(849,476,o),
(903,530,o),
(969,530,cs),
(1047,530,ls),
(1114,530,o),
(1167,476,o),
(1167,410,cs),
(1167,344,o),
(1114,290,o),
(1047,290,c)
);
},
{
attr = {
identifier = ID0x2bc375c10;
lineCapEnd = "1";
lineCapStart = "1";
strokeHeight = 100;
strokeWidth = 100;
};
closed = 0;
nodes = (
(969,290,l),
(1047,290,l)
);
}
);
width = 1267;
}
);
unicode = 8540;
}
{
glyphname = fiveeighths;
layers = (
{
layerId = m002;
shapes = (
{
pos = (224,0);
ref = fraction;
},
{
attr = {
identifier = ID0x2bc375c10;
lineCapEnd = "1";
lineCapStart = "1";
strokeHeight = 100;
strokeWidth = 100;
};
closed = 0;
nodes = (
(1036,290,ls),
(1103,290,o),
(1156,236,o),
(1156,170,cs),
(1156,104,o),
(1103,50,o),
(1036,50,cs),
(958,50,ls),
(892,50,o),
(838,104,o),
(838,170,cs),
(838,236,o),
(892,290,o),
(958,290,c)
);
},
{
attr = {
identifier = ID0x2bc375c10;
lineCapEnd = "1";
lineCapStart = "1";
strokeHeight = 100;
strokeWidth = 100;
};
closed = 0;
nodes = (
(958,290,ls),
(892,290,o),
(838,344,o),
(838,410,cs),
(838,476,o),
(892,530,o),
(958,530,cs),
(1036,530,ls),
(1103,530,o),
(1156,476,o),
(1156,410,cs),
(1156,344,o),
(1103,290,o),
(1036,290,c)
);
},
{
attr = {
identifier = ID0x2bc375c10;
lineCapEnd = "1";
lineCapStart = "1";
strokeHeight = 100;
strokeWidth = 100;
};
closed = 0;
nodes = (
(958,290,l),
(1036,290,l)
);
},
{
attr = {
identifier = ID0x2bc47c530;
lineCapEnd = 1;
lineCapStart = 1;
strokeHeight = 100;
strokeWidth = 100;
};
closed = 0;
nodes = (
(100,410,l),
(134,383,o),
(165,370,o),
(246,370,cs),
(259,370,ls),
(334,370,o),
(394,431,o),
(394,505,cs),
(394,579,o),
(334,640,o),
(259,640,cs),
(100,640,l)
);
},
{
attr = {
identifier = ID0x2bc47c530;
lineCapEnd = 1;
lineCapStart = 1;
strokeHeight = 100;
strokeWidth = 100;
};
closed = 0;
nodes = (
(100,850,l),
(394,850,l)
);
},
{
attr = {
identifier = ID0x2bc47c530;
lineCapEnd = 1;
lineCapStart = 1;
strokeHeight = 100;
strokeWidth = 100;
};
closed = 0;
nodes = (
(100,640,l),
(100,850,l)
);
}
);
width = 1256;
}
);
unicode = 8541;
}
{
glyphname = seveneighths;
layers = (
{
layerId = m002;
shapes = (
{
pos = (74,0);
ref = fraction;
},
{
attr = {
identifier = ID0x2bc375c10;
lineCapEnd = "1";
lineCapStart = "1";
strokeHeight = 100;
strokeWidth = 100;
};
closed = 0;
nodes = (
(886,290,ls),
(953,290,o),
(1006,236,o),
(1006,170,c),
(1006,104,o),
(953,50,o),
(886,50,c),
(808,50,l),
(742,50,o),
(688,104,o),
(688,170,c),
(688,236,o),
(742,290,o),
(808,290,c)
);
},
{
attr = {
identifier = ID0x2bc375c10;
lineCapEnd = "1";
lineCapStart = "1";
strokeHeight = 100;
strokeWidth = 100;
};
closed = 0;
nodes = (
(808,290,ls),
(742,290,o),
(688,344,o),
(688,410,c),
(688,476,o),
(742,530,o),
(808,530,c),
(886,530,l),
(953,530,o),
(1006,476,o),
(1006,410,c),
(1006,344,o),
(953,290,o),
(886,290,c)
);
},
{
attr = {
identifier = ID0x2bc375c10;
lineCapEnd = "1";
lineCapStart = "1";
strokeHeight = 100;
strokeWidth = 100;
};
closed = 0;
nodes = (
(808,290,l),
(886,290,l)
);
},
{
attr = {
identifier = ID0x2ba0cf060;
lineCapEnd = "1";
lineCapStart = "1";
strokeHeight = 100;
strokeWidth = 100;
};
closed = 0;
nodes = (
(418,850,l),
(100,850,l)
);
},
{
attr = {
identifier = ID0x2ba0cf060;
lineCapEnd = "1";
lineCapStart = "1";
strokeHeight = 100;
strokeWidth = 100;
};
closed = 0;
nodes = (
(160,370,l),
(418,850,l)
);
}
);
width = 1106;
}
);
unicode = 8542;
}
{
glyphname = leftRightArrow;
layers = (
{
layerId = m002;
shapes = (
{
attr = {
lineCapEnd = 1;
lineCapStart = 1;
strokeHeight = 100;
strokeWidth = 100;
};
closed = 0;
nodes = (
(855,50,l),
(1120,315,l)
);
},
{
attr = {
lineCapEnd = 1;
lineCapStart = 1;
strokeHeight = 100;
strokeWidth = 100;
};
closed = 0;
nodes = (
(1120,315,l),
(100,315,l)
);
},
{
attr = {
lineCapEnd = 1;
lineCapStart = 1;
strokeHeight = 100;
strokeWidth = 100;
};
closed = 0;
nodes = (
(1120,315,l),
(855,580,l)
);
},
{
attr = {
lineCapEnd = 1;
lineCapStart = 1;
strokeHeight = 100;
strokeWidth = 100;
};
closed = 0;
nodes = (
(365,580,l),
(100,315,l)
);
},
{
attr = {
lineCapEnd = 1;
lineCapStart = 1;
strokeHeight = 100;
strokeWidth = 100;
};
closed = 0;
nodes = (
(100,315,l),
(365,50,l)
);
}
);
width = 1220;
}
);
metricLeft = "=50";
metricRight = "=50";
unicode = 8596;
}
{
glyphname = rightDoubleArrow;
layers = (
{
layerId = m002;
shapes = (
{
attr = {
identifier = ID0x31e4071c0;
lineCapEnd = "1";
lineCapStart = "1";
strokeHeight = 100;
strokeWidth = 100;
};
closed = 0;
nodes = (
(100,215,l),
(699,215,l)
);
},
{
attr = {
identifier = ID0x31e4071c0;
lineCapEnd = "1";
lineCapStart = "1";
strokeHeight = 100;
strokeWidth = 100;
};
closed = 0;
nodes = (
(100,415,l),
(699,415,l)
);
},
{
attr = {
identifier = ID0x31cb0dbf0;
lineCapEnd = 1;
lineCapStart = 1;
strokeHeight = 100;
strokeWidth = 100;
};
closed = 0;
nodes = (
(535,50,l),
(800,315,l)
);
},
{
attr = {
identifier = ID0x31cb0dbf0;
lineCapEnd = 1;
lineCapStart = 1;
strokeHeight = 100;
strokeWidth = 100;
};
closed = 0;
nodes = (
(800,315,l)
);
},
{
attr = {
identifier = ID0x31cb0dbf0;
lineCapEnd = 1;
lineCapStart = 1;
strokeHeight = 100;
strokeWidth = 100;
};
closed = 0;
nodes = (
(800,315,l),
(535,580,l)
);
}
);
width = 900;
}
);
metricLeft = "=50";
metricRight = "=50";
unicode = 8658;
}
{
glyphname = leftRightDoubleArrow;
layers = (
{
layerId = m002;
shapes = (
{
attr = {
identifier = ID0x31e228460;
lineCapEnd = "1";
lineCapStart = "1";
strokeHeight = 100;
strokeWidth = 100;
};
closed = 0;
nodes = (
(1019,215,l),
(201,215,l)
);
},
{
attr = {
identifier = ID0x31e228460;
lineCapEnd = 1;
lineCapStart = 1;
strokeHeight = 100;
strokeWidth = 100;
};
closed = 0;
nodes = (
(855,50,l),
(1120,315,l)
);
},
{
attr = {
identifier = ID0x31e228460;
lineCapEnd = 1;
lineCapStart = 1;
strokeHeight = 100;
strokeWidth = 100;
};
closed = 1;
nodes = (
);
},
{
attr = {
identifier = ID0x31e228460;
lineCapEnd = 1;
lineCapStart = 1;
strokeHeight = 100;
strokeWidth = 100;
};
closed = 0;
nodes = (
(1120,315,l),
(855,580,l)
);
},
{
attr = {
identifier = ID0x171949150;
lineCapEnd = "1";
lineCapStart = "1";
strokeHeight = 100;
strokeWidth = 100;
};
closed = 0;
nodes = (
(201,415,l),
(1018,415,l)
);
},
{
attr = {
identifier = ID0x171949150;
lineCapEnd = 1;
lineCapStart = 1;
strokeHeight = 100;
strokeWidth = 100;
};
closed = 0;
nodes = (
(100,315,l),
(365,50,l)
);
},
{
attr = {
identifier = ID0x171949150;
lineCapEnd = 1;
lineCapStart = 1;
strokeHeight = 100;
strokeWidth = 100;
};
closed = 1;
nodes = (
);
},
{
attr = {
identifier = ID0x171949150;
lineCapEnd = 1;
lineCapStart = 1;
strokeHeight = 100;
strokeWidth = 100;
};
closed = 0;
nodes = (
(365,580,l),
(100,315,l)
);
}
);
width = 1220;
}
);
metricLeft = "=50";
metricRight = "=50";
unicode = 8660;
}
{
glyphname = partialdiff;
layers = (
{
layerId = m002;
shapes = (
{
attr = {
lineCapEnd = 1;
lineCapStart = 1;
strokeHeight = 100;
strokeWidth = 100;
};
closed = 0;
nodes = (
(575,369,l),
(535,499,o),
(477,580,o),
(338,580,cs),
(200,580,o),
(100,476,o),
(100,322,cs),
(100,120,o),
(200,50,o),
(338,50,cs),
(477,50,o),
(575,140,o),
(575,322,cs),
(575,578,o),
(590,850,o),
(309,850,cs),
(248,850,o),
(186,844,o),
(136,795,c)
);
}
);
width = 675;
}
);
unicode = 8706;
}
{
glyphname = increment;
layers = (
{
layerId = m002;
shapes = (
{
ref = Lambda;
},
{
attr = {
lineCapEnd = 1;
lineCapStart = 1;
strokeHeight = 100;
strokeWidth = 100;
};
closed = 0;
nodes = (
(101,50,l),
(620,50,l)
);
}
);
width = 730;
}
);
unicode = 8710;
}
{
glyphname = radical;
layers = (
{
layerId = m002;
shapes = (
{
attr = {
lineCapEnd = 1;
lineCapStart = 1;
strokeHeight = 100;
strokeWidth = 100;
};
closed = 0;
nodes = (
(642,850,l),
(742,850,l)
);
},
{
attr = {
lineCapEnd = 1;
lineCapStart = 1;
strokeHeight = 100;
strokeWidth = 100;
};
closed = 0;
nodes = (
(342,50,l),
(642,850,l)
);
},
{
attr = {
lineCapEnd = 1;
lineCapStart = 1;
strokeHeight = 100;
strokeWidth = 100;
};
closed = 0;
nodes = (
(342,50,l),
(200,430,l)
);
},
{
attr = {
lineCapEnd = 1;
lineCapStart = 1;
strokeHeight = 100;
strokeWidth = 100;
};
closed = 0;
nodes = (
(100,430,l),
(200,430,l)
);
}
);
width = 842;
}
);
unicode = 8730;
}
{
glyphname = infinity;
layers = (
{
layerId = m002;
shapes = (
{
attr = {
strokeHeight = 100;
strokeWidth = 100;
};
closed = 1;
nodes = (
(431,210,o),
(488,296,o),
(548,395,cs),
(608,494,o),
(665,580,o),
(811,580,cs),
(914,580,o),
(996,497,o),
(996,395,cs),
(996,293,o),
(914,210,o),
(811,210,cs),
(665,210,o),
(608,296,o),
(548,395,cs),
(488,494,o),
(431,580,o),
(285,580,cs),
(182,580,o),
(100,497,o),
(100,395,cs),
(100,293,o),
(182,210,o),
(285,210,cs)
);
}
);
width = 1096;
}
);
unicode = 8734;
}
{
glyphname = integral;
layers = (
{
layerId = m002;
shapes = (
{
attr = {
lineCapEnd = 1;
lineCapStart = 1;
strokeHeight = 100;
strokeWidth = 100;
};
closed = 0;
nodes = (
(566,812,l),
(543,836,o),
(511,850,o),
(476,850,cs),
(406,850,o),
(350,793,o),
(350,722,cs),
(350,-92,ls),
(350,-163,o),
(294,-220,o),
(224,-220,cs),
(189,-220,o),
(157,-206,o),
(134,-182,c)
);
}
);
width = 700;
}
);
unicode = 8747;
}
{
glyphname = lozenge;
layers = (
{
layerId = m002;
shapes = (
{
attr = {
lineCapEnd = 1;
lineCapStart = 1;
strokeHeight = 100;
strokeWidth = 100;
};
closed = 0;
nodes = (
(610,450,l),
(355,50,l)
);
},
{
attr = {
lineCapEnd = 1;
lineCapStart = 1;
strokeHeight = 100;
strokeWidth = 100;
};
closed = 0;
nodes = (
(100,450,l),
(356,850,l)
);
},
{
attr = {
lineCapEnd = 1;
lineCapStart = 1;
strokeHeight = 100;
strokeWidth = 100;
};
closed = 0;
nodes = (
(356,850,l),
(610,450,l)
);
},
{
attr = {
lineCapEnd = 1;
lineCapStart = 1;
strokeHeight = 100;
strokeWidth = 100;
};
closed = 0;
nodes = (
(355,50,l),
(100,450,l)
);
}
);
width = 710;
}
);
unicode = 9674;
}
{
glyphname = dottedCircle;
layers = (
{
layerId = m002;
shapes = (
{
attr = {
lineCapEnd = 1;
lineCapStart = 1;
strokeHeight = 100;
strokeWidth = 100;
};
closed = 0;
nodes = (
(500,850,l),
(501,850,l)
);
},
{
attr = {
lineCapEnd = 1;
lineCapStart = 1;
strokeHeight = 100;
strokeWidth = 100;
};
closed = 0;
nodes = (
(900,450,l),
(901,450,l)
);
},
{
attr = {
lineCapEnd = 1;
lineCapStart = 1;
strokeHeight = 100;
strokeWidth = 100;
};
closed = 0;
nodes = (
(500,50,l),
(501,50,l)
);
},
{
attr = {
lineCapEnd = 1;
lineCapStart = 1;
strokeHeight = 100;
strokeWidth = 100;
};
closed = 0;
nodes = (
(100,450,l),
(101,450,l)
);
},
{
attr = {
lineCapEnd = 1;
lineCapStart = 1;
strokeHeight = 100;
strokeWidth = 100;
};
closed = 0;
nodes = (
(300,797,l),
(301,797,l)
);
},
{
attr = {
lineCapEnd = 1;
lineCapStart = 1;
strokeHeight = 100;
strokeWidth = 100;
};
closed = 0;
nodes = (
(846,650,l),
(847,650,l)
);
},
{
attr = {
lineCapEnd = 1;
lineCapStart = 1;
strokeHeight = 100;
strokeWidth = 100;
};
closed = 0;
nodes = (
(700,104,l),
(701,104,l)
);
},
{
attr = {
lineCapEnd = 1;
lineCapStart = 1;
strokeHeight = 100;
strokeWidth = 100;
};
closed = 0;
nodes = (
(154,250,l),
(155,250,l)
);
},
{
attr = {
lineCapEnd = 1;
lineCapStart = 1;
strokeHeight = 100;
strokeWidth = 100;
};
closed = 0;
nodes = (
(154,650,l),
(155,650,l)
);
},
{
attr = {
lineCapEnd = 1;
lineCapStart = 1;
strokeHeight = 100;
strokeWidth = 100;
};
closed = 0;
nodes = (
(700,797,l),
(701,797,l)
);
},
{
attr = {
lineCapEnd = 1;
lineCapStart = 1;
strokeHeight = 100;
strokeWidth = 100;
};
closed = 0;
nodes = (
(846,250,l),
(847,250,l)
);
},
{
attr = {
lineCapEnd = 1;
lineCapStart = 1;
strokeHeight = 100;
strokeWidth = 100;
};
closed = 0;
nodes = (
(300,104,l),
(301,104,l)
);
}
);
width = 1001;
}
);
unicode = 9676;
}
{
glyphname = largeCircle;
layers = (
{
layerId = m002;
shapes = (
{
attr = {
strokeHeight = 100;
strokeWidth = 100;
};
closed = 1;
nodes = (
(1195,-270,o),
(1510,44,o),
(1510,436,cs),
(1510,826,o),
(1195,1140,o),
(805,1140,cs),
(414,1140,o),
(100,826,o),
(100,436,cs),
(100,44,o),
(414,-270,o),
(805,-270,cs)
);
}
);
width = 1610;
}
);
metricLeft = "=50";
metricRight = "=50";
unicode = 9711;
}
{
glyphname = whiteHeavyCheckMark;
layers = (
{
layerId = m002;
shapes = (
{
attr = {
strokeHeight = 100;
strokeWidth = 100;
};
closed = 1;
nodes = (
(240,850,l),
(162,850,o),
(100,787,o),
(100,710,c),
(100,70,l),
(100,-7,o),
(162,-70,o),
(240,-70,c),
(880,-70,l),
(957,-70,o),
(1020,-7,o),
(1020,70,c),
(1020,710,l),
(1020,787,o),
(957,850,o),
(880,850,c)
);
},
{
attr = {
lineCapEnd = 1;
lineCapStart = 1;
strokeHeight = 100;
strokeWidth = 100;
};
closed = 0;
nodes = (
(476,140,l),
(310,364,l)
);
},
{
attr = {
lineCapEnd = 1;
lineCapStart = 1;
strokeHeight = 100;
strokeWidth = 100;
};
closed = 0;
nodes = (
(810,588,l),
(476,140,l)
);
}
);
width = 1120;
}
);
unicode = 9989;
}
{
glyphname = envelope;
layers = (
{
layerId = m002;
shapes = (
{
attr = {
lineCapEnd = 1;
lineCapStart = 1;
strokeHeight = 100;
strokeWidth = 100;
};
closed = 0;
nodes = (
(1020,720,l),
(1020,60,l)
);
},
{
attr = {
lineCapEnd = 1;
lineCapStart = 1;
strokeHeight = 100;
strokeWidth = 100;
};
closed = 0;
nodes = (
(1020,60,l),
(100,60,l)
);
},
{
attr = {
lineCapEnd = 1;
lineCapStart = 1;
strokeHeight = 100;
strokeWidth = 100;
};
closed = 0;
nodes = (
(100,720,l),
(560,330,l)
);
},
{
attr = {
lineCapEnd = 1;
lineCapStart = 1;
strokeHeight = 100;
strokeWidth = 100;
};
closed = 0;
nodes = (
(100,60,l),
(456,416,l)
);
},
{
attr = {
lineCapEnd = 1;
lineCapStart = 1;
strokeHeight = 100;
strokeWidth = 100;
};
closed = 0;
nodes = (
(1020,60,l),
(664,416,l)
);
},
{
attr = {
lineCapEnd = 1;
lineCapStart = 1;
strokeHeight = 100;
strokeWidth = 100;
};
closed = 0;
nodes = (
(560,330,l),
(1020,720,l)
);
},
{
attr = {
lineCapEnd = 1;
lineCapStart = 1;
strokeHeight = 100;
strokeWidth = 100;
};
closed = 0;
nodes = (
(100,720,l),
(1020,720,l)
);
},
{
attr = {
lineCapEnd = 1;
lineCapStart = 1;
strokeHeight = 100;
strokeWidth = 100;
};
closed = 0;
nodes = (
(100,60,l),
(100,720,l)
);
}
);
width = 1120;
}
);
unicode = 9993;
}
{
glyphname = heavyMultiplicationX;
layers = (
{
layerId = m002;
shapes = (
{
attr = {
lineCapEnd = "1";
lineCapStart = "1";
strokeHeight = 100;
strokeWidth = 100;
};
closed = 0;
nodes = (
(100,80,l),
(720,700,l)
);
},
{
attr = {
lineCapEnd = "1";
lineCapStart = "1";
strokeHeight = 100;
strokeWidth = 100;
};
closed = 0;
nodes = (
(100,700,l),
(720,80,l)
);
}
);
width = 820;
}
);
unicode = 10006;
}
{
glyphname = snowflake;
kernLeft = emojiRound;
kernRight = emojiRound;
layers = (
{
layerId = m002;
shapes = (
{
attr = {
lineCapEnd = 1;
lineCapStart = 1;
strokeHeight = 100;
strokeWidth = 100;
};
closed = 0;
nodes = (
(499,850,l),
(499,-70,l)
);
},
{
attr = {
lineCapEnd = 1;
lineCapStart = 1;
strokeHeight = 100;
strokeWidth = 100;
};
closed = 0;
nodes = (
(649,16,l),
(499,166,l),
(349,16,l)
);
},
{
attr = {
lineCapEnd = 1;
lineCapStart = 1;
strokeHeight = 100;
strokeWidth = 100;
};
closed = 0;
nodes = (
(349,764,l),
(499,614,l),
(649,764,l)
);
},
{
attr = {
lineCapEnd = 1;
lineCapStart = 1;
strokeHeight = 100;
strokeWidth = 100;
};
closed = 0;
nodes = (
(101,620,l),
(897,160,l)
);
},
{
attr = {
lineCapEnd = 1;
lineCapStart = 1;
strokeHeight = 100;
strokeWidth = 100;
};
closed = 0;
nodes = (
(897,333,l),
(693,278,l),
(747,73,l)
);
},
{
attr = {
lineCapEnd = 1;
lineCapStart = 1;
strokeHeight = 100;
strokeWidth = 100;
};
closed = 0;
nodes = (
(100,447,l),
(305,502,l),
(250,707,l)
);
},
{
attr = {
lineCapEnd = 1;
lineCapStart = 1;
strokeHeight = 100;
strokeWidth = 100;
};
closed = 0;
nodes = (
(101,160,l),
(897,620,l)
);
},
{
attr = {
lineCapEnd = 1;
lineCapStart = 1;
strokeHeight = 100;
strokeWidth = 100;
};
closed = 0;
nodes = (
(747,707,l),
(693,502,l),
(897,447,l)
);
},
{
attr = {
lineCapEnd = 1;
lineCapStart = 1;
strokeHeight = 100;
strokeWidth = 100;
};
closed = 0;
nodes = (
(250,73,l),
(305,278,l),
(100,333,l)
);
}
);
width = 997;
}
);
unicode = 10052;
}
{
glyphname = blackCrossSquare;
layers = (
{
layerId = m002;
shapes = (
{
attr = {
strokeHeight = 100;
strokeWidth = 100;
};
closed = 1;
nodes = (
(240,850,ls),
(163,850,o),
(100,787,o),
(100,710,cs),
(100,70,ls),
(100,-7,o),
(163,-70,o),
(240,-70,cs),
(880,-70,ls),
(957,-70,o),
(1020,-7,o),
(1020,70,cs),
(1020,710,ls),
(1020,787,o),
(957,850,o),
(880,850,cs)
);
},
{
attr = {
lineCapEnd = 1;
lineCapStart = 1;
strokeHeight = 100;
strokeWidth = 100;
};
closed = 0;
nodes = (
(310,140,l),
(810,640,l)
);
},
{
attr = {
lineCapEnd = 1;
lineCapStart = 1;
strokeHeight = 100;
strokeWidth = 100;
};
closed = 0;
nodes = (
(310,640,l),
(810,140,l)
);
}
);
width = 1120;
}
);
unicode = 10062;
}
{
glyphname = leftRightLongArrow;
layers = (
{
layerId = m002;
shapes = (
{
attr = {
identifier = ID0x11ca2fbf0;
lineCapEnd = "1";
lineCapStart = "1";
strokeHeight = 100;
strokeWidth = 100;
};
closed = 0;
nodes = (
(100,315,l),
(365,50,l)
);
},
{
attr = {
identifier = ID0x11ca2fbf0;
lineCapEnd = "1";
lineCapStart = "1";
strokeHeight = 100;
strokeWidth = 100;
};
closed = 0;
nodes = (
(1844,315,l),
(100,315,l)
);
},
{
attr = {
identifier = ID0x11ca2fbf0;
lineCapEnd = "1";
lineCapStart = "1";
strokeHeight = 100;
strokeWidth = 100;
};
closed = 0;
nodes = (
(365,580,l),
(100,315,l)
);
},
{
attr = {
identifier = ID0x1038e8170;
lineCapEnd = "1";
lineCapStart = "1";
strokeHeight = 100;
strokeWidth = 100;
};
closed = 0;
nodes = (
(1585,50,l),
(1850,315,l)
);
},
{
attr = {
identifier = ID0x1038e8170;
lineCapEnd = "1";
lineCapStart = "1";
strokeHeight = 100;
strokeWidth = 100;
};
closed = 0;
nodes = (
(1850,315,l),
(1585,580,l)
);
}
);
width = 1950;
}
);
metricLeft = "=50";
metricRight = "=50";
unicode = 10231;
}
{
glyphname = leftLongDoubleArrow;
layers = (
{
layerId = m002;
shapes = (
{
attr = {
identifier = ID0x1046fe330;
lineCapEnd = "1";
lineCapStart = "1";
strokeHeight = 100;
strokeWidth = 100;
};
closed = 0;
nodes = (
(201,215,l),
(1350,215,l)
);
},
{
attr = {
identifier = ID0x1046fe330;
lineCapEnd = "1";
lineCapStart = "1";
strokeHeight = 100;
strokeWidth = 100;
};
closed = 0;
nodes = (
(201,415,l),
(1350,415,l)
);
},
{
attr = {
identifier = ID0x1046fe330;
lineCapEnd = 1;
lineCapStart = 1;
strokeHeight = 100;
strokeWidth = 100;
};
closed = 0;
nodes = (
(100,315,l),
(365,50,l)
);
},
{
attr = {
identifier = ID0x1046fe330;
lineCapEnd = 1;
lineCapStart = 1;
strokeHeight = 100;
strokeWidth = 100;
};
closed = 0;
nodes = (
(365,580,l),
(100,315,l)
);
}
);
width = 1450;
}
);
metricLeft = "=50";
metricRight = "=50";
unicode = 10232;
}
{
glyphname = leftRightLongDoubleArrow;
layers = (
{
layerId = m002;
shapes = (
{
attr = {
identifier = ID0x178ed7fa0;
lineCapEnd = "1";
lineCapStart = "1";
strokeHeight = 100;
strokeWidth = 100;
};
closed = 0;
nodes = (
(201,215,l),
(1743,215,l)
);
},
{
attr = {
identifier = ID0x178ed7fa0;
lineCapEnd = "1";
lineCapStart = "1";
strokeHeight = 100;
strokeWidth = 100;
};
closed = 0;
nodes = (
(201,415,l),
(1743,415,l)
);
},
{
attr = {
identifier = ID0x178ed7fa0;
lineCapEnd = 1;
lineCapStart = 1;
strokeHeight = 100;
strokeWidth = 100;
};
closed = 0;
nodes = (
(100,315,l),
(365,50,l)
);
},
{
attr = {
identifier = ID0x178ed7fa0;
lineCapEnd = 1;
lineCapStart = 1;
strokeHeight = 100;
strokeWidth = 100;
};
closed = 1;
nodes = (
);
},
{
attr = {
identifier = ID0x178ed7fa0;
lineCapEnd = 1;
lineCapStart = 1;
strokeHeight = 100;
strokeWidth = 100;
};
closed = 0;
nodes = (
(365,580,l),
(100,315,l)
);
},
{
attr = {
identifier = ID0x325a5ba60;
lineCapEnd = 1;
lineCapStart = 1;
strokeHeight = 100;
strokeWidth = 100;
};
closed = 0;
nodes = (
(1585,50,l),
(1850,315,l)
);
},
{
attr = {
identifier = ID0x325a5ba60;
lineCapEnd = 1;
lineCapStart = 1;
strokeHeight = 100;
strokeWidth = 100;
};
closed = 1;
nodes = (
);
},
{
attr = {
identifier = ID0x325a5ba60;
lineCapEnd = 1;
lineCapStart = 1;
strokeHeight = 100;
strokeWidth = 100;
};
closed = 0;
nodes = (
(1850,315,l),
(1585,580,l)
);
}
);
width = 1950;
}
);
metricLeft = "=50";
metricRight = "=50";
unicode = 10234;
}
{
glyphname = blackLargeSquare;
kernLeft = emojiSquare;
kernRight = emojiSquare;
layers = (
{
layerId = m002;
shapes = (
{
attr = {
strokeHeight = 100;
strokeWidth = 100;
};
closed = 1;
nodes = (
(240,850,ls),
(163,850,o),
(100,787,o),
(100,710,cs),
(100,70,ls),
(100,-7,o),
(163,-70,o),
(240,-70,cs),
(880,-70,ls),
(957,-70,o),
(1020,-7,o),
(1020,70,cs),
(1020,710,ls),
(1020,787,o),
(957,850,o),
(880,850,cs)
);
}
);
width = 1120;
}
);
unicode = 11035;
}
{
glyphname = whiteMediumStar;
layers = (
{
layerId = m002;
shapes = (
{
attr = {
strokeHeight = 100;
strokeWidth = 100;
};
closed = 1;
nodes = (
(661,533,ls),
(666,519,o),
(679,510,o),
(694,510,cs),
(960,510,ls),
(993,510,o),
(1007,468,o),
(980,448,cs),
(765,292,ls),
(753,283,o),
(748,268,o),
(752,254,cs),
(835,1,ls),
(845,-31,o),
(809,-57,o),
(782,-38,cs),
(567,119,ls),
(555,128,o),
(539,128,o),
(527,119,cs),
(311,-38,ls),
(285,-57,o),
(249,-31,o),
(259,1,cs),
(341,254,ls),
(346,268,o),
(341,283,o),
(329,292,cs),
(114,448,ls),
(87,468,o),
(101,510,o),
(134,510,cs),
(400,510,ls),
(414,510,o),
(428,519,o),
(432,533,cs),
(514,786,ls),
(525,818,o),
(569,818,o),
(579,786,cs)
);
}
);
width = 1094;
}
);
unicode = 11088;
}
{
glyphname = cornerbracketleft;
layers = (
{
layerId = m002;
shapes = (
{
attr = {
identifier = ID0x1536a5c50;
lineCapEnd = "1";
lineCapStart = "1";
strokeHeight = 100;
strokeWidth = 100;
};
closed = 0;
nodes = (
(100,365,l),
(100,850,l)
);
},
{
attr = {
identifier = ID0x1536a5c50;
lineCapEnd = "1";
lineCapStart = "1";
strokeHeight = 100;
strokeWidth = 100;
};
closed = 0;
nodes = (
(100,850,l),
(459,850,l)
);
}
);
width = 559;
}
);
unicode = 12300;
}
{
glyphname = tortoiseshellbracketleft;
kernRight = parenthesis;
layers = (
{
layerId = m002;
shapes = (
{
attr = {
lineCapEnd = 1;
lineCapStart = 1;
strokeHeight = 100;
strokeWidth = 100;
};
closed = 0;
nodes = (
(260,850,l),
(100,710,l)
);
},
{
attr = {
lineCapEnd = 1;
lineCapStart = 1;
strokeHeight = 100;
strokeWidth = 100;
};
closed = 0;
nodes = (
(100,30,l),
(260,-110,l)
);
},
{
attr = {
lineCapEnd = 1;
lineCapStart = 1;
strokeHeight = 100;
strokeWidth = 100;
};
closed = 0;
nodes = (
(100,710,l),
(100,30,l)
);
}
);
width = 360;
}
);
unicode = 12308;
}
{
glyphname = whitelenticularbracketright;
layers = (
{
layerId = m002;
shapes = (
{
attr = {
identifier = ID0x1536e3080;
lineCapEnd = "1";
lineCapStart = "1";
strokeHeight = 100;
strokeWidth = 100;
};
closed = 0;
nodes = (
(100,850,l),
(100,850,o),
(300,672,o),
(300,370,cs),
(300,67,o),
(100,-110,o),
(100,-110,c)
);
},
{
attr = {
identifier = ID0x1536a5c50;
lineCapEnd = 1;
lineCapStart = 1;
strokeHeight = 100;
strokeWidth = 100;
};
closed = 0;
nodes = (
(459,-110,l),
(459,850,l)
);
},
{
attr = {
identifier = ID0x1536a5c50;
lineCapEnd = 1;
lineCapStart = 1;
strokeHeight = 100;
strokeWidth = 100;
};
closed = 0;
nodes = (
(100,-110,l),
(459,-110,l)
);
},
{
attr = {
identifier = ID0x1536a5c50;
lineCapEnd = 1;
lineCapStart = 1;
strokeHeight = 100;
strokeWidth = 100;
};
closed = 0;
nodes = (
(459,850,l),
(100,850,l)
);
}
);
width = 559;
}
);
metricLeft = ")";
metricRight = "]";
unicode = 12311;
}
{
glyphname = wavedash;
kernLeft = dash;
kernRight = dash;
layers = (
{
layerId = m002;
shapes = (
{
attr = {
lineCapEnd = 1;
lineCapStart = 1;
strokeHeight = 100;
strokeWidth = 100;
};
closed = 0;
nodes = (
(500,365,l),
(500,310,o),
(455,265,o),
(399,265,cs),
(338,265,o),
(319,297,o),
(300,315,cs),
(281,333,o),
(262,365,o),
(200,365,cs),
(145,365,o),
(100,320,o),
(100,265,c)
);
}
);
width = 600;
}
);
unicode = 12316;
}
{
glyphname = wavydash;
layers = (
{
layerId = m002;
shapes = (
{
attr = {
lineCapEnd = 1;
lineCapStart = 1;
strokeHeight = 100;
strokeWidth = 100;
};
closed = 0;
nodes = (
(100,435,l),
(225,435,o),
(225,195,o),
(350,195,cs),
(475,195,o),
(475,435,o),
(600,435,cs),
(725,435,o),
(725,195,o),
(850,195,cs),
(975,195,o),
(975,435,o),
(1100,435,c)
);
}
);
width = 1200;
}
);
unicode = 12336;
}
{
glyphname = fl;
layers = (
{
anchors = (
{
name = caret_1;
pos = (386,0);
}
);
layerId = m002;
shapes = (
{
attr = {
lineCapEnd = 1;
lineCapStart = 1;
strokeHeight = 100;
strokeWidth = 100;
};
closed = 0;
nodes = (
(100,580,l),
(367,580,l)
);
},
{
attr = {
lineCapEnd = 1;
lineCapStart = 1;
strokeHeight = 100;
strokeWidth = 100;
};
closed = 0;
nodes = (
(206,50,l),
(206,710,l),
(206,787,o),
(268,850,o),
(346,850,c),
(400,850,l),
(469,850,o),
(513,830,o),
(542,791,c)
);
},
{
attr = {
lineCapEnd = 1;
lineCapStart = 1;
strokeHeight = 100;
strokeWidth = 100;
};
closed = 0;
nodes = (
(542,791,l),
(542,150,l),
(542,95,o),
(587,50,o),
(642,50,c),
(672,50,l)
);
}
);
width = 772;
}
);
metricLeft = f;
metricRight = l;
unicode = 64258;
}
{
glyphname = rainbow;
layers = (
{
layerId = m002;
shapes = (
{
attr = {
lineCapEnd = 1;
lineCapStart = 1;
strokeHeight = 100;
strokeWidth = 100;
};
closed = 0;
nodes = (
(100,-70,l),
(100,438,o),
(512,850,o),
(1020,850,c)
);
},
{
attr = {
lineCapEnd = 1;
lineCapStart = 1;
strokeHeight = 100;
strokeWidth = 100;
};
closed = 0;
nodes = (
(293,-70,l),
(293,331,o),
(618,657,o),
(1020,657,c)
);
},
{
attr = {
lineCapEnd = 1;
lineCapStart = 1;
strokeHeight = 100;
strokeWidth = 100;
};
closed = 0;
nodes = (
(486,-70,l),
(486,225,o),
(725,463,o),
(1020,463,c)
);
},
{
attr = {
lineCapEnd = 1;
lineCapStart = 1;
strokeHeight = 100;
strokeWidth = 100;
};
closed = 0;
nodes = (
(680,-70,l),
(680,118,o),
(832,270,o),
(1020,270,c)
);
},
{
attr = {
lineCapEnd = 1;
lineCapStart = 1;
strokeHeight = 100;
strokeWidth = 100;
};
closed = 0;
nodes = (
(100,-70,l),
(680,-70,l)
);
},
{
attr = {
lineCapEnd = 1;
lineCapStart = 1;
strokeHeight = 100;
strokeWidth = 100;
};
closed = 0;
nodes = (
(1020,270,l),
(1020,850,l)
);
}
);
width = 1120;
}
);
unicode = 127752;
}
{
glyphname = globeMeridians;
kernLeft = emojiRound;
kernRight = emojiRound;
layers = (
{
layerId = m002;
shapes = (
{
attr = {
strokeHeight = 100;
strokeWidth = 100;
};
closed = 1;
nodes = (
(815,-70,o),
(1020,136,o),
(1020,391,c),
(1020,645,o),
(815,850,o),
(561,850,c),
(306,850,o),
(100,645,o),
(100,391,c),
(100,136,o),
(306,-70,o),
(561,-70,c)
);
},
{
attr = {
strokeHeight = 100;
strokeWidth = 100;
};
closed = 0;
nodes = (
(959,620,l),
(161,620,l)
);
},
{
attr = {
strokeHeight = 100;
strokeWidth = 100;
};
closed = 0;
nodes = (
(961,166,l),
(158,166,l)
);
},
{
attr = {
strokeHeight = 100;
strokeWidth = 100;
};
closed = 0;
nodes = (
(102,390,l),
(1017,390,l)
);
},
{
attr = {
strokeHeight = 100;
strokeWidth = 100;
};
closed = 0;
nodes = (
(561,850,l),
(561,-70,l)
);
},
{
attr = {
strokeHeight = 100;
strokeWidth = 100;
};
closed = 1;
nodes = (
(687,-70,o),
(790,136,o),
(790,391,c),
(790,645,o),
(687,850,o),
(560,850,c),
(433,850,o),
(330,645,o),
(330,391,c),
(330,136,o),
(433,-70,o),
(560,-70,c)
);
}
);
width = 1120;
}
);
unicode = 127760;
}
{
glyphname = firstQuarterMoonSymbol;
kernLeft = emojiRound;
kernRight = emojiRound;
layers = (
{
layerId = m002;
shapes = (
{
attr = {
strokeHeight = 100;
strokeWidth = 100;
};
closed = 1;
nodes = (
(815,-70,o),
(1020,136,o),
(1020,391,cs),
(1020,645,o),
(815,850,o),
(561,850,cs),
(306,850,o),
(100,645,o),
(100,391,cs),
(100,136,o),
(306,-70,o),
(561,-70,cs)
);
},
{
attr = {
strokeHeight = 100;
strokeWidth = 100;
};
closed = 0;
nodes = (
(561,850,l),
(561,-70,l)
);
}
);
width = 1120;
}
);
unicode = 127763;
}
{
glyphname = crescentMoon;
layers = (
{
layerId = m002;
shapes = (
{
attr = {
lineCapEnd = 1;
lineCapStart = 1;
strokeHeight = 100;
strokeWidth = 100;
};
closed = 0;
nodes = (
(100,181,l),
(122,137,o),
(151,96,o),
(188,60,cs),
(367,-120,o),
(658,-119,o),
(838,61,cs),
(1018,241,o),
(1018,531,o),
(838,710,cs),
(802,747,o),
(761,776,o),
(717,798,c)
);
},
{
attr = {
lineCapEnd = 1;
lineCapStart = 1;
strokeHeight = 100;
strokeWidth = 100;
};
closed = 0;
nodes = (
(717,798,l),
(802,626,o),
(773,413,o),
(630,270,cs),
(486,126,o),
(272,96,o),
(100,181,c)
);
}
);
width = 1073;
}
);
unicode = 127769;
}
{
glyphname = eyes;
layers = (
{
layerId = m002;
shapes = (
{
attr = {
strokeHeight = 100;
strokeWidth = 100;
};
closed = 1;
nodes = (
(560,136,o),
(457,-70,o),
(330,-70,cs),
(203,-70,o),
(100,136,o),
(100,390,cs),
(100,644,o),
(203,850,o),
(330,850,cs),
(457,850,o),
(560,644,o),
(560,390,cs)
);
},
{
attr = {
strokeHeight = 100;
strokeWidth = 100;
};
closed = 1;
nodes = (
(1020,136,o),
(917,-70,o),
(790,-70,cs),
(663,-70,o),
(560,136,o),
(560,390,cs),
(560,644,o),
(663,850,o),
(790,850,cs),
(917,850,o),
(1020,644,o),
(1020,390,cs)
);
},
{
attr = {
strokeHeight = 100;
strokeWidth = 100;
};
closed = 1;
nodes = (
(840,313,o),
(777,250,o),
(700,250,cs),
(623,250,o),
(560,313,o),
(560,390,cs),
(560,468,o),
(623,530,o),
(700,530,cs),
(777,530,o),
(840,468,o),
(840,390,cs)
);
},
{
attr = {
strokeHeight = 100;
strokeWidth = 100;
};
closed = 1;
nodes = (
(380,313,o),
(317,250,o),
(240,250,cs),
(163,250,o),
(100,313,o),
(100,390,cs),
(100,468,o),
(163,530,o),
(240,530,cs),
(317,530,o),
(380,468,o),
(380,390,cs)
);
}
);
width = 1120;
}
);
unicode = 128064;
}
